M48
; DRILL file {KiCad (5.99.0-10138-g1fe0c6d870)} date Friday, July 23, 2021 at 01:07:51 PM
; FORMAT={-:-/ absolute / inch / decimal}
; #@! TF.CreationDate,2021-07-23T13:07:51+01:00
; #@! TF.GenerationSoftware,Kicad,Pcbnew,(5.99.0-10138-g1fe0c6d870)
; #@! TF.FileFunction,MixedPlating,1,2
FMAT,2
INCH
; #@! TA.AperFunction,Plated,PTH,ViaDrill
T1C0.0157
; #@! TA.AperFunction,Plated,PTH,ComponentDrill
T2C0.0315
; #@! TA.AperFunction,Plated,PTH,ComponentDrill
T3C0.0354
; #@! TA.AperFunction,Plated,PTH,ComponentDrill
T4C0.0394
; #@! TA.AperFunction,Plated,PTH,ComponentDrill
T5C0.0433
; #@! TA.AperFunction,Plated,PTH,ComponentDrill
T6C0.0512
; #@! TA.AperFunction,Plated,PTH,ComponentDrill
T7C0.0827
; #@! TA.AperFunction,Plated,PTH,ComponentDrill
T8C0.0850
%
G90
G05
T1
X4.1Y-4.95
X4.15Y-3.0
X4.225Y-5.1
X4.275Y-3.3
X4.4493Y-5.2507
X4.45Y-3.275
X4.45Y-5.8
X4.455Y-3.775
X4.46Y-3.665
X4.485Y-4.985
X4.525Y-3.2
X4.575Y-3.605
X4.6246Y-3.7004
X4.6246Y-3.9004
X4.625Y-3.2
X4.6371Y-3.5129
X4.6882Y-5.1368
X4.6996Y-4.0246
X4.7Y-3.2
X4.7089Y-3.2847
X4.75Y-3.3
X4.9Y-4.875
X4.9Y-5.24
T2
X3.874Y-3.225
X3.8776Y-4.175
X3.9724Y-3.225
X3.976Y-4.175
X4.6246Y-4.75
X4.7246Y-4.75
X4.8246Y-4.75
T3
X4.3248Y-4.4
X4.325Y-4.575
X4.325Y-4.75
X4.4248Y-4.4
X4.425Y-4.575
X4.425Y-4.75
T4
X3.8796Y-3.5
X3.8796Y-3.6
X3.8796Y-3.7
X3.8796Y-3.8
X3.8796Y-3.9
X3.9796Y-3.5
X3.9796Y-3.6
X3.9796Y-3.7
X3.9796Y-3.8
X3.9796Y-3.9
X4.2246Y-2.95
X4.2246Y-3.05
X4.2246Y-3.15
X4.2246Y-3.25
X4.2246Y-3.35
X4.2246Y-3.45
X4.2246Y-3.55
X4.2246Y-3.65
X4.2246Y-3.75
X4.2246Y-3.85
X4.2246Y-3.95
X4.2246Y-4.05
X4.2246Y-4.15
X4.2246Y-4.25
X4.2246Y-4.35
X4.2766Y-2.2754
X4.3746Y-2.5016
X4.3746Y-2.6
X4.3746Y-2.6984
X4.375Y-2.2754
X4.3754Y-2.8266
X4.3754Y-2.925
X4.3754Y-3.0234
X4.4734Y-2.2754
X4.8246Y-2.95
X4.8246Y-3.05
X4.8246Y-3.15
X4.8246Y-3.25
X4.8246Y-3.35
X4.8246Y-3.45
X4.8246Y-3.55
X4.8246Y-3.65
X4.8246Y-3.75
X4.8246Y-3.85
X4.8246Y-3.95
X4.8246Y-4.05
X4.8246Y-4.15
X4.8246Y-4.25
X4.8246Y-4.35
T5
X4.1Y-3.3
X4.1Y-3.7
X4.1Y-3.85
X4.1Y-4.25
T6
X3.975Y-4.9199
X3.975Y-5.0419
X3.975Y-5.3687
X3.975Y-5.5949
X3.975Y-5.7169
X3.975Y-6.0437
X4.375Y-4.9199
X4.375Y-5.0419
X4.375Y-5.3687
X4.375Y-5.5949
X4.375Y-5.7169
X4.375Y-6.0437
X4.775Y-4.9199
X4.775Y-5.0419
X4.775Y-5.3687
X4.775Y-5.5949
X4.775Y-5.7169
X4.775Y-6.0437
T7
X4.0801Y-2.736
X4.0801Y-3.114
X4.186Y-1.9801
X4.564Y-1.9801
X4.6699Y-2.411
X4.6699Y-2.789
T8
X3.975Y-4.39
X3.975Y-4.575
X3.975Y-4.76
T0
M30
