%TF.GenerationSoftware,KiCad,Pcbnew,(5.99.0-10138-g1fe0c6d870)*%
%TF.CreationDate,2021-07-23T13:07:48+01:00*%
%TF.ProjectId,Hagiwo DCO,48616769-776f-4204-9443-4f2e6b696361,rev?*%
%TF.SameCoordinates,Original*%
%TF.FileFunction,Soldermask,Bot*%
%TF.FilePolarity,Negative*%
%FSLAX46Y46*%
G04 Gerber Fmt 4.6, Leading zero omitted, Abs format (unit mm)*
G04 Created by KiCad (PCBNEW (5.99.0-10138-g1fe0c6d870)) date 2021-07-23 13:07:48*
%MOMM*%
%LPD*%
G01*
G04 APERTURE LIST*
G04 Aperture macros list*
%AMRoundRect*
0 Rectangle with rounded corners*
0 $1 Rounding radius*
0 $2 $3 $4 $5 $6 $7 $8 $9 X,Y pos of 4 corners*
0 Add a 4 corners polygon primitive as box body*
4,1,4,$2,$3,$4,$5,$6,$7,$8,$9,$2,$3,0*
0 Add four circle primitives for the rounded corners*
1,1,$1+$1,$2,$3*
1,1,$1+$1,$4,$5*
1,1,$1+$1,$6,$7*
1,1,$1+$1,$8,$9*
0 Add four rect primitives between the rounded corners*
20,1,$1+$1,$2,$3,$4,$5,0*
20,1,$1+$1,$4,$5,$6,$7,0*
20,1,$1+$1,$6,$7,$8,$9,0*
20,1,$1+$1,$8,$9,$2,$3,0*%
G04 Aperture macros list end*
%ADD10RoundRect,0.250000X-0.475000X0.250000X-0.475000X-0.250000X0.475000X-0.250000X0.475000X0.250000X0*%
%ADD11R,1.500000X1.000000*%
%ADD12R,1.800000X1.800000*%
%ADD13C,1.800000*%
%ADD14C,3.240000*%
%ADD15C,3.230000*%
%ADD16R,2.200000X2.200000*%
%ADD17O,2.200000X2.200000*%
%ADD18O,3.000000X2.000000*%
%ADD19RoundRect,0.250000X0.262500X0.450000X-0.262500X0.450000X-0.262500X-0.450000X0.262500X-0.450000X0*%
%ADD20RoundRect,0.250000X0.450000X-0.262500X0.450000X0.262500X-0.450000X0.262500X-0.450000X-0.262500X0*%
%ADD21RoundRect,0.250000X-0.250000X-0.475000X0.250000X-0.475000X0.250000X0.475000X-0.250000X0.475000X0*%
%ADD22R,1.600000X1.600000*%
%ADD23C,1.600000*%
%ADD24RoundRect,0.250000X-0.450000X0.262500X-0.450000X-0.262500X0.450000X-0.262500X0.450000X0.262500X0*%
%ADD25C,1.440000*%
%ADD26RoundRect,0.250000X-0.262500X-0.450000X0.262500X-0.450000X0.262500X0.450000X-0.262500X0.450000X0*%
%ADD27O,1.600000X1.600000*%
%ADD28R,1.700000X1.700000*%
%ADD29O,1.700000X1.700000*%
%ADD30RoundRect,0.150000X-0.150000X0.725000X-0.150000X-0.725000X0.150000X-0.725000X0.150000X0.725000X0*%
%ADD31RoundRect,0.250000X0.250000X0.475000X-0.250000X0.475000X-0.250000X-0.475000X0.250000X-0.475000X0*%
G04 APERTURE END LIST*
D10*
%TO.C,C7*%
X121285000Y-150175000D03*
X121285000Y-148275000D03*
%TD*%
D11*
%TO.C,D15*%
X116225000Y-85090000D03*
X118725000Y-85090000D03*
%TD*%
%TO.C,D14*%
X116225000Y-82550000D03*
X118725000Y-82550000D03*
%TD*%
%TO.C,D13*%
X116225000Y-95250000D03*
X118725000Y-95250000D03*
%TD*%
%TO.C,D12*%
X116225000Y-92710000D03*
X118725000Y-92710000D03*
%TD*%
%TO.C,D10*%
X116225000Y-97790000D03*
X118725000Y-97790000D03*
%TD*%
%TO.C,D9*%
X116225000Y-105410000D03*
X118725000Y-105410000D03*
%TD*%
%TO.C,D8*%
X116225000Y-102870000D03*
X118725000Y-102870000D03*
%TD*%
%TO.C,D7*%
X116225000Y-90170000D03*
X118725000Y-90170000D03*
%TD*%
%TO.C,D6*%
X116225000Y-87630000D03*
X118725000Y-87630000D03*
%TD*%
%TO.C,D11*%
X116225000Y-100330000D03*
X118725000Y-100330000D03*
%TD*%
D12*
%TO.C,Parameter1*%
X111135000Y-76795000D03*
D13*
X111135000Y-74295000D03*
X111135000Y-71795000D03*
D14*
X103635000Y-69495000D03*
X103635000Y-79095000D03*
%TD*%
D15*
%TO.C,SW1*%
X100965000Y-111505000D03*
X100965000Y-116205000D03*
X100965000Y-120905000D03*
%TD*%
D16*
%TO.C,D5*%
X104140000Y-97790000D03*
D17*
X104140000Y-107950000D03*
%TD*%
D18*
%TO.C,J3*%
X100965000Y-124965000D03*
X100965000Y-128065000D03*
X100965000Y-136365000D03*
%TD*%
D16*
%TO.C,D4*%
X104140000Y-83820000D03*
D17*
X104140000Y-93980000D03*
%TD*%
D12*
%TO.C,D3*%
X109855000Y-120650000D03*
D13*
X112395000Y-120650000D03*
%TD*%
D12*
%TO.C,Frequency1*%
X108625000Y-57795000D03*
D13*
X111125000Y-57795000D03*
X113625000Y-57795000D03*
D14*
X106325000Y-50295000D03*
X115925000Y-50295000D03*
%TD*%
D18*
%TO.C,J4*%
X111125000Y-124965000D03*
X111125000Y-128065000D03*
X111125000Y-136365000D03*
%TD*%
D12*
%TO.C,D2*%
X109855000Y-116205000D03*
D13*
X112395000Y-116205000D03*
%TD*%
D12*
%TO.C,Parameter2*%
X111115000Y-63540000D03*
D13*
X111115000Y-66040000D03*
X111115000Y-68540000D03*
D14*
X118615000Y-70840000D03*
X118615000Y-61240000D03*
%TD*%
D12*
%TO.C,D1*%
X109850000Y-111760000D03*
D13*
X112390000Y-111760000D03*
%TD*%
D18*
%TO.C,J5*%
X111125000Y-142110000D03*
X111125000Y-145210000D03*
X111125000Y-153510000D03*
%TD*%
%TO.C,J7*%
X100965000Y-142110000D03*
X100965000Y-145210000D03*
X100965000Y-153510000D03*
%TD*%
%TO.C,J2*%
X121285000Y-142110000D03*
X121285000Y-145210000D03*
X121285000Y-153510000D03*
%TD*%
%TO.C,J6*%
X121285000Y-124965000D03*
X121285000Y-128065000D03*
X121285000Y-136365000D03*
%TD*%
D19*
%TO.C,R11*%
X115490000Y-66040000D03*
X113665000Y-66040000D03*
%TD*%
D20*
%TO.C,R13*%
X110490000Y-107592500D03*
X110490000Y-105767500D03*
%TD*%
D21*
%TO.C,C10*%
X109855000Y-95250000D03*
X111755000Y-95250000D03*
%TD*%
%TO.C,C8*%
X109855000Y-102870000D03*
X111755000Y-102870000D03*
%TD*%
D22*
%TO.C,C1*%
X100900113Y-81915000D03*
D23*
X98400113Y-81915000D03*
%TD*%
D24*
%TO.C,R1*%
X120015000Y-114022500D03*
X120015000Y-115847500D03*
%TD*%
%TO.C,R21*%
X107315000Y-131167500D03*
X107315000Y-132992500D03*
%TD*%
D21*
%TO.C,C14*%
X109855000Y-90170000D03*
X111755000Y-90170000D03*
%TD*%
D25*
%TO.C,RV1*%
X117465000Y-120650000D03*
X120005000Y-120650000D03*
X122545000Y-120650000D03*
%TD*%
D21*
%TO.C,C9*%
X109855000Y-100330000D03*
X111755000Y-100330000D03*
%TD*%
D19*
%TO.C,R9*%
X119657500Y-66040000D03*
X117832500Y-66040000D03*
%TD*%
D21*
%TO.C,C12*%
X109855000Y-97790000D03*
X111755000Y-97790000D03*
%TD*%
D26*
%TO.C,R4*%
X110212500Y-130810000D03*
X112037500Y-130810000D03*
%TD*%
D24*
%TO.C,R14*%
X118110000Y-78185000D03*
X118110000Y-80010000D03*
%TD*%
D22*
%TO.C,A1*%
X122545000Y-74930000D03*
D27*
X122545000Y-77470000D03*
X122545000Y-80010000D03*
X122545000Y-82550000D03*
X122545000Y-85090000D03*
X122545000Y-87630000D03*
X122545000Y-90170000D03*
X122545000Y-92710000D03*
X122545000Y-95250000D03*
X122545000Y-97790000D03*
X122545000Y-100330000D03*
X122545000Y-102870000D03*
X122545000Y-105410000D03*
X122545000Y-107950000D03*
X122545000Y-110490000D03*
X107305000Y-110490000D03*
X107305000Y-107950000D03*
X107305000Y-105410000D03*
X107305000Y-102870000D03*
X107305000Y-100330000D03*
X107305000Y-97790000D03*
X107305000Y-95250000D03*
X107305000Y-92710000D03*
X107305000Y-90170000D03*
X107305000Y-87630000D03*
X107305000Y-85090000D03*
X107305000Y-82550000D03*
X107305000Y-80010000D03*
X107305000Y-77470000D03*
X107305000Y-74930000D03*
%TD*%
D24*
%TO.C,R12*%
X113030000Y-79732500D03*
X113030000Y-81557500D03*
%TD*%
%TO.C,R17*%
X124460000Y-125452500D03*
X124460000Y-127277500D03*
%TD*%
%TO.C,R2*%
X123190000Y-114022500D03*
X123190000Y-115847500D03*
%TD*%
D20*
%TO.C,R19*%
X124460000Y-136167500D03*
X124460000Y-134342500D03*
%TD*%
D24*
%TO.C,R16*%
X110490000Y-79732500D03*
X110490000Y-81557500D03*
%TD*%
D21*
%TO.C,C13*%
X109855000Y-92710000D03*
X111755000Y-92710000D03*
%TD*%
D28*
%TO.C,J1*%
X101082500Y-88900000D03*
D29*
X98542500Y-88900000D03*
X101082500Y-91440000D03*
X98542500Y-91440000D03*
X101082500Y-93980000D03*
X98542500Y-93980000D03*
X101082500Y-96520000D03*
X98542500Y-96520000D03*
X101082500Y-99060000D03*
X98542500Y-99060000D03*
%TD*%
D10*
%TO.C,C3*%
X115570000Y-124780000D03*
X115570000Y-126680000D03*
%TD*%
D24*
%TO.C,R22*%
X111125000Y-148312500D03*
X111125000Y-150137500D03*
%TD*%
D21*
%TO.C,C15*%
X109855000Y-85090000D03*
X111755000Y-85090000D03*
%TD*%
D24*
%TO.C,R20*%
X100965000Y-131167500D03*
X100965000Y-132992500D03*
%TD*%
D30*
%TO.C,U1*%
X114300000Y-129505000D03*
X115570000Y-129505000D03*
X116840000Y-129505000D03*
X118110000Y-129505000D03*
X118110000Y-134655000D03*
X116840000Y-134655000D03*
X115570000Y-134655000D03*
X114300000Y-134655000D03*
%TD*%
D26*
%TO.C,R6*%
X115292500Y-113675000D03*
X117117500Y-113675000D03*
%TD*%
%TO.C,R7*%
X115292500Y-116215000D03*
X117117500Y-116215000D03*
%TD*%
D31*
%TO.C,C6*%
X112075000Y-133350000D03*
X110175000Y-133350000D03*
%TD*%
D24*
%TO.C,R8*%
X116840000Y-145772500D03*
X116840000Y-147597500D03*
%TD*%
D26*
%TO.C,R5*%
X115292500Y-111135000D03*
X117117500Y-111135000D03*
%TD*%
D21*
%TO.C,C5*%
X120335000Y-133350000D03*
X122235000Y-133350000D03*
%TD*%
D31*
%TO.C,C4*%
X122235000Y-130810000D03*
X120335000Y-130810000D03*
%TD*%
D22*
%TO.C,C2*%
X98489888Y-106045000D03*
D23*
X100989888Y-106045000D03*
%TD*%
D21*
%TO.C,C11*%
X109855000Y-87630000D03*
X111755000Y-87630000D03*
%TD*%
D24*
%TO.C,R15*%
X115570000Y-78185000D03*
X115570000Y-80010000D03*
%TD*%
D20*
%TO.C,R18*%
X124460000Y-131722500D03*
X124460000Y-129897500D03*
%TD*%
D24*
%TO.C,R3*%
X118110000Y-124817500D03*
X118110000Y-126642500D03*
%TD*%
%TO.C,R23*%
X100965000Y-148312500D03*
X100965000Y-150137500D03*
%TD*%
D26*
%TO.C,R10*%
X106402500Y-72390000D03*
X108227500Y-72390000D03*
%TD*%
M02*
