%TF.GenerationSoftware,KiCad,Pcbnew,(5.99.0-10138-g1fe0c6d870)*%
%TF.CreationDate,2021-07-23T13:07:48+01:00*%
%TF.ProjectId,Hagiwo DCO,48616769-776f-4204-9443-4f2e6b696361,rev?*%
%TF.SameCoordinates,Original*%
%TF.FileFunction,Soldermask,Top*%
%TF.FilePolarity,Negative*%
%FSLAX46Y46*%
G04 Gerber Fmt 4.6, Leading zero omitted, Abs format (unit mm)*
G04 Created by KiCad (PCBNEW (5.99.0-10138-g1fe0c6d870)) date 2021-07-23 13:07:48*
%MOMM*%
%LPD*%
G01*
G04 APERTURE LIST*
%ADD10R,1.800000X1.800000*%
%ADD11C,1.800000*%
%ADD12C,3.240000*%
%ADD13C,3.230000*%
%ADD14R,2.200000X2.200000*%
%ADD15O,2.200000X2.200000*%
%ADD16O,3.000000X2.000000*%
%ADD17R,1.600000X1.600000*%
%ADD18C,1.600000*%
%ADD19C,1.440000*%
%ADD20O,1.600000X1.600000*%
%ADD21R,1.700000X1.700000*%
%ADD22O,1.700000X1.700000*%
G04 APERTURE END LIST*
D10*
%TO.C,Parameter1*%
X111135000Y-76795000D03*
D11*
X111135000Y-74295000D03*
X111135000Y-71795000D03*
D12*
X103635000Y-69495000D03*
X103635000Y-79095000D03*
%TD*%
D13*
%TO.C,SW1*%
X100965000Y-111505000D03*
X100965000Y-116205000D03*
X100965000Y-120905000D03*
%TD*%
D14*
%TO.C,D5*%
X104140000Y-97790000D03*
D15*
X104140000Y-107950000D03*
%TD*%
D16*
%TO.C,J3*%
X100965000Y-124965000D03*
X100965000Y-128065000D03*
X100965000Y-136365000D03*
%TD*%
D14*
%TO.C,D4*%
X104140000Y-83820000D03*
D15*
X104140000Y-93980000D03*
%TD*%
D10*
%TO.C,D3*%
X109855000Y-120650000D03*
D11*
X112395000Y-120650000D03*
%TD*%
D10*
%TO.C,Frequency1*%
X108625000Y-57795000D03*
D11*
X111125000Y-57795000D03*
X113625000Y-57795000D03*
D12*
X106325000Y-50295000D03*
X115925000Y-50295000D03*
%TD*%
D16*
%TO.C,J4*%
X111125000Y-124965000D03*
X111125000Y-128065000D03*
X111125000Y-136365000D03*
%TD*%
D10*
%TO.C,D2*%
X109855000Y-116205000D03*
D11*
X112395000Y-116205000D03*
%TD*%
D10*
%TO.C,Parameter2*%
X111115000Y-63540000D03*
D11*
X111115000Y-66040000D03*
X111115000Y-68540000D03*
D12*
X118615000Y-70840000D03*
X118615000Y-61240000D03*
%TD*%
D10*
%TO.C,D1*%
X109850000Y-111760000D03*
D11*
X112390000Y-111760000D03*
%TD*%
D16*
%TO.C,J5*%
X111125000Y-142110000D03*
X111125000Y-145210000D03*
X111125000Y-153510000D03*
%TD*%
%TO.C,J7*%
X100965000Y-142110000D03*
X100965000Y-145210000D03*
X100965000Y-153510000D03*
%TD*%
%TO.C,J2*%
X121285000Y-142110000D03*
X121285000Y-145210000D03*
X121285000Y-153510000D03*
%TD*%
%TO.C,J6*%
X121285000Y-124965000D03*
X121285000Y-128065000D03*
X121285000Y-136365000D03*
%TD*%
D17*
%TO.C,C1*%
X100900113Y-81915000D03*
D18*
X98400113Y-81915000D03*
%TD*%
D19*
%TO.C,RV1*%
X117465000Y-120650000D03*
X120005000Y-120650000D03*
X122545000Y-120650000D03*
%TD*%
D17*
%TO.C,A1*%
X122545000Y-74930000D03*
D20*
X122545000Y-77470000D03*
X122545000Y-80010000D03*
X122545000Y-82550000D03*
X122545000Y-85090000D03*
X122545000Y-87630000D03*
X122545000Y-90170000D03*
X122545000Y-92710000D03*
X122545000Y-95250000D03*
X122545000Y-97790000D03*
X122545000Y-100330000D03*
X122545000Y-102870000D03*
X122545000Y-105410000D03*
X122545000Y-107950000D03*
X122545000Y-110490000D03*
X107305000Y-110490000D03*
X107305000Y-107950000D03*
X107305000Y-105410000D03*
X107305000Y-102870000D03*
X107305000Y-100330000D03*
X107305000Y-97790000D03*
X107305000Y-95250000D03*
X107305000Y-92710000D03*
X107305000Y-90170000D03*
X107305000Y-87630000D03*
X107305000Y-85090000D03*
X107305000Y-82550000D03*
X107305000Y-80010000D03*
X107305000Y-77470000D03*
X107305000Y-74930000D03*
%TD*%
D21*
%TO.C,J1*%
X101082500Y-88900000D03*
D22*
X98542500Y-88900000D03*
X101082500Y-91440000D03*
X98542500Y-91440000D03*
X101082500Y-93980000D03*
X98542500Y-93980000D03*
X101082500Y-96520000D03*
X98542500Y-96520000D03*
X101082500Y-99060000D03*
X98542500Y-99060000D03*
%TD*%
D17*
%TO.C,C2*%
X98489888Y-106045000D03*
D18*
X100989888Y-106045000D03*
%TD*%
M02*
