%TF.GenerationSoftware,KiCad,Pcbnew,(5.99.0-10138-g1fe0c6d870)*%
%TF.CreationDate,2021-07-23T13:07:48+01:00*%
%TF.ProjectId,Hagiwo DCO,48616769-776f-4204-9443-4f2e6b696361,rev?*%
%TF.SameCoordinates,Original*%
%TF.FileFunction,Paste,Bot*%
%TF.FilePolarity,Positive*%
%FSLAX46Y46*%
G04 Gerber Fmt 4.6, Leading zero omitted, Abs format (unit mm)*
G04 Created by KiCad (PCBNEW (5.99.0-10138-g1fe0c6d870)) date 2021-07-23 13:07:48*
%MOMM*%
%LPD*%
G01*
G04 APERTURE LIST*
G04 Aperture macros list*
%AMRoundRect*
0 Rectangle with rounded corners*
0 $1 Rounding radius*
0 $2 $3 $4 $5 $6 $7 $8 $9 X,Y pos of 4 corners*
0 Add a 4 corners polygon primitive as box body*
4,1,4,$2,$3,$4,$5,$6,$7,$8,$9,$2,$3,0*
0 Add four circle primitives for the rounded corners*
1,1,$1+$1,$2,$3*
1,1,$1+$1,$4,$5*
1,1,$1+$1,$6,$7*
1,1,$1+$1,$8,$9*
0 Add four rect primitives between the rounded corners*
20,1,$1+$1,$2,$3,$4,$5,0*
20,1,$1+$1,$4,$5,$6,$7,0*
20,1,$1+$1,$6,$7,$8,$9,0*
20,1,$1+$1,$8,$9,$2,$3,0*%
G04 Aperture macros list end*
%ADD10RoundRect,0.250000X-0.475000X0.250000X-0.475000X-0.250000X0.475000X-0.250000X0.475000X0.250000X0*%
%ADD11R,1.500000X1.000000*%
%ADD12RoundRect,0.250000X0.262500X0.450000X-0.262500X0.450000X-0.262500X-0.450000X0.262500X-0.450000X0*%
%ADD13RoundRect,0.250000X0.450000X-0.262500X0.450000X0.262500X-0.450000X0.262500X-0.450000X-0.262500X0*%
%ADD14RoundRect,0.250000X-0.250000X-0.475000X0.250000X-0.475000X0.250000X0.475000X-0.250000X0.475000X0*%
%ADD15RoundRect,0.250000X-0.450000X0.262500X-0.450000X-0.262500X0.450000X-0.262500X0.450000X0.262500X0*%
%ADD16RoundRect,0.250000X-0.262500X-0.450000X0.262500X-0.450000X0.262500X0.450000X-0.262500X0.450000X0*%
%ADD17RoundRect,0.150000X-0.150000X0.725000X-0.150000X-0.725000X0.150000X-0.725000X0.150000X0.725000X0*%
%ADD18RoundRect,0.250000X0.250000X0.475000X-0.250000X0.475000X-0.250000X-0.475000X0.250000X-0.475000X0*%
G04 APERTURE END LIST*
D10*
%TO.C,C7*%
X121285000Y-150175000D03*
X121285000Y-148275000D03*
%TD*%
D11*
%TO.C,D15*%
X116225000Y-85090000D03*
X118725000Y-85090000D03*
%TD*%
%TO.C,D14*%
X116225000Y-82550000D03*
X118725000Y-82550000D03*
%TD*%
%TO.C,D13*%
X116225000Y-95250000D03*
X118725000Y-95250000D03*
%TD*%
%TO.C,D12*%
X116225000Y-92710000D03*
X118725000Y-92710000D03*
%TD*%
%TO.C,D10*%
X116225000Y-97790000D03*
X118725000Y-97790000D03*
%TD*%
%TO.C,D9*%
X116225000Y-105410000D03*
X118725000Y-105410000D03*
%TD*%
%TO.C,D8*%
X116225000Y-102870000D03*
X118725000Y-102870000D03*
%TD*%
%TO.C,D7*%
X116225000Y-90170000D03*
X118725000Y-90170000D03*
%TD*%
%TO.C,D6*%
X116225000Y-87630000D03*
X118725000Y-87630000D03*
%TD*%
%TO.C,D11*%
X116225000Y-100330000D03*
X118725000Y-100330000D03*
%TD*%
D12*
%TO.C,R11*%
X115490000Y-66040000D03*
X113665000Y-66040000D03*
%TD*%
D13*
%TO.C,R13*%
X110490000Y-107592500D03*
X110490000Y-105767500D03*
%TD*%
D14*
%TO.C,C10*%
X109855000Y-95250000D03*
X111755000Y-95250000D03*
%TD*%
%TO.C,C8*%
X109855000Y-102870000D03*
X111755000Y-102870000D03*
%TD*%
D15*
%TO.C,R1*%
X120015000Y-114022500D03*
X120015000Y-115847500D03*
%TD*%
%TO.C,R21*%
X107315000Y-131167500D03*
X107315000Y-132992500D03*
%TD*%
D14*
%TO.C,C14*%
X109855000Y-90170000D03*
X111755000Y-90170000D03*
%TD*%
%TO.C,C9*%
X109855000Y-100330000D03*
X111755000Y-100330000D03*
%TD*%
D12*
%TO.C,R9*%
X119657500Y-66040000D03*
X117832500Y-66040000D03*
%TD*%
D14*
%TO.C,C12*%
X109855000Y-97790000D03*
X111755000Y-97790000D03*
%TD*%
D16*
%TO.C,R4*%
X110212500Y-130810000D03*
X112037500Y-130810000D03*
%TD*%
D15*
%TO.C,R14*%
X118110000Y-78185000D03*
X118110000Y-80010000D03*
%TD*%
%TO.C,R12*%
X113030000Y-79732500D03*
X113030000Y-81557500D03*
%TD*%
%TO.C,R17*%
X124460000Y-125452500D03*
X124460000Y-127277500D03*
%TD*%
%TO.C,R2*%
X123190000Y-114022500D03*
X123190000Y-115847500D03*
%TD*%
D13*
%TO.C,R19*%
X124460000Y-136167500D03*
X124460000Y-134342500D03*
%TD*%
D15*
%TO.C,R16*%
X110490000Y-79732500D03*
X110490000Y-81557500D03*
%TD*%
D14*
%TO.C,C13*%
X109855000Y-92710000D03*
X111755000Y-92710000D03*
%TD*%
D10*
%TO.C,C3*%
X115570000Y-124780000D03*
X115570000Y-126680000D03*
%TD*%
D15*
%TO.C,R22*%
X111125000Y-148312500D03*
X111125000Y-150137500D03*
%TD*%
D14*
%TO.C,C15*%
X109855000Y-85090000D03*
X111755000Y-85090000D03*
%TD*%
D15*
%TO.C,R20*%
X100965000Y-131167500D03*
X100965000Y-132992500D03*
%TD*%
D17*
%TO.C,U1*%
X114300000Y-129505000D03*
X115570000Y-129505000D03*
X116840000Y-129505000D03*
X118110000Y-129505000D03*
X118110000Y-134655000D03*
X116840000Y-134655000D03*
X115570000Y-134655000D03*
X114300000Y-134655000D03*
%TD*%
D16*
%TO.C,R6*%
X115292500Y-113675000D03*
X117117500Y-113675000D03*
%TD*%
%TO.C,R7*%
X115292500Y-116215000D03*
X117117500Y-116215000D03*
%TD*%
D18*
%TO.C,C6*%
X112075000Y-133350000D03*
X110175000Y-133350000D03*
%TD*%
D15*
%TO.C,R8*%
X116840000Y-145772500D03*
X116840000Y-147597500D03*
%TD*%
D16*
%TO.C,R5*%
X115292500Y-111135000D03*
X117117500Y-111135000D03*
%TD*%
D14*
%TO.C,C5*%
X120335000Y-133350000D03*
X122235000Y-133350000D03*
%TD*%
D18*
%TO.C,C4*%
X122235000Y-130810000D03*
X120335000Y-130810000D03*
%TD*%
D14*
%TO.C,C11*%
X109855000Y-87630000D03*
X111755000Y-87630000D03*
%TD*%
D15*
%TO.C,R15*%
X115570000Y-78185000D03*
X115570000Y-80010000D03*
%TD*%
D13*
%TO.C,R18*%
X124460000Y-131722500D03*
X124460000Y-129897500D03*
%TD*%
D15*
%TO.C,R3*%
X118110000Y-124817500D03*
X118110000Y-126642500D03*
%TD*%
%TO.C,R23*%
X100965000Y-148312500D03*
X100965000Y-150137500D03*
%TD*%
D16*
%TO.C,R10*%
X106402500Y-72390000D03*
X108227500Y-72390000D03*
%TD*%
M02*
