%TF.GenerationSoftware,KiCad,Pcbnew,(5.99.0-10138-g1fe0c6d870)*%
%TF.CreationDate,2021-07-23T13:07:48+01:00*%
%TF.ProjectId,Hagiwo DCO,48616769-776f-4204-9443-4f2e6b696361,rev?*%
%TF.SameCoordinates,Original*%
%TF.FileFunction,Legend,Bot*%
%TF.FilePolarity,Positive*%
%FSLAX46Y46*%
G04 Gerber Fmt 4.6, Leading zero omitted, Abs format (unit mm)*
G04 Created by KiCad (PCBNEW (5.99.0-10138-g1fe0c6d870)) date 2021-07-23 13:07:48*
%MOMM*%
%LPD*%
G01*
G04 APERTURE LIST*
G04 Aperture macros list*
%AMRoundRect*
0 Rectangle with rounded corners*
0 $1 Rounding radius*
0 $2 $3 $4 $5 $6 $7 $8 $9 X,Y pos of 4 corners*
0 Add a 4 corners polygon primitive as box body*
4,1,4,$2,$3,$4,$5,$6,$7,$8,$9,$2,$3,0*
0 Add four circle primitives for the rounded corners*
1,1,$1+$1,$2,$3*
1,1,$1+$1,$4,$5*
1,1,$1+$1,$6,$7*
1,1,$1+$1,$8,$9*
0 Add four rect primitives between the rounded corners*
20,1,$1+$1,$2,$3,$4,$5,0*
20,1,$1+$1,$4,$5,$6,$7,0*
20,1,$1+$1,$6,$7,$8,$9,0*
20,1,$1+$1,$8,$9,$2,$3,0*%
G04 Aperture macros list end*
%ADD10C,0.150000*%
%ADD11C,0.300000*%
%ADD12C,0.200000*%
%ADD13C,0.120000*%
%ADD14RoundRect,0.250000X-0.475000X0.250000X-0.475000X-0.250000X0.475000X-0.250000X0.475000X0.250000X0*%
%ADD15R,1.500000X1.000000*%
%ADD16R,1.800000X1.800000*%
%ADD17C,1.800000*%
%ADD18C,3.240000*%
%ADD19C,3.230000*%
%ADD20R,2.200000X2.200000*%
%ADD21O,2.200000X2.200000*%
%ADD22O,3.000000X2.000000*%
%ADD23RoundRect,0.250000X0.262500X0.450000X-0.262500X0.450000X-0.262500X-0.450000X0.262500X-0.450000X0*%
%ADD24RoundRect,0.250000X0.450000X-0.262500X0.450000X0.262500X-0.450000X0.262500X-0.450000X-0.262500X0*%
%ADD25RoundRect,0.250000X-0.250000X-0.475000X0.250000X-0.475000X0.250000X0.475000X-0.250000X0.475000X0*%
%ADD26R,1.600000X1.600000*%
%ADD27C,1.600000*%
%ADD28RoundRect,0.250000X-0.450000X0.262500X-0.450000X-0.262500X0.450000X-0.262500X0.450000X0.262500X0*%
%ADD29C,1.440000*%
%ADD30RoundRect,0.250000X-0.262500X-0.450000X0.262500X-0.450000X0.262500X0.450000X-0.262500X0.450000X0*%
%ADD31O,1.600000X1.600000*%
%ADD32R,1.700000X1.700000*%
%ADD33O,1.700000X1.700000*%
%ADD34RoundRect,0.150000X-0.150000X0.725000X-0.150000X-0.725000X0.150000X-0.725000X0.150000X0.725000X0*%
%ADD35RoundRect,0.250000X0.250000X0.475000X-0.250000X0.475000X-0.250000X-0.475000X0.250000X-0.475000X0*%
G04 APERTURE END LIST*
D10*
X102909333Y-47950380D02*
X102909333Y-46950380D01*
X102528380Y-46950380D01*
X102433142Y-46998000D01*
X102385523Y-47045619D01*
X102337904Y-47140857D01*
X102337904Y-47283714D01*
X102385523Y-47378952D01*
X102433142Y-47426571D01*
X102528380Y-47474190D01*
X102909333Y-47474190D01*
X101337904Y-47855142D02*
X101385523Y-47902761D01*
X101528380Y-47950380D01*
X101623619Y-47950380D01*
X101766476Y-47902761D01*
X101861714Y-47807523D01*
X101909333Y-47712285D01*
X101956952Y-47521809D01*
X101956952Y-47378952D01*
X101909333Y-47188476D01*
X101861714Y-47093238D01*
X101766476Y-46998000D01*
X101623619Y-46950380D01*
X101528380Y-46950380D01*
X101385523Y-46998000D01*
X101337904Y-47045619D01*
X100576000Y-47426571D02*
X100433142Y-47474190D01*
X100385523Y-47521809D01*
X100337904Y-47617047D01*
X100337904Y-47759904D01*
X100385523Y-47855142D01*
X100433142Y-47902761D01*
X100528380Y-47950380D01*
X100909333Y-47950380D01*
X100909333Y-46950380D01*
X100576000Y-46950380D01*
X100480761Y-46998000D01*
X100433142Y-47045619D01*
X100385523Y-47140857D01*
X100385523Y-47236095D01*
X100433142Y-47331333D01*
X100480761Y-47378952D01*
X100576000Y-47426571D01*
X100909333Y-47426571D01*
X98623619Y-47950380D02*
X99195047Y-47950380D01*
X98909333Y-47950380D02*
X98909333Y-46950380D01*
X99004571Y-47093238D01*
X99099809Y-47188476D01*
X99195047Y-47236095D01*
X98195047Y-47855142D02*
X98147428Y-47902761D01*
X98195047Y-47950380D01*
X98242666Y-47902761D01*
X98195047Y-47855142D01*
X98195047Y-47950380D01*
X97195047Y-47950380D02*
X97766476Y-47950380D01*
X97480761Y-47950380D02*
X97480761Y-46950380D01*
X97576000Y-47093238D01*
X97671238Y-47188476D01*
X97766476Y-47236095D01*
X120650000Y-104775000D02*
X120015000Y-105410000D01*
X114935000Y-109220000D02*
X113665000Y-110490000D01*
X122555000Y-110490000D02*
X124460000Y-110490000D01*
X113030000Y-90170000D02*
X112395000Y-90170000D01*
X117475000Y-109220000D02*
X118745000Y-110490000D01*
X109474000Y-133350000D02*
X108839000Y-133985000D01*
X113030000Y-103505000D02*
X112395000Y-103505000D01*
X113030000Y-99695000D02*
X112395000Y-99695000D01*
X113665000Y-92710000D02*
X113030000Y-93345000D01*
X124460000Y-74930000D02*
X123190000Y-74930000D01*
X108839000Y-122555000D02*
X113030000Y-122555000D01*
X114808000Y-131191000D02*
G75*
G03*
X114808000Y-131191000I-508000J0D01*
G01*
X120650000Y-89535000D02*
X120650000Y-83185000D01*
X118745000Y-110490000D02*
X118110000Y-116205000D01*
X120650000Y-83185000D02*
X120015000Y-82550000D01*
X110490000Y-82550000D02*
X110490000Y-81915000D01*
X105410000Y-74930000D02*
X106680000Y-74930000D01*
X113030000Y-87630000D02*
X112395000Y-87630000D01*
X113030000Y-93345000D02*
X112395000Y-93345000D01*
X114554000Y-128016000D02*
G75*
G03*
X114554000Y-128016000I-254000J0D01*
G01*
X113665000Y-86995000D02*
X113665000Y-85090000D01*
X113665000Y-76200000D02*
X113030000Y-76835000D01*
X120650000Y-98425000D02*
X120650000Y-104775000D01*
X113665000Y-110490000D02*
X114300000Y-112395000D01*
X108839000Y-130175000D02*
X109474000Y-130810000D01*
X113665000Y-110490000D02*
X114300000Y-116205000D01*
X103505000Y-100330000D02*
X96520000Y-100330000D01*
X96520000Y-100330000D02*
X96520000Y-97790000D01*
X96520000Y-97790000D02*
X103505000Y-97790000D01*
X103505000Y-97790000D02*
X103505000Y-100330000D01*
G36*
X103505000Y-100330000D02*
G01*
X96520000Y-100330000D01*
X96520000Y-97790000D01*
X103505000Y-97790000D01*
X103505000Y-100330000D01*
G37*
X120015000Y-105410000D02*
X119380000Y-105410000D01*
X118110000Y-76835000D02*
X118110000Y-77470000D01*
X120015000Y-82550000D02*
X119380000Y-82550000D01*
X113665000Y-95250000D02*
X112395000Y-95250000D01*
X112395000Y-123190000D02*
X113030000Y-122555000D01*
X115570000Y-76835000D02*
X115570000Y-77470000D01*
X113665000Y-85090000D02*
X113030000Y-84455000D01*
X118745000Y-110490000D02*
X118110000Y-112395000D01*
X117475000Y-76200000D02*
X118110000Y-76835000D01*
X113665000Y-90805000D02*
X113665000Y-92710000D01*
X105410000Y-110490000D02*
X107315000Y-110490000D01*
X107061000Y-134112000D02*
X107061000Y-133604000D01*
X113030000Y-76835000D02*
X113030000Y-78740000D01*
X113030000Y-84455000D02*
X112395000Y-84455000D01*
X113030000Y-122555000D02*
X112395000Y-121920000D01*
X112395000Y-121920000D02*
X112395000Y-123190000D01*
X105354380Y-118953595D02*
X104354380Y-118953595D01*
X105354380Y-119382166D02*
X104830571Y-119382166D01*
X104735333Y-119334547D01*
X104687714Y-119239309D01*
X104687714Y-119096452D01*
X104735333Y-119001214D01*
X104782952Y-118953595D01*
X104687714Y-119715500D02*
X104687714Y-120096452D01*
X104354380Y-119858357D02*
X105211523Y-119858357D01*
X105306761Y-119905976D01*
X105354380Y-120001214D01*
X105354380Y-120096452D01*
X104687714Y-120286928D02*
X104687714Y-120667880D01*
X104354380Y-120429785D02*
X105211523Y-120429785D01*
X105306761Y-120477404D01*
X105354380Y-120572642D01*
X105354380Y-120667880D01*
X104687714Y-121001214D02*
X105687714Y-121001214D01*
X104735333Y-121001214D02*
X104687714Y-121096452D01*
X104687714Y-121286928D01*
X104735333Y-121382166D01*
X104782952Y-121429785D01*
X104878190Y-121477404D01*
X105163904Y-121477404D01*
X105259142Y-121429785D01*
X105306761Y-121382166D01*
X105354380Y-121286928D01*
X105354380Y-121096452D01*
X105306761Y-121001214D01*
X105306761Y-121858357D02*
X105354380Y-121953595D01*
X105354380Y-122144071D01*
X105306761Y-122239309D01*
X105211523Y-122286928D01*
X105163904Y-122286928D01*
X105068666Y-122239309D01*
X105021047Y-122144071D01*
X105021047Y-122001214D01*
X104973428Y-121905976D01*
X104878190Y-121858357D01*
X104830571Y-121858357D01*
X104735333Y-121905976D01*
X104687714Y-122001214D01*
X104687714Y-122144071D01*
X104735333Y-122239309D01*
X105259142Y-122715499D02*
X105306761Y-122763119D01*
X105354380Y-122715499D01*
X105306761Y-122667880D01*
X105259142Y-122715499D01*
X105354380Y-122715499D01*
X104735333Y-122715499D02*
X104782952Y-122763119D01*
X104830571Y-122715499D01*
X104782952Y-122667880D01*
X104735333Y-122715499D01*
X104830571Y-122715499D01*
X104306761Y-123905976D02*
X105592476Y-123048833D01*
X104306761Y-124953595D02*
X105592476Y-124096452D01*
X104687714Y-125191690D02*
X105354380Y-125382166D01*
X104878190Y-125572642D01*
X105354380Y-125763119D01*
X104687714Y-125953595D01*
X104687714Y-126239309D02*
X105354380Y-126429785D01*
X104878190Y-126620261D01*
X105354380Y-126810738D01*
X104687714Y-127001214D01*
X104687714Y-127286928D02*
X105354380Y-127477404D01*
X104878190Y-127667880D01*
X105354380Y-127858357D01*
X104687714Y-128048833D01*
X105259142Y-128429785D02*
X105306761Y-128477404D01*
X105354380Y-128429785D01*
X105306761Y-128382166D01*
X105259142Y-128429785D01*
X105354380Y-128429785D01*
X104687714Y-128763119D02*
X104687714Y-129144071D01*
X104354380Y-128905976D02*
X105211523Y-128905976D01*
X105306761Y-128953595D01*
X105354380Y-129048833D01*
X105354380Y-129144071D01*
X105354380Y-129477404D02*
X104687714Y-129477404D01*
X104354380Y-129477404D02*
X104402000Y-129429785D01*
X104449619Y-129477404D01*
X104402000Y-129525023D01*
X104354380Y-129477404D01*
X104449619Y-129477404D01*
X104687714Y-129953595D02*
X105354380Y-129953595D01*
X104782952Y-129953595D02*
X104735333Y-130001214D01*
X104687714Y-130096452D01*
X104687714Y-130239309D01*
X104735333Y-130334547D01*
X104830571Y-130382166D01*
X105354380Y-130382166D01*
X105354380Y-131286928D02*
X104354380Y-131286928D01*
X105306761Y-131286928D02*
X105354380Y-131191690D01*
X105354380Y-131001214D01*
X105306761Y-130905976D01*
X105259142Y-130858357D01*
X105163904Y-130810738D01*
X104878190Y-130810738D01*
X104782952Y-130858357D01*
X104735333Y-130905976D01*
X104687714Y-131001214D01*
X104687714Y-131191690D01*
X104735333Y-131286928D01*
X105354380Y-131763119D02*
X104687714Y-131763119D01*
X104354380Y-131763119D02*
X104402000Y-131715500D01*
X104449619Y-131763119D01*
X104402000Y-131810738D01*
X104354380Y-131763119D01*
X104449619Y-131763119D01*
X105306761Y-132620261D02*
X105354380Y-132525023D01*
X105354380Y-132334547D01*
X105306761Y-132239309D01*
X105211523Y-132191690D01*
X104830571Y-132191690D01*
X104735333Y-132239309D01*
X104687714Y-132334547D01*
X104687714Y-132525023D01*
X104735333Y-132620261D01*
X104830571Y-132667880D01*
X104925809Y-132667880D01*
X105021047Y-132191690D01*
X105259142Y-133096452D02*
X105306761Y-133144071D01*
X105354380Y-133096452D01*
X105306761Y-133048833D01*
X105259142Y-133096452D01*
X105354380Y-133096452D01*
X105306761Y-134001214D02*
X105354380Y-133905976D01*
X105354380Y-133715500D01*
X105306761Y-133620261D01*
X105259142Y-133572642D01*
X105163904Y-133525023D01*
X104878190Y-133525023D01*
X104782952Y-133572642D01*
X104735333Y-133620261D01*
X104687714Y-133715500D01*
X104687714Y-133905976D01*
X104735333Y-134001214D01*
X105354380Y-134572642D02*
X105306761Y-134477404D01*
X105259142Y-134429785D01*
X105163904Y-134382166D01*
X104878190Y-134382166D01*
X104782952Y-134429785D01*
X104735333Y-134477404D01*
X104687714Y-134572642D01*
X104687714Y-134715500D01*
X104735333Y-134810738D01*
X104782952Y-134858357D01*
X104878190Y-134905976D01*
X105163904Y-134905976D01*
X105259142Y-134858357D01*
X105306761Y-134810738D01*
X105354380Y-134715500D01*
X105354380Y-134572642D01*
X105354380Y-135334547D02*
X104687714Y-135334547D01*
X104782952Y-135334547D02*
X104735333Y-135382166D01*
X104687714Y-135477404D01*
X104687714Y-135620261D01*
X104735333Y-135715500D01*
X104830571Y-135763119D01*
X105354380Y-135763119D01*
X104830571Y-135763119D02*
X104735333Y-135810738D01*
X104687714Y-135905976D01*
X104687714Y-136048833D01*
X104735333Y-136144071D01*
X104830571Y-136191690D01*
X105354380Y-136191690D01*
X104306761Y-137382166D02*
X105592476Y-136525023D01*
X105306761Y-137667880D02*
X105354380Y-137763119D01*
X105354380Y-137953595D01*
X105306761Y-138048833D01*
X105211523Y-138096452D01*
X105163904Y-138096452D01*
X105068666Y-138048833D01*
X105021047Y-137953595D01*
X105021047Y-137810738D01*
X104973428Y-137715500D01*
X104878190Y-137667880D01*
X104830571Y-137667880D01*
X104735333Y-137715500D01*
X104687714Y-137810738D01*
X104687714Y-137953595D01*
X104735333Y-138048833D01*
X104687714Y-138382166D02*
X104687714Y-138763119D01*
X104354380Y-138525023D02*
X105211523Y-138525023D01*
X105306761Y-138572642D01*
X105354380Y-138667880D01*
X105354380Y-138763119D01*
X105354380Y-139239309D02*
X105306761Y-139144071D01*
X105259142Y-139096452D01*
X105163904Y-139048833D01*
X104878190Y-139048833D01*
X104782952Y-139096452D01*
X104735333Y-139144071D01*
X104687714Y-139239309D01*
X104687714Y-139382166D01*
X104735333Y-139477404D01*
X104782952Y-139525023D01*
X104878190Y-139572642D01*
X105163904Y-139572642D01*
X105259142Y-139525023D01*
X105306761Y-139477404D01*
X105354380Y-139382166D01*
X105354380Y-139239309D01*
X105354380Y-140001214D02*
X104687714Y-140001214D01*
X104878190Y-140001214D02*
X104782952Y-140048833D01*
X104735333Y-140096452D01*
X104687714Y-140191690D01*
X104687714Y-140286928D01*
X105306761Y-141001214D02*
X105354380Y-140905976D01*
X105354380Y-140715500D01*
X105306761Y-140620261D01*
X105211523Y-140572642D01*
X104830571Y-140572642D01*
X104735333Y-140620261D01*
X104687714Y-140715500D01*
X104687714Y-140905976D01*
X104735333Y-141001214D01*
X104830571Y-141048833D01*
X104925809Y-141048833D01*
X105021047Y-140572642D01*
X105306761Y-141429785D02*
X105354380Y-141525023D01*
X105354380Y-141715500D01*
X105306761Y-141810738D01*
X105211523Y-141858357D01*
X105163904Y-141858357D01*
X105068666Y-141810738D01*
X105021047Y-141715500D01*
X105021047Y-141572642D01*
X104973428Y-141477404D01*
X104878190Y-141429785D01*
X104830571Y-141429785D01*
X104735333Y-141477404D01*
X104687714Y-141572642D01*
X104687714Y-141715500D01*
X104735333Y-141810738D01*
X104306761Y-143001214D02*
X105592476Y-142144071D01*
X104687714Y-143334547D02*
X105354380Y-143334547D01*
X104782952Y-143334547D02*
X104735333Y-143382166D01*
X104687714Y-143477404D01*
X104687714Y-143620261D01*
X104735333Y-143715500D01*
X104830571Y-143763119D01*
X105354380Y-143763119D01*
X105354380Y-144239309D02*
X104354380Y-144239309D01*
X104735333Y-144239309D02*
X104687714Y-144334547D01*
X104687714Y-144525023D01*
X104735333Y-144620261D01*
X104782952Y-144667880D01*
X104878190Y-144715500D01*
X105163904Y-144715500D01*
X105259142Y-144667880D01*
X105306761Y-144620261D01*
X105354380Y-144525023D01*
X105354380Y-144334547D01*
X105306761Y-144239309D01*
X105354380Y-145144071D02*
X104687714Y-145144071D01*
X104354380Y-145144071D02*
X104402000Y-145096452D01*
X104449619Y-145144071D01*
X104402000Y-145191690D01*
X104354380Y-145144071D01*
X104449619Y-145144071D01*
X105354380Y-145620261D02*
X104687714Y-145620261D01*
X104878190Y-145620261D02*
X104782952Y-145667880D01*
X104735333Y-145715500D01*
X104687714Y-145810738D01*
X104687714Y-145905976D01*
X105306761Y-146667880D02*
X105354380Y-146572642D01*
X105354380Y-146382166D01*
X105306761Y-146286928D01*
X105259142Y-146239309D01*
X105163904Y-146191690D01*
X104878190Y-146191690D01*
X104782952Y-146239309D01*
X104735333Y-146286928D01*
X104687714Y-146382166D01*
X104687714Y-146572642D01*
X104735333Y-146667880D01*
X105354380Y-147096452D02*
X104354380Y-147096452D01*
X105354380Y-147525023D02*
X104830571Y-147525023D01*
X104735333Y-147477404D01*
X104687714Y-147382166D01*
X104687714Y-147239309D01*
X104735333Y-147144071D01*
X104782952Y-147096452D01*
X104306761Y-148715500D02*
X105592476Y-147858357D01*
X97945380Y-52278595D02*
X96945380Y-52278595D01*
X97659666Y-52611928D01*
X96945380Y-52945261D01*
X97945380Y-52945261D01*
X97945380Y-53564309D02*
X97897761Y-53469071D01*
X97850142Y-53421452D01*
X97754904Y-53373833D01*
X97469190Y-53373833D01*
X97373952Y-53421452D01*
X97326333Y-53469071D01*
X97278714Y-53564309D01*
X97278714Y-53707166D01*
X97326333Y-53802404D01*
X97373952Y-53850023D01*
X97469190Y-53897642D01*
X97754904Y-53897642D01*
X97850142Y-53850023D01*
X97897761Y-53802404D01*
X97945380Y-53707166D01*
X97945380Y-53564309D01*
X97945380Y-54754785D02*
X96945380Y-54754785D01*
X97897761Y-54754785D02*
X97945380Y-54659547D01*
X97945380Y-54469071D01*
X97897761Y-54373833D01*
X97850142Y-54326214D01*
X97754904Y-54278595D01*
X97469190Y-54278595D01*
X97373952Y-54326214D01*
X97326333Y-54373833D01*
X97278714Y-54469071D01*
X97278714Y-54659547D01*
X97326333Y-54754785D01*
X97945380Y-55659547D02*
X96945380Y-55659547D01*
X97897761Y-55659547D02*
X97945380Y-55564309D01*
X97945380Y-55373833D01*
X97897761Y-55278595D01*
X97850142Y-55230976D01*
X97754904Y-55183357D01*
X97469190Y-55183357D01*
X97373952Y-55230976D01*
X97326333Y-55278595D01*
X97278714Y-55373833D01*
X97278714Y-55564309D01*
X97326333Y-55659547D01*
X97897761Y-56516690D02*
X97945380Y-56421452D01*
X97945380Y-56230976D01*
X97897761Y-56135738D01*
X97802523Y-56088119D01*
X97421571Y-56088119D01*
X97326333Y-56135738D01*
X97278714Y-56230976D01*
X97278714Y-56421452D01*
X97326333Y-56516690D01*
X97421571Y-56564309D01*
X97516809Y-56564309D01*
X97612047Y-56088119D01*
X97945380Y-57421452D02*
X96945380Y-57421452D01*
X97897761Y-57421452D02*
X97945380Y-57326214D01*
X97945380Y-57135738D01*
X97897761Y-57040500D01*
X97850142Y-56992880D01*
X97754904Y-56945261D01*
X97469190Y-56945261D01*
X97373952Y-56992880D01*
X97326333Y-57040500D01*
X97278714Y-57135738D01*
X97278714Y-57326214D01*
X97326333Y-57421452D01*
X97945380Y-58659547D02*
X96945380Y-58659547D01*
X97326333Y-58659547D02*
X97278714Y-58754785D01*
X97278714Y-58945261D01*
X97326333Y-59040500D01*
X97373952Y-59088119D01*
X97469190Y-59135738D01*
X97754904Y-59135738D01*
X97850142Y-59088119D01*
X97897761Y-59040500D01*
X97945380Y-58945261D01*
X97945380Y-58754785D01*
X97897761Y-58659547D01*
X97278714Y-59469071D02*
X97945380Y-59707166D01*
X97278714Y-59945261D02*
X97945380Y-59707166D01*
X98183476Y-59611928D01*
X98231095Y-59564309D01*
X98278714Y-59469071D01*
X97469190Y-61707166D02*
X97421571Y-61659547D01*
X97373952Y-61564309D01*
X97373952Y-61469071D01*
X97421571Y-61373833D01*
X97469190Y-61326214D01*
X97564428Y-61278595D01*
X97659666Y-61278595D01*
X97754904Y-61326214D01*
X97802523Y-61373833D01*
X97850142Y-61469071D01*
X97850142Y-61564309D01*
X97802523Y-61659547D01*
X97754904Y-61707166D01*
X97373952Y-61707166D02*
X97754904Y-61707166D01*
X97802523Y-61754785D01*
X97802523Y-61802404D01*
X97754904Y-61897642D01*
X97659666Y-61945261D01*
X97421571Y-61945261D01*
X97278714Y-61850023D01*
X97183476Y-61707166D01*
X97135857Y-61516690D01*
X97183476Y-61326214D01*
X97278714Y-61183357D01*
X97421571Y-61088119D01*
X97612047Y-61040500D01*
X97802523Y-61088119D01*
X97945380Y-61183357D01*
X98040619Y-61326214D01*
X98088238Y-61516690D01*
X98040619Y-61707166D01*
X97945380Y-61850023D01*
X97278714Y-62278595D02*
X97945380Y-62516690D01*
X97278714Y-62754785D01*
X97945380Y-63278595D02*
X97897761Y-63183357D01*
X97850142Y-63135738D01*
X97754904Y-63088119D01*
X97469190Y-63088119D01*
X97373952Y-63135738D01*
X97326333Y-63183357D01*
X97278714Y-63278595D01*
X97278714Y-63421452D01*
X97326333Y-63516690D01*
X97373952Y-63564309D01*
X97469190Y-63611928D01*
X97754904Y-63611928D01*
X97850142Y-63564309D01*
X97897761Y-63516690D01*
X97945380Y-63421452D01*
X97945380Y-63278595D01*
X97945380Y-64183357D02*
X97897761Y-64088119D01*
X97802523Y-64040500D01*
X96945380Y-64040500D01*
X97945380Y-64707166D02*
X97897761Y-64611928D01*
X97802523Y-64564309D01*
X96945380Y-64564309D01*
X97850142Y-65088119D02*
X97897761Y-65135738D01*
X97945380Y-65088119D01*
X97897761Y-65040500D01*
X97850142Y-65088119D01*
X97945380Y-65088119D01*
X97945380Y-65992880D02*
X97421571Y-65992880D01*
X97326333Y-65945261D01*
X97278714Y-65850023D01*
X97278714Y-65659547D01*
X97326333Y-65564309D01*
X97897761Y-65992880D02*
X97945380Y-65897642D01*
X97945380Y-65659547D01*
X97897761Y-65564309D01*
X97802523Y-65516690D01*
X97707285Y-65516690D01*
X97612047Y-65564309D01*
X97564428Y-65659547D01*
X97564428Y-65897642D01*
X97516809Y-65992880D01*
X97278714Y-66897642D02*
X97945380Y-66897642D01*
X97278714Y-66469071D02*
X97802523Y-66469071D01*
X97897761Y-66516690D01*
X97945380Y-66611928D01*
X97945380Y-66754785D01*
X97897761Y-66850023D01*
X97850142Y-66897642D01*
X97278714Y-67230976D02*
X97278714Y-67611928D01*
X96945380Y-67373833D02*
X97802523Y-67373833D01*
X97897761Y-67421452D01*
X97945380Y-67516690D01*
X97945380Y-67611928D01*
X97945380Y-68088119D02*
X97897761Y-67992880D01*
X97850142Y-67945261D01*
X97754904Y-67897642D01*
X97469190Y-67897642D01*
X97373952Y-67945261D01*
X97326333Y-67992880D01*
X97278714Y-68088119D01*
X97278714Y-68230976D01*
X97326333Y-68326214D01*
X97373952Y-68373833D01*
X97469190Y-68421452D01*
X97754904Y-68421452D01*
X97850142Y-68373833D01*
X97897761Y-68326214D01*
X97945380Y-68230976D01*
X97945380Y-68088119D01*
X97945380Y-68850023D02*
X97278714Y-68850023D01*
X97373952Y-68850023D02*
X97326333Y-68897642D01*
X97278714Y-68992880D01*
X97278714Y-69135738D01*
X97326333Y-69230976D01*
X97421571Y-69278595D01*
X97945380Y-69278595D01*
X97421571Y-69278595D02*
X97326333Y-69326214D01*
X97278714Y-69421452D01*
X97278714Y-69564309D01*
X97326333Y-69659547D01*
X97421571Y-69707166D01*
X97945380Y-69707166D01*
X97945380Y-70611928D02*
X97421571Y-70611928D01*
X97326333Y-70564309D01*
X97278714Y-70469071D01*
X97278714Y-70278595D01*
X97326333Y-70183357D01*
X97897761Y-70611928D02*
X97945380Y-70516690D01*
X97945380Y-70278595D01*
X97897761Y-70183357D01*
X97802523Y-70135738D01*
X97707285Y-70135738D01*
X97612047Y-70183357D01*
X97564428Y-70278595D01*
X97564428Y-70516690D01*
X97516809Y-70611928D01*
X97278714Y-70945261D02*
X97278714Y-71326214D01*
X96945380Y-71088119D02*
X97802523Y-71088119D01*
X97897761Y-71135738D01*
X97945380Y-71230976D01*
X97945380Y-71326214D01*
X99269666Y-52230976D02*
X99269666Y-52707166D01*
X99555380Y-52135738D02*
X98555380Y-52469071D01*
X99555380Y-52802404D01*
X99555380Y-53135738D02*
X98555380Y-53135738D01*
X99555380Y-53707166D02*
X98983952Y-53278595D01*
X98555380Y-53707166D02*
X99126809Y-53135738D01*
X99269666Y-54088119D02*
X99269666Y-54564309D01*
X99555380Y-53992880D02*
X98555380Y-54326214D01*
X99555380Y-54659547D01*
X99555380Y-55754785D02*
X98555380Y-55754785D01*
X99555380Y-56183357D02*
X99031571Y-56183357D01*
X98936333Y-56135738D01*
X98888714Y-56040500D01*
X98888714Y-55897642D01*
X98936333Y-55802404D01*
X98983952Y-55754785D01*
X98888714Y-56516690D02*
X98888714Y-56897642D01*
X98555380Y-56659547D02*
X99412523Y-56659547D01*
X99507761Y-56707166D01*
X99555380Y-56802404D01*
X99555380Y-56897642D01*
X98888714Y-57088119D02*
X98888714Y-57469071D01*
X98555380Y-57230976D02*
X99412523Y-57230976D01*
X99507761Y-57278595D01*
X99555380Y-57373833D01*
X99555380Y-57469071D01*
X98888714Y-57802404D02*
X99888714Y-57802404D01*
X98936333Y-57802404D02*
X98888714Y-57897642D01*
X98888714Y-58088119D01*
X98936333Y-58183357D01*
X98983952Y-58230976D01*
X99079190Y-58278595D01*
X99364904Y-58278595D01*
X99460142Y-58230976D01*
X99507761Y-58183357D01*
X99555380Y-58088119D01*
X99555380Y-57897642D01*
X99507761Y-57802404D01*
X99507761Y-58659547D02*
X99555380Y-58754785D01*
X99555380Y-58945261D01*
X99507761Y-59040500D01*
X99412523Y-59088119D01*
X99364904Y-59088119D01*
X99269666Y-59040500D01*
X99222047Y-58945261D01*
X99222047Y-58802404D01*
X99174428Y-58707166D01*
X99079190Y-58659547D01*
X99031571Y-58659547D01*
X98936333Y-58707166D01*
X98888714Y-58802404D01*
X98888714Y-58945261D01*
X98936333Y-59040500D01*
X99460142Y-59516690D02*
X99507761Y-59564309D01*
X99555380Y-59516690D01*
X99507761Y-59469071D01*
X99460142Y-59516690D01*
X99555380Y-59516690D01*
X98936333Y-59516690D02*
X98983952Y-59564309D01*
X99031571Y-59516690D01*
X98983952Y-59469071D01*
X98936333Y-59516690D01*
X99031571Y-59516690D01*
X98507761Y-60707166D02*
X99793476Y-59850023D01*
X98507761Y-61754785D02*
X99793476Y-60897642D01*
X98888714Y-62516690D02*
X99698238Y-62516690D01*
X99793476Y-62469071D01*
X99841095Y-62421452D01*
X99888714Y-62326214D01*
X99888714Y-62183357D01*
X99841095Y-62088119D01*
X99507761Y-62516690D02*
X99555380Y-62421452D01*
X99555380Y-62230976D01*
X99507761Y-62135738D01*
X99460142Y-62088119D01*
X99364904Y-62040500D01*
X99079190Y-62040500D01*
X98983952Y-62088119D01*
X98936333Y-62135738D01*
X98888714Y-62230976D01*
X98888714Y-62421452D01*
X98936333Y-62516690D01*
X99555380Y-62992880D02*
X98888714Y-62992880D01*
X98555380Y-62992880D02*
X98603000Y-62945261D01*
X98650619Y-62992880D01*
X98603000Y-63040500D01*
X98555380Y-62992880D01*
X98650619Y-62992880D01*
X98888714Y-63326214D02*
X98888714Y-63707166D01*
X98555380Y-63469071D02*
X99412523Y-63469071D01*
X99507761Y-63516690D01*
X99555380Y-63611928D01*
X99555380Y-63707166D01*
X99555380Y-64040500D02*
X98555380Y-64040500D01*
X99555380Y-64469071D02*
X99031571Y-64469071D01*
X98936333Y-64421452D01*
X98888714Y-64326214D01*
X98888714Y-64183357D01*
X98936333Y-64088119D01*
X98983952Y-64040500D01*
X98888714Y-65373833D02*
X99555380Y-65373833D01*
X98888714Y-64945261D02*
X99412523Y-64945261D01*
X99507761Y-64992880D01*
X99555380Y-65088119D01*
X99555380Y-65230976D01*
X99507761Y-65326214D01*
X99460142Y-65373833D01*
X99555380Y-65850023D02*
X98555380Y-65850023D01*
X98936333Y-65850023D02*
X98888714Y-65945261D01*
X98888714Y-66135738D01*
X98936333Y-66230976D01*
X98983952Y-66278595D01*
X99079190Y-66326214D01*
X99364904Y-66326214D01*
X99460142Y-66278595D01*
X99507761Y-66230976D01*
X99555380Y-66135738D01*
X99555380Y-65945261D01*
X99507761Y-65850023D01*
X99460142Y-66754785D02*
X99507761Y-66802404D01*
X99555380Y-66754785D01*
X99507761Y-66707166D01*
X99460142Y-66754785D01*
X99555380Y-66754785D01*
X99507761Y-67659547D02*
X99555380Y-67564309D01*
X99555380Y-67373833D01*
X99507761Y-67278595D01*
X99460142Y-67230976D01*
X99364904Y-67183357D01*
X99079190Y-67183357D01*
X98983952Y-67230976D01*
X98936333Y-67278595D01*
X98888714Y-67373833D01*
X98888714Y-67564309D01*
X98936333Y-67659547D01*
X99555380Y-68230976D02*
X99507761Y-68135738D01*
X99460142Y-68088119D01*
X99364904Y-68040499D01*
X99079190Y-68040499D01*
X98983952Y-68088119D01*
X98936333Y-68135738D01*
X98888714Y-68230976D01*
X98888714Y-68373833D01*
X98936333Y-68469071D01*
X98983952Y-68516690D01*
X99079190Y-68564309D01*
X99364904Y-68564309D01*
X99460142Y-68516690D01*
X99507761Y-68469071D01*
X99555380Y-68373833D01*
X99555380Y-68230976D01*
X99555380Y-68992880D02*
X98888714Y-68992880D01*
X98983952Y-68992880D02*
X98936333Y-69040499D01*
X98888714Y-69135738D01*
X98888714Y-69278595D01*
X98936333Y-69373833D01*
X99031571Y-69421452D01*
X99555380Y-69421452D01*
X99031571Y-69421452D02*
X98936333Y-69469071D01*
X98888714Y-69564309D01*
X98888714Y-69707166D01*
X98936333Y-69802404D01*
X99031571Y-69850023D01*
X99555380Y-69850023D01*
X98507761Y-71040499D02*
X99793476Y-70183357D01*
X99555380Y-71516690D02*
X99507761Y-71421452D01*
X99412523Y-71373833D01*
X98555380Y-71373833D01*
X98888714Y-72326214D02*
X99555380Y-72326214D01*
X98888714Y-71897642D02*
X99412523Y-71897642D01*
X99507761Y-71945261D01*
X99555380Y-72040499D01*
X99555380Y-72183357D01*
X99507761Y-72278595D01*
X99460142Y-72326214D01*
X99555380Y-72802404D02*
X98888714Y-72802404D01*
X98555380Y-72802404D02*
X98603000Y-72754785D01*
X98650619Y-72802404D01*
X98603000Y-72850023D01*
X98555380Y-72802404D01*
X98650619Y-72802404D01*
X99507761Y-73230976D02*
X99555380Y-73326214D01*
X99555380Y-73516690D01*
X99507761Y-73611928D01*
X99412523Y-73659547D01*
X99364904Y-73659547D01*
X99269666Y-73611928D01*
X99222047Y-73516690D01*
X99222047Y-73373833D01*
X99174428Y-73278595D01*
X99079190Y-73230976D01*
X99031571Y-73230976D01*
X98936333Y-73278595D01*
X98888714Y-73373833D01*
X98888714Y-73516690D01*
X98936333Y-73611928D01*
X99555380Y-74230976D02*
X99507761Y-74135738D01*
X99412523Y-74088119D01*
X98555380Y-74088119D01*
X98888714Y-75040499D02*
X99555380Y-75040499D01*
X98888714Y-74611928D02*
X99412523Y-74611928D01*
X99507761Y-74659547D01*
X99555380Y-74754785D01*
X99555380Y-74897642D01*
X99507761Y-74992880D01*
X99460142Y-75040499D01*
X98888714Y-75373833D02*
X98888714Y-75754785D01*
X98555380Y-75516690D02*
X99412523Y-75516690D01*
X99507761Y-75564309D01*
X99555380Y-75659547D01*
X99555380Y-75754785D01*
X98888714Y-75992880D02*
X98888714Y-76516690D01*
X99555380Y-75992880D01*
X99555380Y-76516690D01*
D11*
X118886904Y-45894761D02*
X117744047Y-45894761D01*
X118315476Y-47894761D02*
X118315476Y-45894761D01*
X117077380Y-47894761D02*
X117077380Y-46561428D01*
X117077380Y-46942380D02*
X116982142Y-46751904D01*
X116886904Y-46656666D01*
X116696428Y-46561428D01*
X116505952Y-46561428D01*
X115839285Y-47894761D02*
X115839285Y-46561428D01*
X115839285Y-45894761D02*
X115934523Y-45990000D01*
X115839285Y-46085238D01*
X115744047Y-45990000D01*
X115839285Y-45894761D01*
X115839285Y-46085238D01*
X114886904Y-46561428D02*
X114886904Y-48561428D01*
X114886904Y-46656666D02*
X114696428Y-46561428D01*
X114315476Y-46561428D01*
X114125000Y-46656666D01*
X114029761Y-46751904D01*
X113934523Y-46942380D01*
X113934523Y-47513809D01*
X114029761Y-47704285D01*
X114125000Y-47799523D01*
X114315476Y-47894761D01*
X114696428Y-47894761D01*
X114886904Y-47799523D01*
X112791666Y-47894761D02*
X112982142Y-47799523D01*
X113077380Y-47609047D01*
X113077380Y-45894761D01*
X111267857Y-47799523D02*
X111458333Y-47894761D01*
X111839285Y-47894761D01*
X112029761Y-47799523D01*
X112125000Y-47609047D01*
X112125000Y-46847142D01*
X112029761Y-46656666D01*
X111839285Y-46561428D01*
X111458333Y-46561428D01*
X111267857Y-46656666D01*
X111172619Y-46847142D01*
X111172619Y-47037619D01*
X112125000Y-47228095D01*
X108791666Y-47894761D02*
X108791666Y-45894761D01*
X108315476Y-45894761D01*
X108029761Y-45990000D01*
X107839285Y-46180476D01*
X107744047Y-46370952D01*
X107648809Y-46751904D01*
X107648809Y-47037619D01*
X107744047Y-47418571D01*
X107839285Y-47609047D01*
X108029761Y-47799523D01*
X108315476Y-47894761D01*
X108791666Y-47894761D01*
X105648809Y-47704285D02*
X105744047Y-47799523D01*
X106029761Y-47894761D01*
X106220238Y-47894761D01*
X106505952Y-47799523D01*
X106696428Y-47609047D01*
X106791666Y-47418571D01*
X106886904Y-47037619D01*
X106886904Y-46751904D01*
X106791666Y-46370952D01*
X106696428Y-46180476D01*
X106505952Y-45990000D01*
X106220238Y-45894761D01*
X106029761Y-45894761D01*
X105744047Y-45990000D01*
X105648809Y-46085238D01*
X104410714Y-45894761D02*
X104029761Y-45894761D01*
X103839285Y-45990000D01*
X103648809Y-46180476D01*
X103553571Y-46561428D01*
X103553571Y-47228095D01*
X103648809Y-47609047D01*
X103839285Y-47799523D01*
X104029761Y-47894761D01*
X104410714Y-47894761D01*
X104601190Y-47799523D01*
X104791666Y-47609047D01*
X104886904Y-47228095D01*
X104886904Y-46561428D01*
X104791666Y-46180476D01*
X104601190Y-45990000D01*
X104410714Y-45894761D01*
D10*
X124547380Y-73691904D02*
X124547380Y-74263333D01*
X125547380Y-73977619D02*
X124547380Y-73977619D01*
X124547380Y-74501428D02*
X125547380Y-75168095D01*
X124547380Y-75168095D02*
X125547380Y-74501428D01*
X125547380Y-76072857D02*
X125547380Y-75501428D01*
X125547380Y-75787142D02*
X124547380Y-75787142D01*
X124690238Y-75691904D01*
X124785476Y-75596666D01*
X124833095Y-75501428D01*
X105549523Y-88336428D02*
X104940000Y-88336428D01*
X105244761Y-88717380D02*
X105244761Y-87955476D01*
X104140000Y-88717380D02*
X104597142Y-88717380D01*
X104368571Y-88717380D02*
X104368571Y-87717380D01*
X104444761Y-87860238D01*
X104520952Y-87955476D01*
X104597142Y-88003095D01*
X103835238Y-87812619D02*
X103797142Y-87765000D01*
X103720952Y-87717380D01*
X103530476Y-87717380D01*
X103454285Y-87765000D01*
X103416190Y-87812619D01*
X103378095Y-87907857D01*
X103378095Y-88003095D01*
X103416190Y-88145952D01*
X103873333Y-88717380D01*
X103378095Y-88717380D01*
X103149523Y-87717380D02*
X102882857Y-88717380D01*
X102616190Y-87717380D01*
X121520928Y-52495380D02*
X121330452Y-52495380D01*
X121235214Y-52543000D01*
X121139976Y-52638238D01*
X121092357Y-52828714D01*
X121092357Y-53162047D01*
X121139976Y-53352523D01*
X121235214Y-53447761D01*
X121330452Y-53495380D01*
X121520928Y-53495380D01*
X121616166Y-53447761D01*
X121711404Y-53352523D01*
X121759023Y-53162047D01*
X121759023Y-52828714D01*
X121711404Y-52638238D01*
X121616166Y-52543000D01*
X121520928Y-52495380D01*
X120663785Y-53495380D02*
X120663785Y-52828714D01*
X120663785Y-53019190D02*
X120616166Y-52923952D01*
X120568547Y-52876333D01*
X120473309Y-52828714D01*
X120378071Y-52828714D01*
X120044738Y-53495380D02*
X120044738Y-52828714D01*
X120044738Y-52495380D02*
X120092357Y-52543000D01*
X120044738Y-52590619D01*
X119997119Y-52543000D01*
X120044738Y-52495380D01*
X120044738Y-52590619D01*
X119139976Y-52828714D02*
X119139976Y-53638238D01*
X119187595Y-53733476D01*
X119235214Y-53781095D01*
X119330452Y-53828714D01*
X119473309Y-53828714D01*
X119568547Y-53781095D01*
X119139976Y-53447761D02*
X119235214Y-53495380D01*
X119425690Y-53495380D01*
X119520928Y-53447761D01*
X119568547Y-53400142D01*
X119616166Y-53304904D01*
X119616166Y-53019190D01*
X119568547Y-52923952D01*
X119520928Y-52876333D01*
X119425690Y-52828714D01*
X119235214Y-52828714D01*
X119139976Y-52876333D01*
X118663785Y-53495380D02*
X118663785Y-52828714D01*
X118663785Y-52495380D02*
X118711404Y-52543000D01*
X118663785Y-52590619D01*
X118616166Y-52543000D01*
X118663785Y-52495380D01*
X118663785Y-52590619D01*
X118187595Y-52828714D02*
X118187595Y-53495380D01*
X118187595Y-52923952D02*
X118139976Y-52876333D01*
X118044738Y-52828714D01*
X117901880Y-52828714D01*
X117806642Y-52876333D01*
X117759023Y-52971571D01*
X117759023Y-53495380D01*
X116854261Y-53495380D02*
X116854261Y-52971571D01*
X116901880Y-52876333D01*
X116997119Y-52828714D01*
X117187595Y-52828714D01*
X117282833Y-52876333D01*
X116854261Y-53447761D02*
X116949500Y-53495380D01*
X117187595Y-53495380D01*
X117282833Y-53447761D01*
X117330452Y-53352523D01*
X117330452Y-53257285D01*
X117282833Y-53162047D01*
X117187595Y-53114428D01*
X116949500Y-53114428D01*
X116854261Y-53066809D01*
X116235214Y-53495380D02*
X116330452Y-53447761D01*
X116378071Y-53352523D01*
X116378071Y-52495380D01*
X114663785Y-53447761D02*
X114759023Y-53495380D01*
X114949500Y-53495380D01*
X115044738Y-53447761D01*
X115092357Y-53400142D01*
X115139976Y-53304904D01*
X115139976Y-53019190D01*
X115092357Y-52923952D01*
X115044738Y-52876333D01*
X114949500Y-52828714D01*
X114759023Y-52828714D01*
X114663785Y-52876333D01*
X114092357Y-53495380D02*
X114187595Y-53447761D01*
X114235214Y-53400142D01*
X114282833Y-53304904D01*
X114282833Y-53019190D01*
X114235214Y-52923952D01*
X114187595Y-52876333D01*
X114092357Y-52828714D01*
X113949500Y-52828714D01*
X113854261Y-52876333D01*
X113806642Y-52923952D01*
X113759023Y-53019190D01*
X113759023Y-53304904D01*
X113806642Y-53400142D01*
X113854261Y-53447761D01*
X113949500Y-53495380D01*
X114092357Y-53495380D01*
X112901880Y-53495380D02*
X112901880Y-52495380D01*
X112901880Y-53447761D02*
X112997119Y-53495380D01*
X113187595Y-53495380D01*
X113282833Y-53447761D01*
X113330452Y-53400142D01*
X113378071Y-53304904D01*
X113378071Y-53019190D01*
X113330452Y-52923952D01*
X113282833Y-52876333D01*
X113187595Y-52828714D01*
X112997119Y-52828714D01*
X112901880Y-52876333D01*
X112044738Y-53447761D02*
X112139976Y-53495380D01*
X112330452Y-53495380D01*
X112425690Y-53447761D01*
X112473309Y-53352523D01*
X112473309Y-52971571D01*
X112425690Y-52876333D01*
X112330452Y-52828714D01*
X112139976Y-52828714D01*
X112044738Y-52876333D01*
X111997119Y-52971571D01*
X111997119Y-53066809D01*
X112473309Y-53162047D01*
X110378071Y-53495380D02*
X110378071Y-52971571D01*
X110425690Y-52876333D01*
X110520928Y-52828714D01*
X110711404Y-52828714D01*
X110806642Y-52876333D01*
X110378071Y-53447761D02*
X110473309Y-53495380D01*
X110711404Y-53495380D01*
X110806642Y-53447761D01*
X110854261Y-53352523D01*
X110854261Y-53257285D01*
X110806642Y-53162047D01*
X110711404Y-53114428D01*
X110473309Y-53114428D01*
X110378071Y-53066809D01*
X109901880Y-52828714D02*
X109901880Y-53495380D01*
X109901880Y-52923952D02*
X109854261Y-52876333D01*
X109759023Y-52828714D01*
X109616166Y-52828714D01*
X109520928Y-52876333D01*
X109473309Y-52971571D01*
X109473309Y-53495380D01*
X108568547Y-53495380D02*
X108568547Y-52495380D01*
X108568547Y-53447761D02*
X108663785Y-53495380D01*
X108854261Y-53495380D01*
X108949500Y-53447761D01*
X108997119Y-53400142D01*
X109044738Y-53304904D01*
X109044738Y-53019190D01*
X108997119Y-52923952D01*
X108949500Y-52876333D01*
X108854261Y-52828714D01*
X108663785Y-52828714D01*
X108568547Y-52876333D01*
X106901880Y-53447761D02*
X106997119Y-53495380D01*
X107187595Y-53495380D01*
X107282833Y-53447761D01*
X107330452Y-53400142D01*
X107378071Y-53304904D01*
X107378071Y-53019190D01*
X107330452Y-52923952D01*
X107282833Y-52876333D01*
X107187595Y-52828714D01*
X106997119Y-52828714D01*
X106901880Y-52876333D01*
X106473309Y-53495380D02*
X106473309Y-52828714D01*
X106473309Y-52495380D02*
X106520928Y-52543000D01*
X106473309Y-52590619D01*
X106425690Y-52543000D01*
X106473309Y-52495380D01*
X106473309Y-52590619D01*
X105997119Y-53495380D02*
X105997119Y-52828714D01*
X105997119Y-53019190D02*
X105949500Y-52923952D01*
X105901880Y-52876333D01*
X105806642Y-52828714D01*
X105711404Y-52828714D01*
X104949500Y-53447761D02*
X105044738Y-53495380D01*
X105235214Y-53495380D01*
X105330452Y-53447761D01*
X105378071Y-53400142D01*
X105425690Y-53304904D01*
X105425690Y-53019190D01*
X105378071Y-52923952D01*
X105330452Y-52876333D01*
X105235214Y-52828714D01*
X105044738Y-52828714D01*
X104949500Y-52876333D01*
X104092357Y-52828714D02*
X104092357Y-53495380D01*
X104520928Y-52828714D02*
X104520928Y-53352523D01*
X104473309Y-53447761D01*
X104378071Y-53495380D01*
X104235214Y-53495380D01*
X104139976Y-53447761D01*
X104092357Y-53400142D01*
X103616166Y-53495380D02*
X103616166Y-52828714D01*
X103616166Y-52495380D02*
X103663785Y-52543000D01*
X103616166Y-52590619D01*
X103568547Y-52543000D01*
X103616166Y-52495380D01*
X103616166Y-52590619D01*
X103282833Y-52828714D02*
X102901880Y-52828714D01*
X103139976Y-52495380D02*
X103139976Y-53352523D01*
X103092357Y-53447761D01*
X102997119Y-53495380D01*
X102901880Y-53495380D01*
X101806642Y-53495380D02*
X101806642Y-52495380D01*
X101806642Y-52876333D02*
X101711404Y-52828714D01*
X101520928Y-52828714D01*
X101425690Y-52876333D01*
X101378071Y-52923952D01*
X101330452Y-53019190D01*
X101330452Y-53304904D01*
X101378071Y-53400142D01*
X101425690Y-53447761D01*
X101520928Y-53495380D01*
X101711404Y-53495380D01*
X101806642Y-53447761D01*
X100997119Y-52828714D02*
X100759023Y-53495380D01*
X100520928Y-52828714D02*
X100759023Y-53495380D01*
X100854261Y-53733476D01*
X100901880Y-53781095D01*
X100997119Y-53828714D01*
X121711404Y-55105380D02*
X121711404Y-54105380D01*
X121711404Y-54581571D02*
X121139976Y-54581571D01*
X121139976Y-55105380D02*
X121139976Y-54105380D01*
X120235214Y-55105380D02*
X120235214Y-54581571D01*
X120282833Y-54486333D01*
X120378071Y-54438714D01*
X120568547Y-54438714D01*
X120663785Y-54486333D01*
X120235214Y-55057761D02*
X120330452Y-55105380D01*
X120568547Y-55105380D01*
X120663785Y-55057761D01*
X120711404Y-54962523D01*
X120711404Y-54867285D01*
X120663785Y-54772047D01*
X120568547Y-54724428D01*
X120330452Y-54724428D01*
X120235214Y-54676809D01*
X119330452Y-54438714D02*
X119330452Y-55248238D01*
X119378071Y-55343476D01*
X119425690Y-55391095D01*
X119520928Y-55438714D01*
X119663785Y-55438714D01*
X119759023Y-55391095D01*
X119330452Y-55057761D02*
X119425690Y-55105380D01*
X119616166Y-55105380D01*
X119711404Y-55057761D01*
X119759023Y-55010142D01*
X119806642Y-54914904D01*
X119806642Y-54629190D01*
X119759023Y-54533952D01*
X119711404Y-54486333D01*
X119616166Y-54438714D01*
X119425690Y-54438714D01*
X119330452Y-54486333D01*
X118854261Y-55105380D02*
X118854261Y-54438714D01*
X118854261Y-54105380D02*
X118901880Y-54153000D01*
X118854261Y-54200619D01*
X118806642Y-54153000D01*
X118854261Y-54105380D01*
X118854261Y-54200619D01*
X118473309Y-54438714D02*
X118282833Y-55105380D01*
X118092357Y-54629190D01*
X117901880Y-55105380D01*
X117711404Y-54438714D01*
X117187595Y-55105380D02*
X117282833Y-55057761D01*
X117330452Y-55010142D01*
X117378071Y-54914904D01*
X117378071Y-54629190D01*
X117330452Y-54533952D01*
X117282833Y-54486333D01*
X117187595Y-54438714D01*
X117044738Y-54438714D01*
X116949500Y-54486333D01*
X116901880Y-54533952D01*
X116854261Y-54629190D01*
X116854261Y-54914904D01*
X116901880Y-55010142D01*
X116949500Y-55057761D01*
X117044738Y-55105380D01*
X117187595Y-55105380D01*
X115711404Y-54819666D02*
X115235214Y-54819666D01*
X115806642Y-55105380D02*
X115473309Y-54105380D01*
X115139976Y-55105380D01*
X114806642Y-55105380D02*
X114806642Y-54105380D01*
X114235214Y-55105380D02*
X114663785Y-54533952D01*
X114235214Y-54105380D02*
X114806642Y-54676809D01*
X113854261Y-54819666D02*
X113378071Y-54819666D01*
X113949500Y-55105380D02*
X113616166Y-54105380D01*
X113282833Y-55105380D01*
X111568547Y-54629190D02*
X111616166Y-54581571D01*
X111711404Y-54533952D01*
X111806642Y-54533952D01*
X111901880Y-54581571D01*
X111949500Y-54629190D01*
X111997119Y-54724428D01*
X111997119Y-54819666D01*
X111949500Y-54914904D01*
X111901880Y-54962523D01*
X111806642Y-55010142D01*
X111711404Y-55010142D01*
X111616166Y-54962523D01*
X111568547Y-54914904D01*
X111568547Y-54533952D02*
X111568547Y-54914904D01*
X111520928Y-54962523D01*
X111473309Y-54962523D01*
X111378071Y-54914904D01*
X111330452Y-54819666D01*
X111330452Y-54581571D01*
X111425690Y-54438714D01*
X111568547Y-54343476D01*
X111759023Y-54295857D01*
X111949500Y-54343476D01*
X112092357Y-54438714D01*
X112187595Y-54581571D01*
X112235214Y-54772047D01*
X112187595Y-54962523D01*
X112092357Y-55105380D01*
X111949500Y-55200619D01*
X111759023Y-55248238D01*
X111568547Y-55200619D01*
X111425690Y-55105380D01*
X110949500Y-55057761D02*
X110854261Y-55105380D01*
X110663785Y-55105380D01*
X110568547Y-55057761D01*
X110520928Y-54962523D01*
X110520928Y-54914904D01*
X110568547Y-54819666D01*
X110663785Y-54772047D01*
X110806642Y-54772047D01*
X110901880Y-54724428D01*
X110949500Y-54629190D01*
X110949500Y-54581571D01*
X110901880Y-54486333D01*
X110806642Y-54438714D01*
X110663785Y-54438714D01*
X110568547Y-54486333D01*
X109949500Y-55105380D02*
X110044738Y-55057761D01*
X110092357Y-55010142D01*
X110139976Y-54914904D01*
X110139976Y-54629190D01*
X110092357Y-54533952D01*
X110044738Y-54486333D01*
X109949500Y-54438714D01*
X109806642Y-54438714D01*
X109711404Y-54486333D01*
X109663785Y-54533952D01*
X109616166Y-54629190D01*
X109616166Y-54914904D01*
X109663785Y-55010142D01*
X109711404Y-55057761D01*
X109806642Y-55105380D01*
X109949500Y-55105380D01*
X109044738Y-55105380D02*
X109139976Y-55057761D01*
X109187595Y-54962523D01*
X109187595Y-54105380D01*
X108235214Y-55105380D02*
X108235214Y-54105380D01*
X108235214Y-55057761D02*
X108330452Y-55105380D01*
X108520928Y-55105380D01*
X108616166Y-55057761D01*
X108663785Y-55010142D01*
X108711404Y-54914904D01*
X108711404Y-54629190D01*
X108663785Y-54533952D01*
X108616166Y-54486333D01*
X108520928Y-54438714D01*
X108330452Y-54438714D01*
X108235214Y-54486333D01*
X107378071Y-55057761D02*
X107473309Y-55105380D01*
X107663785Y-55105380D01*
X107759023Y-55057761D01*
X107806642Y-54962523D01*
X107806642Y-54581571D01*
X107759023Y-54486333D01*
X107663785Y-54438714D01*
X107473309Y-54438714D01*
X107378071Y-54486333D01*
X107330452Y-54581571D01*
X107330452Y-54676809D01*
X107806642Y-54772047D01*
X106901880Y-55105380D02*
X106901880Y-54438714D01*
X106901880Y-54629190D02*
X106854261Y-54533952D01*
X106806642Y-54486333D01*
X106711404Y-54438714D01*
X106616166Y-54438714D01*
X106330452Y-55057761D02*
X106235214Y-55105380D01*
X106044738Y-55105380D01*
X105949500Y-55057761D01*
X105901880Y-54962523D01*
X105901880Y-54914904D01*
X105949500Y-54819666D01*
X106044738Y-54772047D01*
X106187595Y-54772047D01*
X106282833Y-54724428D01*
X106330452Y-54629190D01*
X106330452Y-54581571D01*
X106282833Y-54486333D01*
X106187595Y-54438714D01*
X106044738Y-54438714D01*
X105949500Y-54486333D01*
X105616166Y-54438714D02*
X105235214Y-54438714D01*
X105473309Y-54105380D02*
X105473309Y-54962523D01*
X105425690Y-55057761D01*
X105330452Y-55105380D01*
X105235214Y-55105380D01*
X104473309Y-55105380D02*
X104473309Y-54581571D01*
X104520928Y-54486333D01*
X104616166Y-54438714D01*
X104806642Y-54438714D01*
X104901880Y-54486333D01*
X104473309Y-55057761D02*
X104568547Y-55105380D01*
X104806642Y-55105380D01*
X104901880Y-55057761D01*
X104949500Y-54962523D01*
X104949500Y-54867285D01*
X104901880Y-54772047D01*
X104806642Y-54724428D01*
X104568547Y-54724428D01*
X104473309Y-54676809D01*
X104139976Y-54438714D02*
X103759023Y-54438714D01*
X103997119Y-54105380D02*
X103997119Y-54962523D01*
X103949500Y-55057761D01*
X103854261Y-55105380D01*
X103759023Y-55105380D01*
X103044738Y-55057761D02*
X103139976Y-55105380D01*
X103330452Y-55105380D01*
X103425690Y-55057761D01*
X103473309Y-54962523D01*
X103473309Y-54581571D01*
X103425690Y-54486333D01*
X103330452Y-54438714D01*
X103139976Y-54438714D01*
X103044738Y-54486333D01*
X102997119Y-54581571D01*
X102997119Y-54676809D01*
X103473309Y-54772047D01*
X104227380Y-73834761D02*
X105227380Y-74168095D01*
X104227380Y-74501428D01*
X105227380Y-74834761D02*
X104227380Y-74834761D01*
X105227380Y-75310952D02*
X104227380Y-75310952D01*
X105227380Y-75882380D01*
X104227380Y-75882380D01*
X102091904Y-101671428D02*
X101330000Y-101671428D01*
X100330000Y-102052380D02*
X100901428Y-102052380D01*
X100615714Y-102052380D02*
X100615714Y-101052380D01*
X100710952Y-101195238D01*
X100806190Y-101290476D01*
X100901428Y-101338095D01*
X99949047Y-101147619D02*
X99901428Y-101100000D01*
X99806190Y-101052380D01*
X99568095Y-101052380D01*
X99472857Y-101100000D01*
X99425238Y-101147619D01*
X99377619Y-101242857D01*
X99377619Y-101338095D01*
X99425238Y-101480952D01*
X99996666Y-102052380D01*
X99377619Y-102052380D01*
X99091904Y-101052380D02*
X98758571Y-102052380D01*
X98425238Y-101052380D01*
X97861428Y-112984595D02*
X97861428Y-113746500D01*
X98242380Y-114984595D02*
X97242380Y-114984595D01*
X97242380Y-115365547D01*
X97290000Y-115460785D01*
X97337619Y-115508404D01*
X97432857Y-115556023D01*
X97575714Y-115556023D01*
X97670952Y-115508404D01*
X97718571Y-115460785D01*
X97766190Y-115365547D01*
X97766190Y-114984595D01*
X98147142Y-116556023D02*
X98194761Y-116508404D01*
X98242380Y-116365547D01*
X98242380Y-116270309D01*
X98194761Y-116127452D01*
X98099523Y-116032214D01*
X98004285Y-115984595D01*
X97813809Y-115936976D01*
X97670952Y-115936976D01*
X97480476Y-115984595D01*
X97385238Y-116032214D01*
X97290000Y-116127452D01*
X97242380Y-116270309D01*
X97242380Y-116365547D01*
X97290000Y-116508404D01*
X97337619Y-116556023D01*
X97718571Y-117317928D02*
X97766190Y-117460785D01*
X97813809Y-117508404D01*
X97909047Y-117556023D01*
X98051904Y-117556023D01*
X98147142Y-117508404D01*
X98194761Y-117460785D01*
X98242380Y-117365547D01*
X98242380Y-116984595D01*
X97242380Y-116984595D01*
X97242380Y-117317928D01*
X97290000Y-117413166D01*
X97337619Y-117460785D01*
X97432857Y-117508404D01*
X97528095Y-117508404D01*
X97623333Y-117460785D01*
X97670952Y-117413166D01*
X97718571Y-117317928D01*
X97718571Y-116984595D01*
X98242380Y-119175071D02*
X97718571Y-119175071D01*
X97623333Y-119127452D01*
X97575714Y-119032214D01*
X97575714Y-118841738D01*
X97623333Y-118746500D01*
X98194761Y-119175071D02*
X98242380Y-119079833D01*
X98242380Y-118841738D01*
X98194761Y-118746500D01*
X98099523Y-118698880D01*
X98004285Y-118698880D01*
X97909047Y-118746500D01*
X97861428Y-118841738D01*
X97861428Y-119079833D01*
X97813809Y-119175071D01*
X97575714Y-119651261D02*
X98242380Y-119651261D01*
X97670952Y-119651261D02*
X97623333Y-119698880D01*
X97575714Y-119794119D01*
X97575714Y-119936976D01*
X97623333Y-120032214D01*
X97718571Y-120079833D01*
X98242380Y-120079833D01*
X98242380Y-120984595D02*
X97242380Y-120984595D01*
X98194761Y-120984595D02*
X98242380Y-120889357D01*
X98242380Y-120698880D01*
X98194761Y-120603642D01*
X98147142Y-120556023D01*
X98051904Y-120508404D01*
X97766190Y-120508404D01*
X97670952Y-120556023D01*
X97623333Y-120603642D01*
X97575714Y-120698880D01*
X97575714Y-120889357D01*
X97623333Y-120984595D01*
X97575714Y-122222690D02*
X98575714Y-122222690D01*
X97623333Y-122222690D02*
X97575714Y-122317928D01*
X97575714Y-122508404D01*
X97623333Y-122603642D01*
X97670952Y-122651261D01*
X97766190Y-122698880D01*
X98051904Y-122698880D01*
X98147142Y-122651261D01*
X98194761Y-122603642D01*
X98242380Y-122508404D01*
X98242380Y-122317928D01*
X98194761Y-122222690D01*
X98242380Y-123556023D02*
X97718571Y-123556023D01*
X97623333Y-123508404D01*
X97575714Y-123413166D01*
X97575714Y-123222690D01*
X97623333Y-123127452D01*
X98194761Y-123556023D02*
X98242380Y-123460785D01*
X98242380Y-123222690D01*
X98194761Y-123127452D01*
X98099523Y-123079833D01*
X98004285Y-123079833D01*
X97909047Y-123127452D01*
X97861428Y-123222690D01*
X97861428Y-123460785D01*
X97813809Y-123556023D01*
X97575714Y-124032214D02*
X98242380Y-124032214D01*
X97670952Y-124032214D02*
X97623333Y-124079833D01*
X97575714Y-124175071D01*
X97575714Y-124317928D01*
X97623333Y-124413166D01*
X97718571Y-124460785D01*
X98242380Y-124460785D01*
X98194761Y-125317928D02*
X98242380Y-125222690D01*
X98242380Y-125032214D01*
X98194761Y-124936976D01*
X98099523Y-124889357D01*
X97718571Y-124889357D01*
X97623333Y-124936976D01*
X97575714Y-125032214D01*
X97575714Y-125222690D01*
X97623333Y-125317928D01*
X97718571Y-125365547D01*
X97813809Y-125365547D01*
X97909047Y-124889357D01*
X98242380Y-125936976D02*
X98194761Y-125841738D01*
X98099523Y-125794119D01*
X97242380Y-125794119D01*
X98242380Y-127079833D02*
X97242380Y-127079833D01*
X97623333Y-127079833D02*
X97575714Y-127175071D01*
X97575714Y-127365547D01*
X97623333Y-127460785D01*
X97670952Y-127508404D01*
X97766190Y-127556023D01*
X98051904Y-127556023D01*
X98147142Y-127508404D01*
X98194761Y-127460785D01*
X98242380Y-127365547D01*
X98242380Y-127175071D01*
X98194761Y-127079833D01*
X97575714Y-127889357D02*
X98242380Y-128127452D01*
X97575714Y-128365547D02*
X98242380Y-128127452D01*
X98480476Y-128032214D01*
X98528095Y-127984595D01*
X98575714Y-127889357D01*
X98242380Y-129508404D02*
X97242380Y-129508404D01*
X98242380Y-130079833D01*
X97242380Y-130079833D01*
X98242380Y-130984595D02*
X97718571Y-130984595D01*
X97623333Y-130936976D01*
X97575714Y-130841738D01*
X97575714Y-130651261D01*
X97623333Y-130556023D01*
X98194761Y-130984595D02*
X98242380Y-130889357D01*
X98242380Y-130651261D01*
X98194761Y-130556023D01*
X98099523Y-130508404D01*
X98004285Y-130508404D01*
X97909047Y-130556023D01*
X97861428Y-130651261D01*
X97861428Y-130889357D01*
X97813809Y-130984595D01*
X97575714Y-131317928D02*
X97575714Y-131698880D01*
X97242380Y-131460785D02*
X98099523Y-131460785D01*
X98194761Y-131508404D01*
X98242380Y-131603642D01*
X98242380Y-131698880D01*
X98242380Y-132032214D02*
X97242380Y-132032214D01*
X98242380Y-132460785D02*
X97718571Y-132460785D01*
X97623333Y-132413166D01*
X97575714Y-132317928D01*
X97575714Y-132175071D01*
X97623333Y-132079833D01*
X97670952Y-132032214D01*
X98242380Y-133365547D02*
X97718571Y-133365547D01*
X97623333Y-133317928D01*
X97575714Y-133222690D01*
X97575714Y-133032214D01*
X97623333Y-132936976D01*
X98194761Y-133365547D02*
X98242380Y-133270309D01*
X98242380Y-133032214D01*
X98194761Y-132936976D01*
X98099523Y-132889357D01*
X98004285Y-132889357D01*
X97909047Y-132936976D01*
X97861428Y-133032214D01*
X97861428Y-133270309D01*
X97813809Y-133365547D01*
X97575714Y-133841738D02*
X98242380Y-133841738D01*
X97670952Y-133841738D02*
X97623333Y-133889357D01*
X97575714Y-133984595D01*
X97575714Y-134127452D01*
X97623333Y-134222690D01*
X97718571Y-134270309D01*
X98242380Y-134270309D01*
X97718571Y-135841738D02*
X97766190Y-135984595D01*
X97813809Y-136032214D01*
X97909047Y-136079833D01*
X98051904Y-136079833D01*
X98147142Y-136032214D01*
X98194761Y-135984595D01*
X98242380Y-135889357D01*
X98242380Y-135508404D01*
X97242380Y-135508404D01*
X97242380Y-135841738D01*
X97290000Y-135936976D01*
X97337619Y-135984595D01*
X97432857Y-136032214D01*
X97528095Y-136032214D01*
X97623333Y-135984595D01*
X97670952Y-135936976D01*
X97718571Y-135841738D01*
X97718571Y-135508404D01*
X97956666Y-137222690D02*
X97956666Y-137698880D01*
X98242380Y-137127452D02*
X97242380Y-137460785D01*
X98242380Y-137794119D01*
X98242380Y-138127452D02*
X97242380Y-138127452D01*
X98242380Y-138698880D02*
X97670952Y-138270309D01*
X97242380Y-138698880D02*
X97813809Y-138127452D01*
X97956666Y-139079833D02*
X97956666Y-139556023D01*
X98242380Y-138984595D02*
X97242380Y-139317928D01*
X98242380Y-139651261D01*
X97766190Y-141365547D02*
X97718571Y-141317928D01*
X97670952Y-141222690D01*
X97670952Y-141127452D01*
X97718571Y-141032214D01*
X97766190Y-140984595D01*
X97861428Y-140936976D01*
X97956666Y-140936976D01*
X98051904Y-140984595D01*
X98099523Y-141032214D01*
X98147142Y-141127452D01*
X98147142Y-141222690D01*
X98099523Y-141317928D01*
X98051904Y-141365547D01*
X97670952Y-141365547D02*
X98051904Y-141365547D01*
X98099523Y-141413166D01*
X98099523Y-141460785D01*
X98051904Y-141556023D01*
X97956666Y-141603642D01*
X97718571Y-141603642D01*
X97575714Y-141508404D01*
X97480476Y-141365547D01*
X97432857Y-141175071D01*
X97480476Y-140984595D01*
X97575714Y-140841738D01*
X97718571Y-140746499D01*
X97909047Y-140698880D01*
X98099523Y-140746499D01*
X98242380Y-140841738D01*
X98337619Y-140984595D01*
X98385238Y-141175071D01*
X98337619Y-141365547D01*
X98242380Y-141508404D01*
X97670952Y-142175071D02*
X97623333Y-142079833D01*
X97575714Y-142032214D01*
X97480476Y-141984595D01*
X97432857Y-141984595D01*
X97337619Y-142032214D01*
X97290000Y-142079833D01*
X97242380Y-142175071D01*
X97242380Y-142365547D01*
X97290000Y-142460785D01*
X97337619Y-142508404D01*
X97432857Y-142556023D01*
X97480476Y-142556023D01*
X97575714Y-142508404D01*
X97623333Y-142460785D01*
X97670952Y-142365547D01*
X97670952Y-142175071D01*
X97718571Y-142079833D01*
X97766190Y-142032214D01*
X97861428Y-141984595D01*
X98051904Y-141984595D01*
X98147142Y-142032214D01*
X98194761Y-142079833D01*
X98242380Y-142175071D01*
X98242380Y-142365547D01*
X98194761Y-142460785D01*
X98147142Y-142508404D01*
X98051904Y-142556023D01*
X97861428Y-142556023D01*
X97766190Y-142508404D01*
X97718571Y-142460785D01*
X97670952Y-142365547D01*
X98242380Y-143127452D02*
X98194761Y-143032214D01*
X98099523Y-142984595D01*
X97242380Y-142984595D01*
X98242380Y-143508404D02*
X97575714Y-143508404D01*
X97242380Y-143508404D02*
X97290000Y-143460785D01*
X97337619Y-143508404D01*
X97290000Y-143556023D01*
X97242380Y-143508404D01*
X97337619Y-143508404D01*
X97575714Y-143984595D02*
X98242380Y-143984595D01*
X97670952Y-143984595D02*
X97623333Y-144032214D01*
X97575714Y-144127452D01*
X97575714Y-144270309D01*
X97623333Y-144365547D01*
X97718571Y-144413166D01*
X98242380Y-144413166D01*
X98242380Y-144889357D02*
X97242380Y-144889357D01*
X97861428Y-144984595D02*
X98242380Y-145270309D01*
X97575714Y-145270309D02*
X97956666Y-144889357D01*
X98194761Y-146079833D02*
X98242380Y-145984595D01*
X98242380Y-145794119D01*
X98194761Y-145698880D01*
X98099523Y-145651261D01*
X97718571Y-145651261D01*
X97623333Y-145698880D01*
X97575714Y-145794119D01*
X97575714Y-145984595D01*
X97623333Y-146079833D01*
X97718571Y-146127452D01*
X97813809Y-146127452D01*
X97909047Y-145651261D01*
X97575714Y-146556023D02*
X98242380Y-146556023D01*
X97670952Y-146556023D02*
X97623333Y-146603642D01*
X97575714Y-146698880D01*
X97575714Y-146841738D01*
X97623333Y-146936976D01*
X97718571Y-146984595D01*
X98242380Y-146984595D01*
X98242380Y-147603642D02*
X98194761Y-147508404D01*
X98099523Y-147460785D01*
X97242380Y-147460785D01*
X98242380Y-147984595D02*
X97575714Y-147984595D01*
X97242380Y-147984595D02*
X97290000Y-147936976D01*
X97337619Y-147984595D01*
X97290000Y-148032214D01*
X97242380Y-147984595D01*
X97337619Y-147984595D01*
X97575714Y-148889357D02*
X98385238Y-148889357D01*
X98480476Y-148841738D01*
X98528095Y-148794119D01*
X98575714Y-148698880D01*
X98575714Y-148556023D01*
X98528095Y-148460785D01*
X98194761Y-148889357D02*
X98242380Y-148794119D01*
X98242380Y-148603642D01*
X98194761Y-148508404D01*
X98147142Y-148460785D01*
X98051904Y-148413166D01*
X97766190Y-148413166D01*
X97670952Y-148460785D01*
X97623333Y-148508404D01*
X97575714Y-148603642D01*
X97575714Y-148794119D01*
X97623333Y-148889357D01*
X98242380Y-149365547D02*
X97242380Y-149365547D01*
X98242380Y-149794119D02*
X97718571Y-149794119D01*
X97623333Y-149746499D01*
X97575714Y-149651261D01*
X97575714Y-149508404D01*
X97623333Y-149413166D01*
X97670952Y-149365547D01*
X97575714Y-150127452D02*
X97575714Y-150508404D01*
X97242380Y-150270309D02*
X98099523Y-150270309D01*
X98194761Y-150317928D01*
X98242380Y-150413166D01*
X98242380Y-150508404D01*
X97242380Y-151317928D02*
X97242380Y-150841738D01*
X97718571Y-150794119D01*
X97670952Y-150841738D01*
X97623333Y-150936976D01*
X97623333Y-151175071D01*
X97670952Y-151270309D01*
X97718571Y-151317928D01*
X97813809Y-151365547D01*
X98051904Y-151365547D01*
X98147142Y-151317928D01*
X98194761Y-151270309D01*
X98242380Y-151175071D01*
X98242380Y-150936976D01*
X98194761Y-150841738D01*
X98147142Y-150794119D01*
D12*
X106676666Y-121483666D02*
X106676666Y-121959857D01*
X106962380Y-121388428D02*
X105962380Y-121721761D01*
X106962380Y-122055095D01*
X106295714Y-122817000D02*
X106962380Y-122817000D01*
X106295714Y-122388428D02*
X106819523Y-122388428D01*
X106914761Y-122436047D01*
X106962380Y-122531285D01*
X106962380Y-122674142D01*
X106914761Y-122769380D01*
X106867142Y-122817000D01*
X106962380Y-123721761D02*
X105962380Y-123721761D01*
X106914761Y-123721761D02*
X106962380Y-123626523D01*
X106962380Y-123436047D01*
X106914761Y-123340809D01*
X106867142Y-123293190D01*
X106771904Y-123245571D01*
X106486190Y-123245571D01*
X106390952Y-123293190D01*
X106343333Y-123340809D01*
X106295714Y-123436047D01*
X106295714Y-123626523D01*
X106343333Y-123721761D01*
X106962380Y-124197952D02*
X106295714Y-124197952D01*
X105962380Y-124197952D02*
X106010000Y-124150333D01*
X106057619Y-124197952D01*
X106010000Y-124245571D01*
X105962380Y-124197952D01*
X106057619Y-124197952D01*
X106962380Y-124817000D02*
X106914761Y-124721761D01*
X106867142Y-124674142D01*
X106771904Y-124626523D01*
X106486190Y-124626523D01*
X106390952Y-124674142D01*
X106343333Y-124721761D01*
X106295714Y-124817000D01*
X106295714Y-124959857D01*
X106343333Y-125055095D01*
X106390952Y-125102714D01*
X106486190Y-125150333D01*
X106771904Y-125150333D01*
X106867142Y-125102714D01*
X106914761Y-125055095D01*
X106962380Y-124959857D01*
X106962380Y-124817000D01*
X108286666Y-119840809D02*
X108286666Y-120317000D01*
X108572380Y-119745571D02*
X107572380Y-120078904D01*
X108572380Y-120412238D01*
X108572380Y-120745571D02*
X107905714Y-120745571D01*
X108000952Y-120745571D02*
X107953333Y-120793190D01*
X107905714Y-120888428D01*
X107905714Y-121031285D01*
X107953333Y-121126523D01*
X108048571Y-121174142D01*
X108572380Y-121174142D01*
X108048571Y-121174142D02*
X107953333Y-121221761D01*
X107905714Y-121317000D01*
X107905714Y-121459857D01*
X107953333Y-121555095D01*
X108048571Y-121602714D01*
X108572380Y-121602714D01*
X107905714Y-122078904D02*
X108905714Y-122078904D01*
X107953333Y-122078904D02*
X107905714Y-122174142D01*
X107905714Y-122364619D01*
X107953333Y-122459857D01*
X108000952Y-122507476D01*
X108096190Y-122555095D01*
X108381904Y-122555095D01*
X108477142Y-122507476D01*
X108524761Y-122459857D01*
X108572380Y-122364619D01*
X108572380Y-122174142D01*
X108524761Y-122078904D01*
X108572380Y-123126523D02*
X108524761Y-123031285D01*
X108429523Y-122983666D01*
X107572380Y-122983666D01*
X108572380Y-123507476D02*
X107905714Y-123507476D01*
X107572380Y-123507476D02*
X107620000Y-123459857D01*
X107667619Y-123507476D01*
X107620000Y-123555095D01*
X107572380Y-123507476D01*
X107667619Y-123507476D01*
X107905714Y-123840809D02*
X107905714Y-124221761D01*
X107572380Y-123983666D02*
X108429523Y-123983666D01*
X108524761Y-124031285D01*
X108572380Y-124126523D01*
X108572380Y-124221761D01*
X107905714Y-124983666D02*
X108572380Y-124983666D01*
X107905714Y-124555095D02*
X108429523Y-124555095D01*
X108524761Y-124602714D01*
X108572380Y-124697952D01*
X108572380Y-124840809D01*
X108524761Y-124936047D01*
X108477142Y-124983666D01*
X108572380Y-125888428D02*
X107572380Y-125888428D01*
X108524761Y-125888428D02*
X108572380Y-125793190D01*
X108572380Y-125602714D01*
X108524761Y-125507476D01*
X108477142Y-125459857D01*
X108381904Y-125412238D01*
X108096190Y-125412238D01*
X108000952Y-125459857D01*
X107953333Y-125507476D01*
X107905714Y-125602714D01*
X107905714Y-125793190D01*
X107953333Y-125888428D01*
X108524761Y-126745571D02*
X108572380Y-126650333D01*
X108572380Y-126459857D01*
X108524761Y-126364619D01*
X108429523Y-126317000D01*
X108048571Y-126317000D01*
X107953333Y-126364619D01*
X107905714Y-126459857D01*
X107905714Y-126650333D01*
X107953333Y-126745571D01*
X108048571Y-126793190D01*
X108143809Y-126793190D01*
X108239047Y-126317000D01*
D10*
X105227380Y-109275714D02*
X104227380Y-109275714D01*
X104227380Y-109513809D01*
X104275000Y-109656666D01*
X104370238Y-109751904D01*
X104465476Y-109799523D01*
X104655952Y-109847142D01*
X104798809Y-109847142D01*
X104989285Y-109799523D01*
X105084523Y-109751904D01*
X105179761Y-109656666D01*
X105227380Y-109513809D01*
X105227380Y-109275714D01*
X105227380Y-110799523D02*
X105227380Y-110228095D01*
X105227380Y-110513809D02*
X104227380Y-110513809D01*
X104370238Y-110418571D01*
X104465476Y-110323333D01*
X104513095Y-110228095D01*
X104227380Y-111132857D02*
X104227380Y-111751904D01*
X104608333Y-111418571D01*
X104608333Y-111561428D01*
X104655952Y-111656666D01*
X104703571Y-111704285D01*
X104798809Y-111751904D01*
X105036904Y-111751904D01*
X105132142Y-111704285D01*
X105179761Y-111656666D01*
X105227380Y-111561428D01*
X105227380Y-111275714D01*
X105179761Y-111180476D01*
X105132142Y-111132857D01*
X103671666Y-116111976D02*
X103671666Y-116588166D01*
X103957380Y-116016738D02*
X102957380Y-116350071D01*
X103957380Y-116683404D01*
X103957380Y-117016738D02*
X102957380Y-117016738D01*
X103957380Y-117588166D02*
X103385952Y-117159595D01*
X102957380Y-117588166D02*
X103528809Y-117016738D01*
X103671666Y-117969119D02*
X103671666Y-118445309D01*
X103957380Y-117873880D02*
X102957380Y-118207214D01*
X103957380Y-118540547D01*
X103957380Y-119635785D02*
X102957380Y-119635785D01*
X103957380Y-120064357D02*
X103433571Y-120064357D01*
X103338333Y-120016738D01*
X103290714Y-119921500D01*
X103290714Y-119778642D01*
X103338333Y-119683404D01*
X103385952Y-119635785D01*
X103290714Y-120397690D02*
X103290714Y-120778642D01*
X102957380Y-120540547D02*
X103814523Y-120540547D01*
X103909761Y-120588166D01*
X103957380Y-120683404D01*
X103957380Y-120778642D01*
X103290714Y-120969119D02*
X103290714Y-121350071D01*
X102957380Y-121111976D02*
X103814523Y-121111976D01*
X103909761Y-121159595D01*
X103957380Y-121254833D01*
X103957380Y-121350071D01*
X103290714Y-121683404D02*
X104290714Y-121683404D01*
X103338333Y-121683404D02*
X103290714Y-121778642D01*
X103290714Y-121969119D01*
X103338333Y-122064357D01*
X103385952Y-122111976D01*
X103481190Y-122159595D01*
X103766904Y-122159595D01*
X103862142Y-122111976D01*
X103909761Y-122064357D01*
X103957380Y-121969119D01*
X103957380Y-121778642D01*
X103909761Y-121683404D01*
X103909761Y-122540547D02*
X103957380Y-122635785D01*
X103957380Y-122826261D01*
X103909761Y-122921500D01*
X103814523Y-122969119D01*
X103766904Y-122969119D01*
X103671666Y-122921500D01*
X103624047Y-122826261D01*
X103624047Y-122683404D01*
X103576428Y-122588166D01*
X103481190Y-122540547D01*
X103433571Y-122540547D01*
X103338333Y-122588166D01*
X103290714Y-122683404D01*
X103290714Y-122826261D01*
X103338333Y-122921500D01*
X103862142Y-123397690D02*
X103909761Y-123445309D01*
X103957380Y-123397690D01*
X103909761Y-123350071D01*
X103862142Y-123397690D01*
X103957380Y-123397690D01*
X103338333Y-123397690D02*
X103385952Y-123445309D01*
X103433571Y-123397690D01*
X103385952Y-123350071D01*
X103338333Y-123397690D01*
X103433571Y-123397690D01*
X102909761Y-124588166D02*
X104195476Y-123731023D01*
X102909761Y-125635785D02*
X104195476Y-124778642D01*
X103290714Y-126397690D02*
X104100238Y-126397690D01*
X104195476Y-126350071D01*
X104243095Y-126302452D01*
X104290714Y-126207214D01*
X104290714Y-126064357D01*
X104243095Y-125969119D01*
X103909761Y-126397690D02*
X103957380Y-126302452D01*
X103957380Y-126111976D01*
X103909761Y-126016738D01*
X103862142Y-125969119D01*
X103766904Y-125921500D01*
X103481190Y-125921500D01*
X103385952Y-125969119D01*
X103338333Y-126016738D01*
X103290714Y-126111976D01*
X103290714Y-126302452D01*
X103338333Y-126397690D01*
X103957380Y-126873880D02*
X103290714Y-126873880D01*
X102957380Y-126873880D02*
X103005000Y-126826261D01*
X103052619Y-126873880D01*
X103005000Y-126921500D01*
X102957380Y-126873880D01*
X103052619Y-126873880D01*
X103290714Y-127207214D02*
X103290714Y-127588166D01*
X102957380Y-127350071D02*
X103814523Y-127350071D01*
X103909761Y-127397690D01*
X103957380Y-127492928D01*
X103957380Y-127588166D01*
X103957380Y-127921500D02*
X102957380Y-127921500D01*
X103957380Y-128350071D02*
X103433571Y-128350071D01*
X103338333Y-128302452D01*
X103290714Y-128207214D01*
X103290714Y-128064357D01*
X103338333Y-127969119D01*
X103385952Y-127921500D01*
X103290714Y-129254833D02*
X103957380Y-129254833D01*
X103290714Y-128826261D02*
X103814523Y-128826261D01*
X103909761Y-128873880D01*
X103957380Y-128969119D01*
X103957380Y-129111976D01*
X103909761Y-129207214D01*
X103862142Y-129254833D01*
X103957380Y-129731023D02*
X102957380Y-129731023D01*
X103338333Y-129731023D02*
X103290714Y-129826261D01*
X103290714Y-130016738D01*
X103338333Y-130111976D01*
X103385952Y-130159595D01*
X103481190Y-130207214D01*
X103766904Y-130207214D01*
X103862142Y-130159595D01*
X103909761Y-130111976D01*
X103957380Y-130016738D01*
X103957380Y-129826261D01*
X103909761Y-129731023D01*
X103862142Y-130635785D02*
X103909761Y-130683404D01*
X103957380Y-130635785D01*
X103909761Y-130588166D01*
X103862142Y-130635785D01*
X103957380Y-130635785D01*
X103909761Y-131540547D02*
X103957380Y-131445309D01*
X103957380Y-131254833D01*
X103909761Y-131159595D01*
X103862142Y-131111976D01*
X103766904Y-131064357D01*
X103481190Y-131064357D01*
X103385952Y-131111976D01*
X103338333Y-131159595D01*
X103290714Y-131254833D01*
X103290714Y-131445309D01*
X103338333Y-131540547D01*
X103957380Y-132111976D02*
X103909761Y-132016738D01*
X103862142Y-131969119D01*
X103766904Y-131921500D01*
X103481190Y-131921500D01*
X103385952Y-131969119D01*
X103338333Y-132016738D01*
X103290714Y-132111976D01*
X103290714Y-132254833D01*
X103338333Y-132350071D01*
X103385952Y-132397690D01*
X103481190Y-132445309D01*
X103766904Y-132445309D01*
X103862142Y-132397690D01*
X103909761Y-132350071D01*
X103957380Y-132254833D01*
X103957380Y-132111976D01*
X103957380Y-132873880D02*
X103290714Y-132873880D01*
X103385952Y-132873880D02*
X103338333Y-132921500D01*
X103290714Y-133016738D01*
X103290714Y-133159595D01*
X103338333Y-133254833D01*
X103433571Y-133302452D01*
X103957380Y-133302452D01*
X103433571Y-133302452D02*
X103338333Y-133350071D01*
X103290714Y-133445309D01*
X103290714Y-133588166D01*
X103338333Y-133683404D01*
X103433571Y-133731023D01*
X103957380Y-133731023D01*
X102909761Y-134921500D02*
X104195476Y-134064357D01*
X103433571Y-135588166D02*
X103481190Y-135731023D01*
X103528809Y-135778642D01*
X103624047Y-135826261D01*
X103766904Y-135826261D01*
X103862142Y-135778642D01*
X103909761Y-135731023D01*
X103957380Y-135635785D01*
X103957380Y-135254833D01*
X102957380Y-135254833D01*
X102957380Y-135588166D01*
X103005000Y-135683404D01*
X103052619Y-135731023D01*
X103147857Y-135778642D01*
X103243095Y-135778642D01*
X103338333Y-135731023D01*
X103385952Y-135683404D01*
X103433571Y-135588166D01*
X103433571Y-135254833D01*
X103957380Y-136397690D02*
X103909761Y-136302452D01*
X103814523Y-136254833D01*
X102957380Y-136254833D01*
X103957380Y-136778642D02*
X103290714Y-136778642D01*
X102957380Y-136778642D02*
X103005000Y-136731023D01*
X103052619Y-136778642D01*
X103005000Y-136826261D01*
X102957380Y-136778642D01*
X103052619Y-136778642D01*
X103290714Y-137254833D02*
X103957380Y-137254833D01*
X103385952Y-137254833D02*
X103338333Y-137302452D01*
X103290714Y-137397690D01*
X103290714Y-137540547D01*
X103338333Y-137635785D01*
X103433571Y-137683404D01*
X103957380Y-137683404D01*
X103957380Y-138159595D02*
X102957380Y-138159595D01*
X103576428Y-138254833D02*
X103957380Y-138540547D01*
X103290714Y-138540547D02*
X103671666Y-138159595D01*
X103909761Y-139350071D02*
X103957380Y-139254833D01*
X103957380Y-139064357D01*
X103909761Y-138969119D01*
X103814523Y-138921500D01*
X103433571Y-138921500D01*
X103338333Y-138969119D01*
X103290714Y-139064357D01*
X103290714Y-139254833D01*
X103338333Y-139350071D01*
X103433571Y-139397690D01*
X103528809Y-139397690D01*
X103624047Y-138921500D01*
X103290714Y-139826261D02*
X103957380Y-139826261D01*
X103385952Y-139826261D02*
X103338333Y-139873880D01*
X103290714Y-139969119D01*
X103290714Y-140111976D01*
X103338333Y-140207214D01*
X103433571Y-140254833D01*
X103957380Y-140254833D01*
X103576428Y-140731023D02*
X103576428Y-141492928D01*
X103957380Y-142445309D02*
X103957380Y-141969119D01*
X102957380Y-141969119D01*
X103957380Y-142778642D02*
X103290714Y-142778642D01*
X102957380Y-142778642D02*
X103005000Y-142731023D01*
X103052619Y-142778642D01*
X103005000Y-142826261D01*
X102957380Y-142778642D01*
X103052619Y-142778642D01*
X103290714Y-143683404D02*
X104100238Y-143683404D01*
X104195476Y-143635785D01*
X104243095Y-143588166D01*
X104290714Y-143492928D01*
X104290714Y-143350071D01*
X104243095Y-143254833D01*
X103909761Y-143683404D02*
X103957380Y-143588166D01*
X103957380Y-143397690D01*
X103909761Y-143302452D01*
X103862142Y-143254833D01*
X103766904Y-143207214D01*
X103481190Y-143207214D01*
X103385952Y-143254833D01*
X103338333Y-143302452D01*
X103290714Y-143397690D01*
X103290714Y-143588166D01*
X103338333Y-143683404D01*
X103957380Y-144159595D02*
X102957380Y-144159595D01*
X103957380Y-144588166D02*
X103433571Y-144588166D01*
X103338333Y-144540547D01*
X103290714Y-144445309D01*
X103290714Y-144302452D01*
X103338333Y-144207214D01*
X103385952Y-144159595D01*
X103290714Y-144921500D02*
X103290714Y-145302452D01*
X102957380Y-145064357D02*
X103814523Y-145064357D01*
X103909761Y-145111976D01*
X103957380Y-145207214D01*
X103957380Y-145302452D01*
X103909761Y-145588166D02*
X103957380Y-145683404D01*
X103957380Y-145873880D01*
X103909761Y-145969119D01*
X103814523Y-146016738D01*
X103766904Y-146016738D01*
X103671666Y-145969119D01*
X103624047Y-145873880D01*
X103624047Y-145731023D01*
X103576428Y-145635785D01*
X103481190Y-145588166D01*
X103433571Y-145588166D01*
X103338333Y-145635785D01*
X103290714Y-145731023D01*
X103290714Y-145873880D01*
X103338333Y-145969119D01*
X102909761Y-147159595D02*
X104195476Y-146302452D01*
X103671666Y-147445309D02*
X103671666Y-147921500D01*
X103957380Y-147350071D02*
X102957380Y-147683404D01*
X103957380Y-148016738D01*
X103909761Y-148302452D02*
X103957380Y-148445309D01*
X103957380Y-148683404D01*
X103909761Y-148778642D01*
X103862142Y-148826261D01*
X103766904Y-148873880D01*
X103671666Y-148873880D01*
X103576428Y-148826261D01*
X103528809Y-148778642D01*
X103481190Y-148683404D01*
X103433571Y-148492928D01*
X103385952Y-148397690D01*
X103338333Y-148350071D01*
X103243095Y-148302452D01*
X103147857Y-148302452D01*
X103052619Y-148350071D01*
X103005000Y-148397690D01*
X102957380Y-148492928D01*
X102957380Y-148731023D01*
X103005000Y-148873880D01*
X103862142Y-149873880D02*
X103909761Y-149826261D01*
X103957380Y-149683404D01*
X103957380Y-149588166D01*
X103909761Y-149445309D01*
X103814523Y-149350071D01*
X103719285Y-149302452D01*
X103528809Y-149254833D01*
X103385952Y-149254833D01*
X103195476Y-149302452D01*
X103100238Y-149350071D01*
X103005000Y-149445309D01*
X102957380Y-149588166D01*
X102957380Y-149683404D01*
X103005000Y-149826261D01*
X103052619Y-149873880D01*
X103957380Y-150302452D02*
X102957380Y-150302452D01*
X103957380Y-150778642D02*
X102957380Y-150778642D01*
X120890714Y-140447380D02*
X120890714Y-139780714D01*
X120890714Y-139447380D02*
X120928809Y-139495000D01*
X120890714Y-139542619D01*
X120852619Y-139495000D01*
X120890714Y-139447380D01*
X120890714Y-139542619D01*
X119900238Y-140447380D02*
X119900238Y-139780714D01*
X119900238Y-139875952D02*
X119862142Y-139828333D01*
X119785952Y-139780714D01*
X119671666Y-139780714D01*
X119595476Y-139828333D01*
X119557380Y-139923571D01*
X119557380Y-140447380D01*
X119557380Y-139923571D02*
X119519285Y-139828333D01*
X119443095Y-139780714D01*
X119328809Y-139780714D01*
X119252619Y-139828333D01*
X119214523Y-139923571D01*
X119214523Y-140447380D01*
X118490714Y-139780714D02*
X118490714Y-140447380D01*
X118833571Y-139780714D02*
X118833571Y-140304523D01*
X118795476Y-140399761D01*
X118719285Y-140447380D01*
X118605000Y-140447380D01*
X118528809Y-140399761D01*
X118490714Y-140352142D01*
X118147857Y-140399761D02*
X118071666Y-140447380D01*
X117919285Y-140447380D01*
X117843095Y-140399761D01*
X117805000Y-140304523D01*
X117805000Y-140256904D01*
X117843095Y-140161666D01*
X117919285Y-140114047D01*
X118033571Y-140114047D01*
X118109761Y-140066428D01*
X118147857Y-139971190D01*
X118147857Y-139923571D01*
X118109761Y-139828333D01*
X118033571Y-139780714D01*
X117919285Y-139780714D01*
X117843095Y-139828333D01*
X117576428Y-139780714D02*
X117271666Y-139780714D01*
X117462142Y-139447380D02*
X117462142Y-140304523D01*
X117424047Y-140399761D01*
X117347857Y-140447380D01*
X117271666Y-140447380D01*
X116395476Y-139780714D02*
X116395476Y-140447380D01*
X116395476Y-139875952D02*
X116357380Y-139828333D01*
X116281190Y-139780714D01*
X116166904Y-139780714D01*
X116090714Y-139828333D01*
X116052619Y-139923571D01*
X116052619Y-140447380D01*
X115557380Y-140447380D02*
X115633571Y-140399761D01*
X115671666Y-140352142D01*
X115709761Y-140256904D01*
X115709761Y-139971190D01*
X115671666Y-139875952D01*
X115633571Y-139828333D01*
X115557380Y-139780714D01*
X115443095Y-139780714D01*
X115366904Y-139828333D01*
X115328809Y-139875952D01*
X115290714Y-139971190D01*
X115290714Y-140256904D01*
X115328809Y-140352142D01*
X115366904Y-140399761D01*
X115443095Y-140447380D01*
X115557380Y-140447380D01*
X115062142Y-139780714D02*
X114757380Y-139780714D01*
X114947857Y-139447380D02*
X114947857Y-140304523D01*
X114909761Y-140399761D01*
X114833571Y-140447380D01*
X114757380Y-140447380D01*
X113995476Y-139780714D02*
X113690714Y-139780714D01*
X113881190Y-140447380D02*
X113881190Y-139590238D01*
X113843095Y-139495000D01*
X113766904Y-139447380D01*
X113690714Y-139447380D01*
X113119285Y-140399761D02*
X113195476Y-140447380D01*
X113347857Y-140447380D01*
X113424047Y-140399761D01*
X113462142Y-140304523D01*
X113462142Y-139923571D01*
X113424047Y-139828333D01*
X113347857Y-139780714D01*
X113195476Y-139780714D01*
X113119285Y-139828333D01*
X113081190Y-139923571D01*
X113081190Y-140018809D01*
X113462142Y-140114047D01*
X112395476Y-140447380D02*
X112395476Y-139923571D01*
X112433571Y-139828333D01*
X112509761Y-139780714D01*
X112662142Y-139780714D01*
X112738333Y-139828333D01*
X112395476Y-140399761D02*
X112471666Y-140447380D01*
X112662142Y-140447380D01*
X112738333Y-140399761D01*
X112776428Y-140304523D01*
X112776428Y-140209285D01*
X112738333Y-140114047D01*
X112662142Y-140066428D01*
X112471666Y-140066428D01*
X112395476Y-140018809D01*
X112014523Y-140447380D02*
X112014523Y-139780714D01*
X112014523Y-139971190D02*
X111976428Y-139875952D01*
X111938333Y-139828333D01*
X111862142Y-139780714D01*
X111785952Y-139780714D01*
X111519285Y-140352142D02*
X111481190Y-140399761D01*
X111519285Y-140447380D01*
X111557380Y-140399761D01*
X111519285Y-140352142D01*
X111519285Y-140447380D01*
X119366904Y-141390714D02*
X119062142Y-141390714D01*
X119252619Y-142057380D02*
X119252619Y-141200238D01*
X119214523Y-141105000D01*
X119138333Y-141057380D01*
X119062142Y-141057380D01*
X118490714Y-142009761D02*
X118566904Y-142057380D01*
X118719285Y-142057380D01*
X118795476Y-142009761D01*
X118833571Y-141914523D01*
X118833571Y-141533571D01*
X118795476Y-141438333D01*
X118719285Y-141390714D01*
X118566904Y-141390714D01*
X118490714Y-141438333D01*
X118452619Y-141533571D01*
X118452619Y-141628809D01*
X118833571Y-141724047D01*
X117766904Y-142057380D02*
X117766904Y-141533571D01*
X117805000Y-141438333D01*
X117881190Y-141390714D01*
X118033571Y-141390714D01*
X118109761Y-141438333D01*
X117766904Y-142009761D02*
X117843095Y-142057380D01*
X118033571Y-142057380D01*
X118109761Y-142009761D01*
X118147857Y-141914523D01*
X118147857Y-141819285D01*
X118109761Y-141724047D01*
X118033571Y-141676428D01*
X117843095Y-141676428D01*
X117766904Y-141628809D01*
X117385952Y-142057380D02*
X117385952Y-141390714D01*
X117385952Y-141581190D02*
X117347857Y-141485952D01*
X117309761Y-141438333D01*
X117233571Y-141390714D01*
X117157380Y-141390714D01*
X116281190Y-142057380D02*
X116281190Y-141390714D01*
X116281190Y-141057380D02*
X116319285Y-141105000D01*
X116281190Y-141152619D01*
X116243095Y-141105000D01*
X116281190Y-141057380D01*
X116281190Y-141152619D01*
X115938333Y-142009761D02*
X115862142Y-142057380D01*
X115709761Y-142057380D01*
X115633571Y-142009761D01*
X115595476Y-141914523D01*
X115595476Y-141866904D01*
X115633571Y-141771666D01*
X115709761Y-141724047D01*
X115824047Y-141724047D01*
X115900238Y-141676428D01*
X115938333Y-141581190D01*
X115938333Y-141533571D01*
X115900238Y-141438333D01*
X115824047Y-141390714D01*
X115709761Y-141390714D01*
X115633571Y-141438333D01*
X114757380Y-141390714D02*
X114452619Y-141390714D01*
X114643095Y-141057380D02*
X114643095Y-141914523D01*
X114605000Y-142009761D01*
X114528809Y-142057380D01*
X114452619Y-142057380D01*
X114185952Y-142057380D02*
X114185952Y-141057380D01*
X113843095Y-142057380D02*
X113843095Y-141533571D01*
X113881190Y-141438333D01*
X113957380Y-141390714D01*
X114071666Y-141390714D01*
X114147857Y-141438333D01*
X114185952Y-141485952D01*
X113157380Y-142009761D02*
X113233571Y-142057380D01*
X113385952Y-142057380D01*
X113462142Y-142009761D01*
X113500238Y-141914523D01*
X113500238Y-141533571D01*
X113462142Y-141438333D01*
X113385952Y-141390714D01*
X113233571Y-141390714D01*
X113157380Y-141438333D01*
X113119285Y-141533571D01*
X113119285Y-141628809D01*
X113500238Y-141724047D01*
X119481190Y-143667380D02*
X119481190Y-143000714D01*
X119481190Y-143095952D02*
X119443095Y-143048333D01*
X119366904Y-143000714D01*
X119252619Y-143000714D01*
X119176428Y-143048333D01*
X119138333Y-143143571D01*
X119138333Y-143667380D01*
X119138333Y-143143571D02*
X119100238Y-143048333D01*
X119024047Y-143000714D01*
X118909761Y-143000714D01*
X118833571Y-143048333D01*
X118795476Y-143143571D01*
X118795476Y-143667380D01*
X118414523Y-143667380D02*
X118414523Y-143000714D01*
X118414523Y-142667380D02*
X118452619Y-142715000D01*
X118414523Y-142762619D01*
X118376428Y-142715000D01*
X118414523Y-142667380D01*
X118414523Y-142762619D01*
X118033571Y-143000714D02*
X118033571Y-143667380D01*
X118033571Y-143095952D02*
X117995476Y-143048333D01*
X117919285Y-143000714D01*
X117805000Y-143000714D01*
X117728809Y-143048333D01*
X117690714Y-143143571D01*
X117690714Y-143667380D01*
X116966904Y-143667380D02*
X116966904Y-142667380D01*
X116966904Y-143619761D02*
X117043095Y-143667380D01*
X117195476Y-143667380D01*
X117271666Y-143619761D01*
X117309761Y-143572142D01*
X117347857Y-143476904D01*
X117347857Y-143191190D01*
X117309761Y-143095952D01*
X117271666Y-143048333D01*
X117195476Y-143000714D01*
X117043095Y-143000714D01*
X116966904Y-143048333D01*
X116585952Y-143286428D02*
X115976428Y-143286428D01*
X115595476Y-143667380D02*
X115595476Y-142667380D01*
X115519285Y-143286428D02*
X115290714Y-143667380D01*
X115290714Y-143000714D02*
X115595476Y-143381666D01*
X114947857Y-143667380D02*
X114947857Y-143000714D01*
X114947857Y-142667380D02*
X114985952Y-142715000D01*
X114947857Y-142762619D01*
X114909761Y-142715000D01*
X114947857Y-142667380D01*
X114947857Y-142762619D01*
X114452619Y-143667380D02*
X114528809Y-143619761D01*
X114566904Y-143524523D01*
X114566904Y-142667380D01*
X114033571Y-143667380D02*
X114109761Y-143619761D01*
X114147857Y-143524523D01*
X114147857Y-142667380D01*
X113424047Y-143619761D02*
X113500238Y-143667380D01*
X113652619Y-143667380D01*
X113728809Y-143619761D01*
X113766904Y-143524523D01*
X113766904Y-143143571D01*
X113728809Y-143048333D01*
X113652619Y-143000714D01*
X113500238Y-143000714D01*
X113424047Y-143048333D01*
X113385952Y-143143571D01*
X113385952Y-143238809D01*
X113766904Y-143334047D01*
X113043095Y-143667380D02*
X113043095Y-143000714D01*
X113043095Y-143191190D02*
X113005000Y-143095952D01*
X112966904Y-143048333D01*
X112890714Y-143000714D01*
X112814523Y-143000714D01*
X125547380Y-109275714D02*
X124547380Y-109275714D01*
X124547380Y-109513809D01*
X124595000Y-109656666D01*
X124690238Y-109751904D01*
X124785476Y-109799523D01*
X124975952Y-109847142D01*
X125118809Y-109847142D01*
X125309285Y-109799523D01*
X125404523Y-109751904D01*
X125499761Y-109656666D01*
X125547380Y-109513809D01*
X125547380Y-109275714D01*
X125547380Y-110799523D02*
X125547380Y-110228095D01*
X125547380Y-110513809D02*
X124547380Y-110513809D01*
X124690238Y-110418571D01*
X124785476Y-110323333D01*
X124833095Y-110228095D01*
X124642619Y-111180476D02*
X124595000Y-111228095D01*
X124547380Y-111323333D01*
X124547380Y-111561428D01*
X124595000Y-111656666D01*
X124642619Y-111704285D01*
X124737857Y-111751904D01*
X124833095Y-111751904D01*
X124975952Y-111704285D01*
X125547380Y-111132857D01*
X125547380Y-111751904D01*
%TO.C,C7*%
X122975714Y-148486904D02*
X123642380Y-148486904D01*
X122594761Y-148248809D02*
X123309047Y-148010714D01*
X123309047Y-148629761D01*
X122975714Y-149439285D02*
X123642380Y-149439285D01*
X122975714Y-149010714D02*
X123499523Y-149010714D01*
X123594761Y-149058333D01*
X123642380Y-149153571D01*
X123642380Y-149296428D01*
X123594761Y-149391666D01*
X123547142Y-149439285D01*
X122642380Y-149820238D02*
X122642380Y-150486904D01*
X123642380Y-150058333D01*
%TO.C,D7*%
X120975380Y-90813333D02*
X120975380Y-90241904D01*
X120975380Y-90527619D02*
X119975380Y-90527619D01*
X120118238Y-90432380D01*
X120213476Y-90337142D01*
X120261095Y-90241904D01*
X120975380Y-91241904D02*
X119975380Y-91241904D01*
X120975380Y-91813333D01*
X119975380Y-91813333D01*
X119975380Y-92765714D02*
X119975380Y-92289523D01*
X120451571Y-92241904D01*
X120403952Y-92289523D01*
X120356333Y-92384761D01*
X120356333Y-92622857D01*
X120403952Y-92718095D01*
X120451571Y-92765714D01*
X120546809Y-92813333D01*
X120784904Y-92813333D01*
X120880142Y-92765714D01*
X120927761Y-92718095D01*
X120975380Y-92622857D01*
X120975380Y-92384761D01*
X120927761Y-92289523D01*
X120880142Y-92241904D01*
X119975380Y-93146666D02*
X119975380Y-93813333D01*
X120975380Y-93384761D01*
X120975380Y-94718095D02*
X120975380Y-94146666D01*
X120975380Y-94432380D02*
X119975380Y-94432380D01*
X120118238Y-94337142D01*
X120213476Y-94241904D01*
X120261095Y-94146666D01*
X120975380Y-95670476D02*
X120975380Y-95099047D01*
X120975380Y-95384761D02*
X119975380Y-95384761D01*
X120118238Y-95289523D01*
X120213476Y-95194285D01*
X120261095Y-95099047D01*
X119975380Y-96099047D02*
X120784904Y-96099047D01*
X120880142Y-96146666D01*
X120927761Y-96194285D01*
X120975380Y-96289523D01*
X120975380Y-96480000D01*
X120927761Y-96575238D01*
X120880142Y-96622857D01*
X120784904Y-96670476D01*
X119975380Y-96670476D01*
X120975380Y-97718095D02*
X120499190Y-97384761D01*
X120975380Y-97146666D02*
X119975380Y-97146666D01*
X119975380Y-97527619D01*
X120023000Y-97622857D01*
X120070619Y-97670476D01*
X120165857Y-97718095D01*
X120308714Y-97718095D01*
X120403952Y-97670476D01*
X120451571Y-97622857D01*
X120499190Y-97527619D01*
X120499190Y-97146666D01*
%TO.C,R11*%
X114469483Y-64587380D02*
X115040912Y-64587380D01*
X114755197Y-64587380D02*
X114755197Y-63587380D01*
X114850436Y-63730238D01*
X114945674Y-63825476D01*
X115040912Y-63873095D01*
X114040912Y-64587380D02*
X114040912Y-63587380D01*
X113945674Y-64206428D02*
X113659959Y-64587380D01*
X113659959Y-63920714D02*
X114040912Y-64301666D01*
%TO.C,R13*%
X112847380Y-105835635D02*
X112847380Y-105264206D01*
X112847380Y-105549921D02*
X111847380Y-105549921D01*
X111990238Y-105454683D01*
X112085476Y-105359444D01*
X112133095Y-105264206D01*
X111847380Y-106454683D02*
X111847380Y-106549921D01*
X111895000Y-106645159D01*
X111942619Y-106692778D01*
X112037857Y-106740397D01*
X112228333Y-106788016D01*
X112466428Y-106788016D01*
X112656904Y-106740397D01*
X112752142Y-106692778D01*
X112799761Y-106645159D01*
X112847380Y-106549921D01*
X112847380Y-106454683D01*
X112799761Y-106359444D01*
X112752142Y-106311825D01*
X112656904Y-106264206D01*
X112466428Y-106216587D01*
X112228333Y-106216587D01*
X112037857Y-106264206D01*
X111942619Y-106311825D01*
X111895000Y-106359444D01*
X111847380Y-106454683D01*
X111847380Y-107407064D02*
X111847380Y-107502302D01*
X111895000Y-107597540D01*
X111942619Y-107645159D01*
X112037857Y-107692778D01*
X112228333Y-107740397D01*
X112466428Y-107740397D01*
X112656904Y-107692778D01*
X112752142Y-107645159D01*
X112799761Y-107597540D01*
X112847380Y-107502302D01*
X112847380Y-107407064D01*
X112799761Y-107311825D01*
X112752142Y-107264206D01*
X112656904Y-107216587D01*
X112466428Y-107168968D01*
X112228333Y-107168968D01*
X112037857Y-107216587D01*
X111942619Y-107264206D01*
X111895000Y-107311825D01*
X111847380Y-107407064D01*
X112847380Y-108168968D02*
X111847380Y-108168968D01*
X112466428Y-108264206D02*
X112847380Y-108549921D01*
X112180714Y-108549921D02*
X112561666Y-108168968D01*
%TO.C,C10*%
X113847619Y-96033333D02*
X113847619Y-96433333D01*
X113847619Y-96233333D02*
X114847619Y-96233333D01*
X114704761Y-96300000D01*
X114609523Y-96366666D01*
X114561904Y-96433333D01*
X114847619Y-95600000D02*
X114847619Y-95533333D01*
X114800000Y-95466666D01*
X114752380Y-95433333D01*
X114657142Y-95400000D01*
X114466666Y-95366666D01*
X114228571Y-95366666D01*
X114038095Y-95400000D01*
X113942857Y-95433333D01*
X113895238Y-95466666D01*
X113847619Y-95533333D01*
X113847619Y-95600000D01*
X113895238Y-95666666D01*
X113942857Y-95700000D01*
X114038095Y-95733333D01*
X114228571Y-95766666D01*
X114466666Y-95766666D01*
X114657142Y-95733333D01*
X114752380Y-95700000D01*
X114800000Y-95666666D01*
X114847619Y-95600000D01*
X114847619Y-94933333D02*
X114847619Y-94866666D01*
X114800000Y-94800000D01*
X114752380Y-94766666D01*
X114657142Y-94733333D01*
X114466666Y-94700000D01*
X114228571Y-94700000D01*
X114038095Y-94733333D01*
X113942857Y-94766666D01*
X113895238Y-94800000D01*
X113847619Y-94866666D01*
X113847619Y-94933333D01*
X113895238Y-95000000D01*
X113942857Y-95033333D01*
X114038095Y-95066666D01*
X114228571Y-95100000D01*
X114466666Y-95100000D01*
X114657142Y-95066666D01*
X114752380Y-95033333D01*
X114800000Y-95000000D01*
X114847619Y-94933333D01*
X114514285Y-94400000D02*
X113514285Y-94400000D01*
X114466666Y-94400000D02*
X114514285Y-94333333D01*
X114514285Y-94200000D01*
X114466666Y-94133333D01*
X114419047Y-94100000D01*
X114323809Y-94066666D01*
X114038095Y-94066666D01*
X113942857Y-94100000D01*
X113895238Y-94133333D01*
X113847619Y-94200000D01*
X113847619Y-94333333D01*
X113895238Y-94400000D01*
%TO.C,C1*%
X97956666Y-79097142D02*
X98004285Y-79144761D01*
X98147142Y-79192380D01*
X98242380Y-79192380D01*
X98385238Y-79144761D01*
X98480476Y-79049523D01*
X98528095Y-78954285D01*
X98575714Y-78763809D01*
X98575714Y-78620952D01*
X98528095Y-78430476D01*
X98480476Y-78335238D01*
X98385238Y-78240000D01*
X98242380Y-78192380D01*
X98147142Y-78192380D01*
X98004285Y-78240000D01*
X97956666Y-78287619D01*
X97004285Y-79192380D02*
X97575714Y-79192380D01*
X97290000Y-79192380D02*
X97290000Y-78192380D01*
X97385238Y-78335238D01*
X97480476Y-78430476D01*
X97575714Y-78478095D01*
X99067857Y-86177380D02*
X99639285Y-86177380D01*
X99353571Y-86177380D02*
X99353571Y-85177380D01*
X99448809Y-85320238D01*
X99544047Y-85415476D01*
X99639285Y-85463095D01*
X98448809Y-85177380D02*
X98353571Y-85177380D01*
X98258333Y-85225000D01*
X98210714Y-85272619D01*
X98163095Y-85367857D01*
X98115476Y-85558333D01*
X98115476Y-85796428D01*
X98163095Y-85986904D01*
X98210714Y-86082142D01*
X98258333Y-86129761D01*
X98353571Y-86177380D01*
X98448809Y-86177380D01*
X98544047Y-86129761D01*
X98591666Y-86082142D01*
X98639285Y-85986904D01*
X98686904Y-85796428D01*
X98686904Y-85558333D01*
X98639285Y-85367857D01*
X98591666Y-85272619D01*
X98544047Y-85225000D01*
X98448809Y-85177380D01*
X97258333Y-85510714D02*
X97258333Y-86177380D01*
X97686904Y-85510714D02*
X97686904Y-86034523D01*
X97639285Y-86129761D01*
X97544047Y-86177380D01*
X97401190Y-86177380D01*
X97305952Y-86129761D01*
X97258333Y-86082142D01*
%TO.C,R1*%
X121689666Y-112434714D02*
X121689666Y-113101380D01*
X121927761Y-112053761D02*
X122165857Y-112768047D01*
X121546809Y-112768047D01*
X121118238Y-113101380D02*
X120927761Y-113101380D01*
X120832523Y-113053761D01*
X120784904Y-113006142D01*
X120689666Y-112863285D01*
X120642047Y-112672809D01*
X120642047Y-112291857D01*
X120689666Y-112196619D01*
X120737285Y-112149000D01*
X120832523Y-112101380D01*
X121023000Y-112101380D01*
X121118238Y-112149000D01*
X121165857Y-112196619D01*
X121213476Y-112291857D01*
X121213476Y-112529952D01*
X121165857Y-112625190D01*
X121118238Y-112672809D01*
X121023000Y-112720428D01*
X120832523Y-112720428D01*
X120737285Y-112672809D01*
X120689666Y-112625190D01*
X120642047Y-112529952D01*
X120165857Y-113101380D02*
X119975380Y-113101380D01*
X119880142Y-113053761D01*
X119832523Y-113006142D01*
X119737285Y-112863285D01*
X119689666Y-112672809D01*
X119689666Y-112291857D01*
X119737285Y-112196619D01*
X119784904Y-112149000D01*
X119880142Y-112101380D01*
X120070619Y-112101380D01*
X120165857Y-112149000D01*
X120213476Y-112196619D01*
X120261095Y-112291857D01*
X120261095Y-112529952D01*
X120213476Y-112625190D01*
X120165857Y-112672809D01*
X120070619Y-112720428D01*
X119880142Y-112720428D01*
X119784904Y-112672809D01*
X119737285Y-112625190D01*
X119689666Y-112529952D01*
X119261095Y-113101380D02*
X119261095Y-112101380D01*
X119165857Y-112720428D02*
X118880142Y-113101380D01*
X118880142Y-112434714D02*
X119261095Y-112815666D01*
%TO.C,R21*%
X107386380Y-134627952D02*
X107386380Y-134056523D01*
X107386380Y-134342238D02*
X106386380Y-134342238D01*
X106529238Y-134247000D01*
X106624476Y-134151761D01*
X106672095Y-134056523D01*
X107386380Y-135056523D02*
X106386380Y-135056523D01*
X107005428Y-135151761D02*
X107386380Y-135437476D01*
X106719714Y-135437476D02*
X107100666Y-135056523D01*
%TO.C,RV1*%
X114133238Y-119070380D02*
X114466571Y-118594190D01*
X114704666Y-119070380D02*
X114704666Y-118070380D01*
X114323714Y-118070380D01*
X114228476Y-118118000D01*
X114180857Y-118165619D01*
X114133238Y-118260857D01*
X114133238Y-118403714D01*
X114180857Y-118498952D01*
X114228476Y-118546571D01*
X114323714Y-118594190D01*
X114704666Y-118594190D01*
X113847523Y-118070380D02*
X113514190Y-119070380D01*
X113180857Y-118070380D01*
X112323714Y-119070380D02*
X112895142Y-119070380D01*
X112609428Y-119070380D02*
X112609428Y-118070380D01*
X112704666Y-118213238D01*
X112799904Y-118308476D01*
X112895142Y-118356095D01*
X114625380Y-120340571D02*
X114625380Y-119769142D01*
X114625380Y-120054857D02*
X113625380Y-120054857D01*
X113768238Y-119959619D01*
X113863476Y-119864380D01*
X113911095Y-119769142D01*
X113625380Y-120959619D02*
X113625380Y-121054857D01*
X113673000Y-121150095D01*
X113720619Y-121197714D01*
X113815857Y-121245333D01*
X114006333Y-121292952D01*
X114244428Y-121292952D01*
X114434904Y-121245333D01*
X114530142Y-121197714D01*
X114577761Y-121150095D01*
X114625380Y-121054857D01*
X114625380Y-120959619D01*
X114577761Y-120864380D01*
X114530142Y-120816761D01*
X114434904Y-120769142D01*
X114244428Y-120721523D01*
X114006333Y-120721523D01*
X113815857Y-120769142D01*
X113720619Y-120816761D01*
X113673000Y-120864380D01*
X113625380Y-120959619D01*
X113625380Y-121912000D02*
X113625380Y-122007238D01*
X113673000Y-122102476D01*
X113720619Y-122150095D01*
X113815857Y-122197714D01*
X114006333Y-122245333D01*
X114244428Y-122245333D01*
X114434904Y-122197714D01*
X114530142Y-122150095D01*
X114577761Y-122102476D01*
X114625380Y-122007238D01*
X114625380Y-121912000D01*
X114577761Y-121816761D01*
X114530142Y-121769142D01*
X114434904Y-121721523D01*
X114244428Y-121673904D01*
X114006333Y-121673904D01*
X113815857Y-121721523D01*
X113720619Y-121769142D01*
X113673000Y-121816761D01*
X113625380Y-121912000D01*
X114625380Y-122673904D02*
X113625380Y-122673904D01*
X114244428Y-122769142D02*
X114625380Y-123054857D01*
X113958714Y-123054857D02*
X114339666Y-122673904D01*
%TO.C,C9*%
X113212619Y-102719047D02*
X113212619Y-103290476D01*
X113212619Y-103004761D02*
X114212619Y-103004761D01*
X114069761Y-103099999D01*
X113974523Y-103195238D01*
X113926904Y-103290476D01*
X114212619Y-102099999D02*
X114212619Y-102004761D01*
X114165000Y-101909523D01*
X114117380Y-101861904D01*
X114022142Y-101814285D01*
X113831666Y-101766666D01*
X113593571Y-101766666D01*
X113403095Y-101814285D01*
X113307857Y-101861904D01*
X113260238Y-101909523D01*
X113212619Y-102004761D01*
X113212619Y-102099999D01*
X113260238Y-102195238D01*
X113307857Y-102242857D01*
X113403095Y-102290476D01*
X113593571Y-102338095D01*
X113831666Y-102338095D01*
X114022142Y-102290476D01*
X114117380Y-102242857D01*
X114165000Y-102195238D01*
X114212619Y-102099999D01*
X114212619Y-101147619D02*
X114212619Y-101052380D01*
X114165000Y-100957142D01*
X114117380Y-100909523D01*
X114022142Y-100861904D01*
X113831666Y-100814285D01*
X113593571Y-100814285D01*
X113403095Y-100861904D01*
X113307857Y-100909523D01*
X113260238Y-100957142D01*
X113212619Y-101052380D01*
X113212619Y-101147619D01*
X113260238Y-101242857D01*
X113307857Y-101290476D01*
X113403095Y-101338095D01*
X113593571Y-101385714D01*
X113831666Y-101385714D01*
X114022142Y-101338095D01*
X114117380Y-101290476D01*
X114165000Y-101242857D01*
X114212619Y-101147619D01*
X113879285Y-100385714D02*
X112879285Y-100385714D01*
X113831666Y-100385714D02*
X113879285Y-100290476D01*
X113879285Y-100099999D01*
X113831666Y-100004761D01*
X113784047Y-99957142D01*
X113688809Y-99909523D01*
X113403095Y-99909523D01*
X113307857Y-99957142D01*
X113260238Y-100004761D01*
X113212619Y-100099999D01*
X113212619Y-100290476D01*
X113260238Y-100385714D01*
%TO.C,R9*%
X118864047Y-64587380D02*
X119435476Y-64587380D01*
X119149761Y-64587380D02*
X119149761Y-63587380D01*
X119245000Y-63730238D01*
X119340238Y-63825476D01*
X119435476Y-63873095D01*
X118435476Y-64587380D02*
X118435476Y-63587380D01*
X118340238Y-64206428D02*
X118054523Y-64587380D01*
X118054523Y-63920714D02*
X118435476Y-64301666D01*
%TO.C,C12*%
X112577619Y-98573333D02*
X112577619Y-98973333D01*
X112577619Y-98773333D02*
X113577619Y-98773333D01*
X113434761Y-98840000D01*
X113339523Y-98906666D01*
X113291904Y-98973333D01*
X113577619Y-98140000D02*
X113577619Y-98073333D01*
X113530000Y-98006666D01*
X113482380Y-97973333D01*
X113387142Y-97940000D01*
X113196666Y-97906666D01*
X112958571Y-97906666D01*
X112768095Y-97940000D01*
X112672857Y-97973333D01*
X112625238Y-98006666D01*
X112577619Y-98073333D01*
X112577619Y-98140000D01*
X112625238Y-98206666D01*
X112672857Y-98240000D01*
X112768095Y-98273333D01*
X112958571Y-98306666D01*
X113196666Y-98306666D01*
X113387142Y-98273333D01*
X113482380Y-98240000D01*
X113530000Y-98206666D01*
X113577619Y-98140000D01*
X113577619Y-97473333D02*
X113577619Y-97406666D01*
X113530000Y-97340000D01*
X113482380Y-97306666D01*
X113387142Y-97273333D01*
X113196666Y-97240000D01*
X112958571Y-97240000D01*
X112768095Y-97273333D01*
X112672857Y-97306666D01*
X112625238Y-97340000D01*
X112577619Y-97406666D01*
X112577619Y-97473333D01*
X112625238Y-97540000D01*
X112672857Y-97573333D01*
X112768095Y-97606666D01*
X112958571Y-97640000D01*
X113196666Y-97640000D01*
X113387142Y-97606666D01*
X113482380Y-97573333D01*
X113530000Y-97540000D01*
X113577619Y-97473333D01*
X113244285Y-96940000D02*
X112577619Y-96940000D01*
X113149047Y-96940000D02*
X113196666Y-96906666D01*
X113244285Y-96840000D01*
X113244285Y-96740000D01*
X113196666Y-96673333D01*
X113101428Y-96640000D01*
X112577619Y-96640000D01*
%TO.C,R4*%
X108624714Y-128087523D02*
X109291380Y-128087523D01*
X108243761Y-127849428D02*
X108958047Y-127611333D01*
X108958047Y-128230380D01*
X108291380Y-128516095D02*
X108291380Y-129182761D01*
X109291380Y-128754190D01*
X109291380Y-129563714D02*
X108291380Y-129563714D01*
X108910428Y-129658952D02*
X109291380Y-129944666D01*
X108624714Y-129944666D02*
X109005666Y-129563714D01*
%TO.C,A1*%
X115639285Y-70016666D02*
X115163095Y-70016666D01*
X115734523Y-70302380D02*
X115401190Y-69302380D01*
X115067857Y-70302380D01*
X114210714Y-70302380D02*
X114782142Y-70302380D01*
X114496428Y-70302380D02*
X114496428Y-69302380D01*
X114591666Y-69445238D01*
X114686904Y-69540476D01*
X114782142Y-69588095D01*
%TO.C,R12*%
X116641428Y-76652380D02*
X117212857Y-76652380D01*
X116927142Y-76652380D02*
X116927142Y-75652380D01*
X117022380Y-75795238D01*
X117117619Y-75890476D01*
X117212857Y-75938095D01*
X116022380Y-75652380D02*
X115927142Y-75652380D01*
X115831904Y-75700000D01*
X115784285Y-75747619D01*
X115736666Y-75842857D01*
X115689047Y-76033333D01*
X115689047Y-76271428D01*
X115736666Y-76461904D01*
X115784285Y-76557142D01*
X115831904Y-76604761D01*
X115927142Y-76652380D01*
X116022380Y-76652380D01*
X116117619Y-76604761D01*
X116165238Y-76557142D01*
X116212857Y-76461904D01*
X116260476Y-76271428D01*
X116260476Y-76033333D01*
X116212857Y-75842857D01*
X116165238Y-75747619D01*
X116117619Y-75700000D01*
X116022380Y-75652380D01*
X115070000Y-75652380D02*
X114974761Y-75652380D01*
X114879523Y-75700000D01*
X114831904Y-75747619D01*
X114784285Y-75842857D01*
X114736666Y-76033333D01*
X114736666Y-76271428D01*
X114784285Y-76461904D01*
X114831904Y-76557142D01*
X114879523Y-76604761D01*
X114974761Y-76652380D01*
X115070000Y-76652380D01*
X115165238Y-76604761D01*
X115212857Y-76557142D01*
X115260476Y-76461904D01*
X115308095Y-76271428D01*
X115308095Y-76033333D01*
X115260476Y-75842857D01*
X115212857Y-75747619D01*
X115165238Y-75700000D01*
X115070000Y-75652380D01*
X114308095Y-76652380D02*
X114308095Y-75652380D01*
X114212857Y-76271428D02*
X113927142Y-76652380D01*
X113927142Y-75985714D02*
X114308095Y-76366666D01*
%TO.C,R17*%
X123515380Y-126372952D02*
X123515380Y-125801523D01*
X123515380Y-126087238D02*
X122515380Y-126087238D01*
X122658238Y-125992000D01*
X122753476Y-125896761D01*
X122801095Y-125801523D01*
X123515380Y-126801523D02*
X122515380Y-126801523D01*
X123134428Y-126896761D02*
X123515380Y-127182476D01*
X122848714Y-127182476D02*
X123229666Y-126801523D01*
%TO.C,R2*%
X124292380Y-113720714D02*
X124292380Y-114339761D01*
X124673333Y-114006428D01*
X124673333Y-114149285D01*
X124720952Y-114244523D01*
X124768571Y-114292142D01*
X124863809Y-114339761D01*
X125101904Y-114339761D01*
X125197142Y-114292142D01*
X125244761Y-114244523D01*
X125292380Y-114149285D01*
X125292380Y-113863571D01*
X125244761Y-113768333D01*
X125197142Y-113720714D01*
X125292380Y-114768333D02*
X124292380Y-114768333D01*
X124911428Y-114863571D02*
X125292380Y-115149285D01*
X124625714Y-115149285D02*
X125006666Y-114768333D01*
X125292380Y-115625476D02*
X125292380Y-115815952D01*
X125244761Y-115911190D01*
X125197142Y-115958809D01*
X125054285Y-116054047D01*
X124863809Y-116101666D01*
X124482857Y-116101666D01*
X124387619Y-116054047D01*
X124340000Y-116006428D01*
X124292380Y-115911190D01*
X124292380Y-115720714D01*
X124340000Y-115625476D01*
X124387619Y-115577857D01*
X124482857Y-115530238D01*
X124720952Y-115530238D01*
X124816190Y-115577857D01*
X124863809Y-115625476D01*
X124911428Y-115720714D01*
X124911428Y-115911190D01*
X124863809Y-116006428D01*
X124816190Y-116054047D01*
X124720952Y-116101666D01*
%TO.C,R19*%
X124848857Y-136866380D02*
X125325047Y-136866380D01*
X125372666Y-137342571D01*
X125325047Y-137294952D01*
X125229809Y-137247333D01*
X124991714Y-137247333D01*
X124896476Y-137294952D01*
X124848857Y-137342571D01*
X124801238Y-137437809D01*
X124801238Y-137675904D01*
X124848857Y-137771142D01*
X124896476Y-137818761D01*
X124991714Y-137866380D01*
X125229809Y-137866380D01*
X125325047Y-137818761D01*
X125372666Y-137771142D01*
X124182190Y-136866380D02*
X124086952Y-136866380D01*
X123991714Y-136914000D01*
X123944095Y-136961619D01*
X123896476Y-137056857D01*
X123848857Y-137247333D01*
X123848857Y-137485428D01*
X123896476Y-137675904D01*
X123944095Y-137771142D01*
X123991714Y-137818761D01*
X124086952Y-137866380D01*
X124182190Y-137866380D01*
X124277428Y-137818761D01*
X124325047Y-137771142D01*
X124372666Y-137675904D01*
X124420285Y-137485428D01*
X124420285Y-137247333D01*
X124372666Y-137056857D01*
X124325047Y-136961619D01*
X124277428Y-136914000D01*
X124182190Y-136866380D01*
X123420285Y-137866380D02*
X123420285Y-136866380D01*
X123325047Y-137485428D02*
X123039333Y-137866380D01*
X123039333Y-137199714D02*
X123420285Y-137580666D01*
%TO.C,R16*%
X112065176Y-82637380D02*
X111508033Y-82637380D01*
X111808033Y-83018333D01*
X111679462Y-83018333D01*
X111593748Y-83065952D01*
X111550890Y-83113571D01*
X111508033Y-83208809D01*
X111508033Y-83446904D01*
X111550890Y-83542142D01*
X111593748Y-83589761D01*
X111679462Y-83637380D01*
X111936605Y-83637380D01*
X112022319Y-83589761D01*
X112065176Y-83542142D01*
X111208033Y-82637380D02*
X110650890Y-82637380D01*
X110950890Y-83018333D01*
X110822319Y-83018333D01*
X110736605Y-83065952D01*
X110693748Y-83113571D01*
X110650890Y-83208809D01*
X110650890Y-83446904D01*
X110693748Y-83542142D01*
X110736605Y-83589761D01*
X110822319Y-83637380D01*
X111079462Y-83637380D01*
X111165176Y-83589761D01*
X111208033Y-83542142D01*
X110093748Y-82637380D02*
X110008033Y-82637380D01*
X109922319Y-82685000D01*
X109879462Y-82732619D01*
X109836605Y-82827857D01*
X109793748Y-83018333D01*
X109793748Y-83256428D01*
X109836605Y-83446904D01*
X109879462Y-83542142D01*
X109922319Y-83589761D01*
X110008033Y-83637380D01*
X110093748Y-83637380D01*
X110179462Y-83589761D01*
X110222319Y-83542142D01*
X110265176Y-83446904D01*
X110308033Y-83256428D01*
X110308033Y-83018333D01*
X110265176Y-82827857D01*
X110222319Y-82732619D01*
X110179462Y-82685000D01*
X110093748Y-82637380D01*
X109408033Y-83637380D02*
X109408033Y-82637380D01*
X109322319Y-83256428D02*
X109065176Y-83637380D01*
X109065176Y-82970714D02*
X109408033Y-83351666D01*
%TO.C,J1*%
X102568333Y-85892380D02*
X102568333Y-86606666D01*
X102615952Y-86749523D01*
X102711190Y-86844761D01*
X102854047Y-86892380D01*
X102949285Y-86892380D01*
X101568333Y-86892380D02*
X102139761Y-86892380D01*
X101854047Y-86892380D02*
X101854047Y-85892380D01*
X101949285Y-86035238D01*
X102044523Y-86130476D01*
X102139761Y-86178095D01*
X103957380Y-89224047D02*
X102957380Y-89224047D01*
X102957380Y-89528809D01*
X103005000Y-89605000D01*
X103052619Y-89643095D01*
X103147857Y-89681190D01*
X103290714Y-89681190D01*
X103385952Y-89643095D01*
X103433571Y-89605000D01*
X103481190Y-89528809D01*
X103481190Y-89224047D01*
X103957380Y-90138333D02*
X103909761Y-90062142D01*
X103862142Y-90024047D01*
X103766904Y-89985952D01*
X103481190Y-89985952D01*
X103385952Y-90024047D01*
X103338333Y-90062142D01*
X103290714Y-90138333D01*
X103290714Y-90252619D01*
X103338333Y-90328809D01*
X103385952Y-90366904D01*
X103481190Y-90405000D01*
X103766904Y-90405000D01*
X103862142Y-90366904D01*
X103909761Y-90328809D01*
X103957380Y-90252619D01*
X103957380Y-90138333D01*
X103290714Y-90671666D02*
X103957380Y-90824047D01*
X103481190Y-90976428D01*
X103957380Y-91128809D01*
X103290714Y-91281190D01*
X103909761Y-91890714D02*
X103957380Y-91814523D01*
X103957380Y-91662142D01*
X103909761Y-91585952D01*
X103814523Y-91547857D01*
X103433571Y-91547857D01*
X103338333Y-91585952D01*
X103290714Y-91662142D01*
X103290714Y-91814523D01*
X103338333Y-91890714D01*
X103433571Y-91928809D01*
X103528809Y-91928809D01*
X103624047Y-91547857D01*
X103957380Y-92271666D02*
X103290714Y-92271666D01*
X103481190Y-92271666D02*
X103385952Y-92309761D01*
X103338333Y-92347857D01*
X103290714Y-92424047D01*
X103290714Y-92500238D01*
%TO.C,C3*%
X113831714Y-124356904D02*
X114498380Y-124356904D01*
X113450761Y-124118809D02*
X114165047Y-123880714D01*
X114165047Y-124499761D01*
X113831714Y-124880714D02*
X114498380Y-124880714D01*
X113926952Y-124880714D02*
X113879333Y-124928333D01*
X113831714Y-125023571D01*
X113831714Y-125166428D01*
X113879333Y-125261666D01*
X113974571Y-125309285D01*
X114498380Y-125309285D01*
X113498380Y-125690238D02*
X113498380Y-126356904D01*
X114498380Y-125928333D01*
%TO.C,R22*%
X113227380Y-149105952D02*
X113227380Y-148534523D01*
X113227380Y-148820238D02*
X112227380Y-148820238D01*
X112370238Y-148725000D01*
X112465476Y-148629761D01*
X112513095Y-148534523D01*
X113227380Y-149534523D02*
X112227380Y-149534523D01*
X112846428Y-149629761D02*
X113227380Y-149915476D01*
X112560714Y-149915476D02*
X112941666Y-149534523D01*
%TO.C,C15*%
X113212619Y-90019047D02*
X113212619Y-90590476D01*
X113212619Y-90304761D02*
X114212619Y-90304761D01*
X114069761Y-90399999D01*
X113974523Y-90495238D01*
X113926904Y-90590476D01*
X114212619Y-89399999D02*
X114212619Y-89304761D01*
X114165000Y-89209523D01*
X114117380Y-89161904D01*
X114022142Y-89114285D01*
X113831666Y-89066666D01*
X113593571Y-89066666D01*
X113403095Y-89114285D01*
X113307857Y-89161904D01*
X113260238Y-89209523D01*
X113212619Y-89304761D01*
X113212619Y-89399999D01*
X113260238Y-89495238D01*
X113307857Y-89542857D01*
X113403095Y-89590476D01*
X113593571Y-89638095D01*
X113831666Y-89638095D01*
X114022142Y-89590476D01*
X114117380Y-89542857D01*
X114165000Y-89495238D01*
X114212619Y-89399999D01*
X114212619Y-88447619D02*
X114212619Y-88352380D01*
X114165000Y-88257142D01*
X114117380Y-88209523D01*
X114022142Y-88161904D01*
X113831666Y-88114285D01*
X113593571Y-88114285D01*
X113403095Y-88161904D01*
X113307857Y-88209523D01*
X113260238Y-88257142D01*
X113212619Y-88352380D01*
X113212619Y-88447619D01*
X113260238Y-88542857D01*
X113307857Y-88590476D01*
X113403095Y-88638095D01*
X113593571Y-88685714D01*
X113831666Y-88685714D01*
X114022142Y-88638095D01*
X114117380Y-88590476D01*
X114165000Y-88542857D01*
X114212619Y-88447619D01*
X113879285Y-87685714D02*
X113212619Y-87685714D01*
X113784047Y-87685714D02*
X113831666Y-87638095D01*
X113879285Y-87542857D01*
X113879285Y-87399999D01*
X113831666Y-87304761D01*
X113736428Y-87257142D01*
X113212619Y-87257142D01*
%TO.C,R20*%
X101084047Y-134818380D02*
X101655476Y-134818380D01*
X101369761Y-134818380D02*
X101369761Y-133818380D01*
X101465000Y-133961238D01*
X101560238Y-134056476D01*
X101655476Y-134104095D01*
X100655476Y-134818380D02*
X100655476Y-133818380D01*
X100560238Y-134437428D02*
X100274523Y-134818380D01*
X100274523Y-134151714D02*
X100655476Y-134532666D01*
%TO.C,U1*%
X118451047Y-135977380D02*
X117879619Y-135977380D01*
X118165333Y-136977380D02*
X118165333Y-135977380D01*
X117070095Y-136977380D02*
X117546285Y-136977380D01*
X117546285Y-135977380D01*
X116546285Y-135977380D02*
X116451047Y-135977380D01*
X116355809Y-136025000D01*
X116308190Y-136072619D01*
X116260571Y-136167857D01*
X116212952Y-136358333D01*
X116212952Y-136596428D01*
X116260571Y-136786904D01*
X116308190Y-136882142D01*
X116355809Y-136929761D01*
X116451047Y-136977380D01*
X116546285Y-136977380D01*
X116641523Y-136929761D01*
X116689142Y-136882142D01*
X116736761Y-136786904D01*
X116784380Y-136596428D01*
X116784380Y-136358333D01*
X116736761Y-136167857D01*
X116689142Y-136072619D01*
X116641523Y-136025000D01*
X116546285Y-135977380D01*
X115879619Y-135977380D02*
X115212952Y-135977380D01*
X115641523Y-136977380D01*
X114879619Y-136072619D02*
X114832000Y-136025000D01*
X114736761Y-135977380D01*
X114498666Y-135977380D01*
X114403428Y-136025000D01*
X114355809Y-136072619D01*
X114308190Y-136167857D01*
X114308190Y-136263095D01*
X114355809Y-136405952D01*
X114927238Y-136977380D01*
X114308190Y-136977380D01*
%TO.C,C6*%
X109164380Y-134770952D02*
X109164380Y-134199523D01*
X109164380Y-134485238D02*
X108164380Y-134485238D01*
X108307238Y-134390000D01*
X108402476Y-134294761D01*
X108450095Y-134199523D01*
X108164380Y-135390000D02*
X108164380Y-135485238D01*
X108212000Y-135580476D01*
X108259619Y-135628095D01*
X108354857Y-135675714D01*
X108545333Y-135723333D01*
X108783428Y-135723333D01*
X108973904Y-135675714D01*
X109069142Y-135628095D01*
X109116761Y-135580476D01*
X109164380Y-135485238D01*
X109164380Y-135390000D01*
X109116761Y-135294761D01*
X109069142Y-135247142D01*
X108973904Y-135199523D01*
X108783428Y-135151904D01*
X108545333Y-135151904D01*
X108354857Y-135199523D01*
X108259619Y-135247142D01*
X108212000Y-135294761D01*
X108164380Y-135390000D01*
X108164380Y-136342380D02*
X108164380Y-136437619D01*
X108212000Y-136532857D01*
X108259619Y-136580476D01*
X108354857Y-136628095D01*
X108545333Y-136675714D01*
X108783428Y-136675714D01*
X108973904Y-136628095D01*
X109069142Y-136580476D01*
X109116761Y-136532857D01*
X109164380Y-136437619D01*
X109164380Y-136342380D01*
X109116761Y-136247142D01*
X109069142Y-136199523D01*
X108973904Y-136151904D01*
X108783428Y-136104285D01*
X108545333Y-136104285D01*
X108354857Y-136151904D01*
X108259619Y-136199523D01*
X108212000Y-136247142D01*
X108164380Y-136342380D01*
X108497714Y-137104285D02*
X109164380Y-137104285D01*
X108592952Y-137104285D02*
X108545333Y-137151904D01*
X108497714Y-137247142D01*
X108497714Y-137390000D01*
X108545333Y-137485238D01*
X108640571Y-137532857D01*
X109164380Y-137532857D01*
%TO.C,R8*%
X118292619Y-145446904D02*
X118245000Y-145494523D01*
X118197380Y-145589761D01*
X118197380Y-145827857D01*
X118245000Y-145923095D01*
X118292619Y-145970714D01*
X118387857Y-146018333D01*
X118483095Y-146018333D01*
X118625952Y-145970714D01*
X119197380Y-145399285D01*
X119197380Y-146018333D01*
X118292619Y-146399285D02*
X118245000Y-146446904D01*
X118197380Y-146542142D01*
X118197380Y-146780238D01*
X118245000Y-146875476D01*
X118292619Y-146923095D01*
X118387857Y-146970714D01*
X118483095Y-146970714D01*
X118625952Y-146923095D01*
X119197380Y-146351666D01*
X119197380Y-146970714D01*
X118197380Y-147589761D02*
X118197380Y-147685000D01*
X118245000Y-147780238D01*
X118292619Y-147827857D01*
X118387857Y-147875476D01*
X118578333Y-147923095D01*
X118816428Y-147923095D01*
X119006904Y-147875476D01*
X119102142Y-147827857D01*
X119149761Y-147780238D01*
X119197380Y-147685000D01*
X119197380Y-147589761D01*
X119149761Y-147494523D01*
X119102142Y-147446904D01*
X119006904Y-147399285D01*
X118816428Y-147351666D01*
X118578333Y-147351666D01*
X118387857Y-147399285D01*
X118292619Y-147446904D01*
X118245000Y-147494523D01*
X118197380Y-147589761D01*
%TO.C,R5*%
X116324047Y-109937380D02*
X116895476Y-109937380D01*
X116609761Y-109937380D02*
X116609761Y-108937380D01*
X116705000Y-109080238D01*
X116800238Y-109175476D01*
X116895476Y-109223095D01*
X115895476Y-109937380D02*
X115895476Y-108937380D01*
X115800238Y-109556428D02*
X115514523Y-109937380D01*
X115514523Y-109270714D02*
X115895476Y-109651666D01*
%TO.C,C5*%
X121927857Y-135154142D02*
X122499285Y-135154142D01*
X122213571Y-135154142D02*
X122213571Y-134254142D01*
X122308809Y-134382714D01*
X122404047Y-134468428D01*
X122499285Y-134511285D01*
X121308809Y-134254142D02*
X121213571Y-134254142D01*
X121118333Y-134297000D01*
X121070714Y-134339857D01*
X121023095Y-134425571D01*
X120975476Y-134597000D01*
X120975476Y-134811285D01*
X121023095Y-134982714D01*
X121070714Y-135068428D01*
X121118333Y-135111285D01*
X121213571Y-135154142D01*
X121308809Y-135154142D01*
X121404047Y-135111285D01*
X121451666Y-135068428D01*
X121499285Y-134982714D01*
X121546904Y-134811285D01*
X121546904Y-134597000D01*
X121499285Y-134425571D01*
X121451666Y-134339857D01*
X121404047Y-134297000D01*
X121308809Y-134254142D01*
X120546904Y-134554142D02*
X120546904Y-135154142D01*
X120546904Y-134639857D02*
X120499285Y-134597000D01*
X120404047Y-134554142D01*
X120261190Y-134554142D01*
X120165952Y-134597000D01*
X120118333Y-134682714D01*
X120118333Y-135154142D01*
%TO.C,C4*%
X122404047Y-130028904D02*
X122975476Y-130028904D01*
X122689761Y-130028904D02*
X122689761Y-129228904D01*
X122784999Y-129343190D01*
X122880238Y-129419380D01*
X122975476Y-129457476D01*
X121784999Y-129228904D02*
X121689761Y-129228904D01*
X121594523Y-129267000D01*
X121546904Y-129305095D01*
X121499285Y-129381285D01*
X121451666Y-129533666D01*
X121451666Y-129724142D01*
X121499285Y-129876523D01*
X121546904Y-129952714D01*
X121594523Y-129990809D01*
X121689761Y-130028904D01*
X121784999Y-130028904D01*
X121880238Y-129990809D01*
X121927857Y-129952714D01*
X121975476Y-129876523D01*
X122023095Y-129724142D01*
X122023095Y-129533666D01*
X121975476Y-129381285D01*
X121927857Y-129305095D01*
X121880238Y-129267000D01*
X121784999Y-129228904D01*
X120832619Y-129228904D02*
X120737380Y-129228904D01*
X120642142Y-129267000D01*
X120594523Y-129305095D01*
X120546904Y-129381285D01*
X120499285Y-129533666D01*
X120499285Y-129724142D01*
X120546904Y-129876523D01*
X120594523Y-129952714D01*
X120642142Y-129990809D01*
X120737380Y-130028904D01*
X120832619Y-130028904D01*
X120927857Y-129990809D01*
X120975476Y-129952714D01*
X121023095Y-129876523D01*
X121070714Y-129724142D01*
X121070714Y-129533666D01*
X121023095Y-129381285D01*
X120975476Y-129305095D01*
X120927857Y-129267000D01*
X120832619Y-129228904D01*
X120070714Y-129495571D02*
X120070714Y-130028904D01*
X120070714Y-129571761D02*
X120023095Y-129533666D01*
X119927857Y-129495571D01*
X119784999Y-129495571D01*
X119689761Y-129533666D01*
X119642142Y-129609857D01*
X119642142Y-130028904D01*
%TO.C,C2*%
X104306666Y-104497142D02*
X104354285Y-104544761D01*
X104497142Y-104592380D01*
X104592380Y-104592380D01*
X104735238Y-104544761D01*
X104830476Y-104449523D01*
X104878095Y-104354285D01*
X104925714Y-104163809D01*
X104925714Y-104020952D01*
X104878095Y-103830476D01*
X104830476Y-103735238D01*
X104735238Y-103640000D01*
X104592380Y-103592380D01*
X104497142Y-103592380D01*
X104354285Y-103640000D01*
X104306666Y-103687619D01*
X103925714Y-103687619D02*
X103878095Y-103640000D01*
X103782857Y-103592380D01*
X103544761Y-103592380D01*
X103449523Y-103640000D01*
X103401904Y-103687619D01*
X103354285Y-103782857D01*
X103354285Y-103878095D01*
X103401904Y-104020952D01*
X103973333Y-104592380D01*
X103354285Y-104592380D01*
X104782857Y-105862380D02*
X105354285Y-105862380D01*
X105068571Y-105862380D02*
X105068571Y-104862380D01*
X105163809Y-105005238D01*
X105259047Y-105100476D01*
X105354285Y-105148095D01*
X104163809Y-104862380D02*
X104068571Y-104862380D01*
X103973333Y-104910000D01*
X103925714Y-104957619D01*
X103878095Y-105052857D01*
X103830476Y-105243333D01*
X103830476Y-105481428D01*
X103878095Y-105671904D01*
X103925714Y-105767142D01*
X103973333Y-105814761D01*
X104068571Y-105862380D01*
X104163809Y-105862380D01*
X104259047Y-105814761D01*
X104306666Y-105767142D01*
X104354285Y-105671904D01*
X104401904Y-105481428D01*
X104401904Y-105243333D01*
X104354285Y-105052857D01*
X104306666Y-104957619D01*
X104259047Y-104910000D01*
X104163809Y-104862380D01*
X102973333Y-105195714D02*
X102973333Y-105862380D01*
X103401904Y-105195714D02*
X103401904Y-105719523D01*
X103354285Y-105814761D01*
X103259047Y-105862380D01*
X103116190Y-105862380D01*
X103020952Y-105814761D01*
X102973333Y-105767142D01*
%TO.C,R18*%
X124975857Y-132548380D02*
X125452047Y-132548380D01*
X125499666Y-133024571D01*
X125452047Y-132976952D01*
X125356809Y-132929333D01*
X125118714Y-132929333D01*
X125023476Y-132976952D01*
X124975857Y-133024571D01*
X124928238Y-133119809D01*
X124928238Y-133357904D01*
X124975857Y-133453142D01*
X125023476Y-133500761D01*
X125118714Y-133548380D01*
X125356809Y-133548380D01*
X125452047Y-133500761D01*
X125499666Y-133453142D01*
X124309190Y-132548380D02*
X124213952Y-132548380D01*
X124118714Y-132596000D01*
X124071095Y-132643619D01*
X124023476Y-132738857D01*
X123975857Y-132929333D01*
X123975857Y-133167428D01*
X124023476Y-133357904D01*
X124071095Y-133453142D01*
X124118714Y-133500761D01*
X124213952Y-133548380D01*
X124309190Y-133548380D01*
X124404428Y-133500761D01*
X124452047Y-133453142D01*
X124499666Y-133357904D01*
X124547285Y-133167428D01*
X124547285Y-132929333D01*
X124499666Y-132738857D01*
X124452047Y-132643619D01*
X124404428Y-132596000D01*
X124309190Y-132548380D01*
X123547285Y-133548380D02*
X123547285Y-132548380D01*
X123452047Y-133167428D02*
X123166333Y-133548380D01*
X123166333Y-132881714D02*
X123547285Y-133262666D01*
%TO.C,R3*%
X119197285Y-127341380D02*
X118578238Y-127341380D01*
X118911571Y-127722333D01*
X118768714Y-127722333D01*
X118673476Y-127769952D01*
X118625857Y-127817571D01*
X118578238Y-127912809D01*
X118578238Y-128150904D01*
X118625857Y-128246142D01*
X118673476Y-128293761D01*
X118768714Y-128341380D01*
X119054428Y-128341380D01*
X119149666Y-128293761D01*
X119197285Y-128246142D01*
X118149666Y-128341380D02*
X118149666Y-127341380D01*
X118054428Y-127960428D02*
X117768714Y-128341380D01*
X117768714Y-127674714D02*
X118149666Y-128055666D01*
X117292523Y-128341380D02*
X117102047Y-128341380D01*
X117006809Y-128293761D01*
X116959190Y-128246142D01*
X116863952Y-128103285D01*
X116816333Y-127912809D01*
X116816333Y-127531857D01*
X116863952Y-127436619D01*
X116911571Y-127389000D01*
X117006809Y-127341380D01*
X117197285Y-127341380D01*
X117292523Y-127389000D01*
X117340142Y-127436619D01*
X117387761Y-127531857D01*
X117387761Y-127769952D01*
X117340142Y-127865190D01*
X117292523Y-127912809D01*
X117197285Y-127960428D01*
X117006809Y-127960428D01*
X116911571Y-127912809D01*
X116863952Y-127865190D01*
X116816333Y-127769952D01*
%TO.C,R23*%
X101631666Y-152090380D02*
X102203095Y-152090380D01*
X101917380Y-152090380D02*
X101917380Y-151090380D01*
X102012619Y-151233238D01*
X102107857Y-151328476D01*
X102203095Y-151376095D01*
X101012619Y-151090380D02*
X100917380Y-151090380D01*
X100822142Y-151138000D01*
X100774523Y-151185619D01*
X100726904Y-151280857D01*
X100679285Y-151471333D01*
X100679285Y-151709428D01*
X100726904Y-151899904D01*
X100774523Y-151995142D01*
X100822142Y-152042761D01*
X100917380Y-152090380D01*
X101012619Y-152090380D01*
X101107857Y-152042761D01*
X101155476Y-151995142D01*
X101203095Y-151899904D01*
X101250714Y-151709428D01*
X101250714Y-151471333D01*
X101203095Y-151280857D01*
X101155476Y-151185619D01*
X101107857Y-151138000D01*
X101012619Y-151090380D01*
X100060238Y-151090380D02*
X99965000Y-151090380D01*
X99869761Y-151138000D01*
X99822142Y-151185619D01*
X99774523Y-151280857D01*
X99726904Y-151471333D01*
X99726904Y-151709428D01*
X99774523Y-151899904D01*
X99822142Y-151995142D01*
X99869761Y-152042761D01*
X99965000Y-152090380D01*
X100060238Y-152090380D01*
X100155476Y-152042761D01*
X100203095Y-151995142D01*
X100250714Y-151899904D01*
X100298333Y-151709428D01*
X100298333Y-151471333D01*
X100250714Y-151280857D01*
X100203095Y-151185619D01*
X100155476Y-151138000D01*
X100060238Y-151090380D01*
%TO.C,R10*%
X104894047Y-72842380D02*
X105465476Y-72842380D01*
X105179761Y-72842380D02*
X105179761Y-71842380D01*
X105275000Y-71985238D01*
X105370238Y-72080476D01*
X105465476Y-72128095D01*
X104465476Y-72842380D02*
X104465476Y-71842380D01*
X104370238Y-72461428D02*
X104084523Y-72842380D01*
X104084523Y-72175714D02*
X104465476Y-72556666D01*
D13*
%TO.C,C7*%
X120550000Y-148963748D02*
X120550000Y-149486252D01*
X122020000Y-148963748D02*
X122020000Y-149486252D01*
%TO.C,D15*%
X119634000Y-84240000D02*
X116225000Y-84240000D01*
X119634000Y-84240000D02*
X119634000Y-85940000D01*
X119634000Y-85940000D02*
X116225000Y-85940000D01*
%TO.C,D14*%
X119634000Y-81700000D02*
X116225000Y-81700000D01*
X119634000Y-81700000D02*
X119634000Y-83400000D01*
X119634000Y-83400000D02*
X116225000Y-83400000D01*
%TO.C,D13*%
X119634000Y-94400000D02*
X116225000Y-94400000D01*
X119634000Y-94400000D02*
X119634000Y-96100000D01*
X119634000Y-96100000D02*
X116225000Y-96100000D01*
%TO.C,D12*%
X119634000Y-91860000D02*
X116225000Y-91860000D01*
X119634000Y-91860000D02*
X119634000Y-93560000D01*
X119634000Y-93560000D02*
X116225000Y-93560000D01*
%TO.C,D10*%
X119634000Y-96940000D02*
X116225000Y-96940000D01*
X119634000Y-96940000D02*
X119634000Y-98640000D01*
X119634000Y-98640000D02*
X116225000Y-98640000D01*
%TO.C,D9*%
X119634000Y-104560000D02*
X116225000Y-104560000D01*
X119634000Y-104560000D02*
X119634000Y-106260000D01*
X119634000Y-106260000D02*
X116225000Y-106260000D01*
%TO.C,D8*%
X119634000Y-102020000D02*
X116225000Y-102020000D01*
X119634000Y-102020000D02*
X119634000Y-103720000D01*
X119634000Y-103720000D02*
X116225000Y-103720000D01*
%TO.C,D7*%
X119634000Y-89320000D02*
X116225000Y-89320000D01*
X119634000Y-89320000D02*
X119634000Y-91020000D01*
X119634000Y-91020000D02*
X116225000Y-91020000D01*
%TO.C,D6*%
X119634000Y-86780000D02*
X116225000Y-86780000D01*
X119634000Y-86780000D02*
X119634000Y-88480000D01*
X119634000Y-88480000D02*
X116225000Y-88480000D01*
%TO.C,D11*%
X119634000Y-99480000D02*
X116225000Y-99480000D01*
X119634000Y-99480000D02*
X119634000Y-101180000D01*
X119634000Y-101180000D02*
X116225000Y-101180000D01*
%TO.C,R11*%
X114804564Y-66775000D02*
X114350436Y-66775000D01*
X114804564Y-65305000D02*
X114350436Y-65305000D01*
%TO.C,R13*%
X109755000Y-106907064D02*
X109755000Y-106452936D01*
X111225000Y-106907064D02*
X111225000Y-106452936D01*
%TO.C,C10*%
X110543748Y-94515000D02*
X111066252Y-94515000D01*
X110543748Y-95985000D02*
X111066252Y-95985000D01*
%TO.C,C8*%
X110543748Y-102135000D02*
X111066252Y-102135000D01*
X110543748Y-103605000D02*
X111066252Y-103605000D01*
%TO.C,C1*%
X99250113Y-82955000D02*
X99250113Y-84465000D01*
X98609113Y-79550000D02*
X98609113Y-80875000D01*
X99090113Y-82955000D02*
X99090113Y-84435000D01*
X97489113Y-82955000D02*
X97489113Y-83358000D01*
X98529113Y-82955000D02*
X98529113Y-84244000D01*
X97569113Y-82955000D02*
X97569113Y-83469000D01*
X97209113Y-81000000D02*
X97209113Y-82830000D01*
X97769113Y-80130000D02*
X97769113Y-80875000D01*
X99370113Y-79350000D02*
X99370113Y-80875000D01*
X97809113Y-80089000D02*
X97809113Y-80875000D01*
X98649113Y-82955000D02*
X98649113Y-84297000D01*
X98769113Y-79487000D02*
X98769113Y-80875000D01*
X98849113Y-79460000D02*
X98849113Y-80875000D01*
X97609113Y-82955000D02*
X97609113Y-83520000D01*
X97889113Y-80014000D02*
X97889113Y-80875000D01*
X98249113Y-82955000D02*
X98249113Y-84090000D01*
X97369113Y-80664000D02*
X97369113Y-80875000D01*
X97849113Y-82955000D02*
X97849113Y-83779000D01*
X99170113Y-79379000D02*
X99170113Y-80875000D01*
X98689113Y-79517000D02*
X98689113Y-80875000D01*
X98329113Y-82955000D02*
X98329113Y-84139000D01*
X98729113Y-79501000D02*
X98729113Y-80875000D01*
X97089113Y-81397000D02*
X97089113Y-82433000D01*
X97649113Y-80262000D02*
X97649113Y-80875000D01*
X97649113Y-82955000D02*
X97649113Y-83568000D01*
X99330113Y-82955000D02*
X99330113Y-84476000D01*
X98809113Y-79473000D02*
X98809113Y-80875000D01*
X97369113Y-82955000D02*
X97369113Y-83166000D01*
X97169113Y-81110000D02*
X97169113Y-82720000D01*
X97249113Y-80904000D02*
X97249113Y-82926000D01*
X98409113Y-79647000D02*
X98409113Y-80875000D01*
X99570113Y-79336000D02*
X99570113Y-84494000D01*
X97049113Y-81631000D02*
X97049113Y-82199000D01*
X98409113Y-82955000D02*
X98409113Y-84183000D01*
X99130113Y-79387000D02*
X99130113Y-80875000D01*
X98529113Y-79586000D02*
X98529113Y-80875000D01*
X99050113Y-82955000D02*
X99050113Y-84426000D01*
X99650113Y-79335000D02*
X99650113Y-84495000D01*
X98489113Y-79605000D02*
X98489113Y-80875000D01*
X98169113Y-79793000D02*
X98169113Y-80875000D01*
X97329113Y-80737000D02*
X97329113Y-83093000D01*
X98970113Y-79424000D02*
X98970113Y-80875000D01*
X98449113Y-79625000D02*
X98449113Y-80875000D01*
X98609113Y-82955000D02*
X98609113Y-84280000D01*
X99330113Y-79354000D02*
X99330113Y-80875000D01*
X98329113Y-79691000D02*
X98329113Y-80875000D01*
X97409113Y-80596000D02*
X97409113Y-80875000D01*
X97729113Y-82955000D02*
X97729113Y-83658000D01*
X97129113Y-81238000D02*
X97129113Y-82592000D01*
X99010113Y-79414000D02*
X99010113Y-80875000D01*
X97689113Y-82955000D02*
X97689113Y-83614000D01*
X98569113Y-82955000D02*
X98569113Y-84263000D01*
X98889113Y-79447000D02*
X98889113Y-80875000D01*
X97929113Y-79978000D02*
X97929113Y-80875000D01*
X97729113Y-80172000D02*
X97729113Y-80875000D01*
X99090113Y-79395000D02*
X99090113Y-80875000D01*
X99170113Y-82955000D02*
X99170113Y-84451000D01*
X102204888Y-80190000D02*
X102204888Y-80690000D01*
X98849113Y-82955000D02*
X98849113Y-84370000D01*
X97529113Y-82955000D02*
X97529113Y-83415000D01*
X98769113Y-82955000D02*
X98769113Y-84343000D01*
X98209113Y-82955000D02*
X98209113Y-84064000D01*
X98089113Y-79850000D02*
X98089113Y-80875000D01*
X102454888Y-80440000D02*
X101954888Y-80440000D01*
X98289113Y-79715000D02*
X98289113Y-80875000D01*
X98729113Y-82955000D02*
X98729113Y-84329000D01*
X99210113Y-82955000D02*
X99210113Y-84458000D01*
X98049113Y-82955000D02*
X98049113Y-83950000D01*
X98649113Y-79533000D02*
X98649113Y-80875000D01*
X98449113Y-82955000D02*
X98449113Y-84205000D01*
X97529113Y-80415000D02*
X97529113Y-80875000D01*
X98249113Y-79740000D02*
X98249113Y-80875000D01*
X99290113Y-79359000D02*
X99290113Y-80875000D01*
X97689113Y-80216000D02*
X97689113Y-80875000D01*
X99490113Y-79339000D02*
X99490113Y-84491000D01*
X98489113Y-82955000D02*
X98489113Y-84225000D01*
X98929113Y-79435000D02*
X98929113Y-80875000D01*
X97969113Y-79944000D02*
X97969113Y-80875000D01*
X98049113Y-79880000D02*
X98049113Y-80875000D01*
X98169113Y-82955000D02*
X98169113Y-84037000D01*
X98970113Y-82955000D02*
X98970113Y-84406000D01*
X99130113Y-82955000D02*
X99130113Y-84443000D01*
X98569113Y-79567000D02*
X98569113Y-80875000D01*
X98009113Y-82955000D02*
X98009113Y-83919000D01*
X98209113Y-79766000D02*
X98209113Y-80875000D01*
X97609113Y-80310000D02*
X97609113Y-80875000D01*
X98129113Y-79820000D02*
X98129113Y-80875000D01*
X97969113Y-82955000D02*
X97969113Y-83886000D01*
X98369113Y-79668000D02*
X98369113Y-80875000D01*
X98369113Y-82955000D02*
X98369113Y-84162000D01*
X99450113Y-79342000D02*
X99450113Y-84488000D01*
X99610113Y-79335000D02*
X99610113Y-84495000D01*
X98129113Y-82955000D02*
X98129113Y-84010000D01*
X98009113Y-79911000D02*
X98009113Y-80875000D01*
X97929113Y-82955000D02*
X97929113Y-83852000D01*
X99210113Y-79372000D02*
X99210113Y-80875000D01*
X97289113Y-80817000D02*
X97289113Y-83013000D01*
X97849113Y-80051000D02*
X97849113Y-80875000D01*
X97409113Y-82955000D02*
X97409113Y-83234000D01*
X99370113Y-82955000D02*
X99370113Y-84480000D01*
X99250113Y-79365000D02*
X99250113Y-80875000D01*
X99410113Y-79346000D02*
X99410113Y-80875000D01*
X99290113Y-82955000D02*
X99290113Y-84471000D01*
X98089113Y-82955000D02*
X98089113Y-83980000D01*
X98929113Y-82955000D02*
X98929113Y-84395000D01*
X98809113Y-82955000D02*
X98809113Y-84357000D01*
X98689113Y-82955000D02*
X98689113Y-84313000D01*
X97449113Y-80532000D02*
X97449113Y-80875000D01*
X99050113Y-79404000D02*
X99050113Y-80875000D01*
X97449113Y-82955000D02*
X97449113Y-83298000D01*
X99410113Y-82955000D02*
X99410113Y-84484000D01*
X99010113Y-82955000D02*
X99010113Y-84416000D01*
X98889113Y-82955000D02*
X98889113Y-84383000D01*
X97889113Y-82955000D02*
X97889113Y-83816000D01*
X98289113Y-82955000D02*
X98289113Y-84115000D01*
X97569113Y-80361000D02*
X97569113Y-80875000D01*
X97809113Y-82955000D02*
X97809113Y-83741000D01*
X99530113Y-79337000D02*
X99530113Y-84493000D01*
X97489113Y-80472000D02*
X97489113Y-80875000D01*
X97769113Y-82955000D02*
X97769113Y-83700000D01*
X102270113Y-81915000D02*
G75*
G03*
X102270113Y-81915000I-2620000J0D01*
G01*
%TO.C,R1*%
X120750000Y-114707936D02*
X120750000Y-115162064D01*
X119280000Y-114707936D02*
X119280000Y-115162064D01*
%TO.C,R21*%
X108050000Y-131852936D02*
X108050000Y-132307064D01*
X106580000Y-131852936D02*
X106580000Y-132307064D01*
%TO.C,C14*%
X110543748Y-90905000D02*
X111066252Y-90905000D01*
X110543748Y-89435000D02*
X111066252Y-89435000D01*
%TO.C,RV1*%
X124890000Y-118120000D02*
X115120000Y-118120000D01*
X124890000Y-123190000D02*
X115120000Y-123190000D01*
X124890000Y-118120000D02*
X124890000Y-123190000D01*
X115120000Y-118120000D02*
X115120000Y-123190000D01*
%TO.C,C9*%
X110543748Y-101065000D02*
X111066252Y-101065000D01*
X110543748Y-99595000D02*
X111066252Y-99595000D01*
%TO.C,R9*%
X118972064Y-65305000D02*
X118517936Y-65305000D01*
X118972064Y-66775000D02*
X118517936Y-66775000D01*
%TO.C,C12*%
X110543748Y-98525000D02*
X111066252Y-98525000D01*
X110543748Y-97055000D02*
X111066252Y-97055000D01*
%TO.C,R4*%
X110897936Y-130075000D02*
X111352064Y-130075000D01*
X110897936Y-131545000D02*
X111352064Y-131545000D01*
%TO.C,R14*%
X117375000Y-78870436D02*
X117375000Y-79324564D01*
X118845000Y-78870436D02*
X118845000Y-79324564D01*
%TO.C,A1*%
X108575000Y-111760000D02*
X105905000Y-111760000D01*
X121275000Y-76200000D02*
X121275000Y-111760000D01*
X121275000Y-76200000D02*
X121275000Y-73660000D01*
X108575000Y-73660000D02*
X108575000Y-111760000D01*
X123945000Y-114430000D02*
X105905000Y-114430000D01*
X121275000Y-76200000D02*
X123945000Y-76200000D01*
X108575000Y-73660000D02*
X105905000Y-73660000D01*
X121275000Y-73660000D02*
X123945000Y-73660000D01*
X123945000Y-76200000D02*
X123945000Y-114430000D01*
X105905000Y-114430000D02*
X105905000Y-70990000D01*
X123945000Y-70990000D02*
X123945000Y-73660000D01*
X105905000Y-70990000D02*
X123945000Y-70990000D01*
X121275000Y-111760000D02*
X123945000Y-111760000D01*
%TO.C,R12*%
X113765000Y-80417936D02*
X113765000Y-80872064D01*
X112295000Y-80417936D02*
X112295000Y-80872064D01*
%TO.C,R17*%
X125195000Y-126137936D02*
X125195000Y-126592064D01*
X123725000Y-126137936D02*
X123725000Y-126592064D01*
%TO.C,R2*%
X122455000Y-114707936D02*
X122455000Y-115162064D01*
X123925000Y-114707936D02*
X123925000Y-115162064D01*
%TO.C,R19*%
X123725000Y-135482064D02*
X123725000Y-135027936D01*
X125195000Y-135482064D02*
X125195000Y-135027936D01*
%TO.C,R16*%
X109755000Y-80417936D02*
X109755000Y-80872064D01*
X111225000Y-80417936D02*
X111225000Y-80872064D01*
%TO.C,C13*%
X110543748Y-93445000D02*
X111066252Y-93445000D01*
X110543748Y-91975000D02*
X111066252Y-91975000D01*
%TO.C,J1*%
X102412500Y-90170000D02*
X102412500Y-100390000D01*
X99812500Y-87570000D02*
X97212500Y-87570000D01*
X102412500Y-90170000D02*
X99812500Y-90170000D01*
X102412500Y-100390000D02*
X97212500Y-100390000D01*
X99812500Y-90170000D02*
X99812500Y-87570000D01*
X102412500Y-88900000D02*
X102412500Y-87570000D01*
X97212500Y-87570000D02*
X97212500Y-100390000D01*
X102412500Y-87570000D02*
X101082500Y-87570000D01*
%TO.C,C3*%
X116305000Y-125468748D02*
X116305000Y-125991252D01*
X114835000Y-125468748D02*
X114835000Y-125991252D01*
%TO.C,R22*%
X110390000Y-148997936D02*
X110390000Y-149452064D01*
X111860000Y-148997936D02*
X111860000Y-149452064D01*
%TO.C,C15*%
X110543748Y-84355000D02*
X111066252Y-84355000D01*
X110543748Y-85825000D02*
X111066252Y-85825000D01*
%TO.C,R20*%
X101700000Y-131852936D02*
X101700000Y-132307064D01*
X100230000Y-131852936D02*
X100230000Y-132307064D01*
%TO.C,U1*%
X118765000Y-132080000D02*
X118765000Y-134030000D01*
X113645000Y-132080000D02*
X113645000Y-134030000D01*
X118765000Y-132080000D02*
X118765000Y-130130000D01*
X113645000Y-132080000D02*
X113645000Y-128630000D01*
%TO.C,R6*%
X115977936Y-114410000D02*
X116432064Y-114410000D01*
X115977936Y-112940000D02*
X116432064Y-112940000D01*
%TO.C,R7*%
X115977936Y-116950000D02*
X116432064Y-116950000D01*
X115977936Y-115480000D02*
X116432064Y-115480000D01*
%TO.C,C6*%
X111386252Y-132615000D02*
X110863748Y-132615000D01*
X111386252Y-134085000D02*
X110863748Y-134085000D01*
%TO.C,R8*%
X116105000Y-146457936D02*
X116105000Y-146912064D01*
X117575000Y-146457936D02*
X117575000Y-146912064D01*
%TO.C,R5*%
X115977936Y-110400000D02*
X116432064Y-110400000D01*
X115977936Y-111870000D02*
X116432064Y-111870000D01*
%TO.C,C5*%
X121023748Y-134085000D02*
X121546252Y-134085000D01*
X121023748Y-132615000D02*
X121546252Y-132615000D01*
%TO.C,C4*%
X121546252Y-130075000D02*
X121023748Y-130075000D01*
X121546252Y-131545000D02*
X121023748Y-131545000D01*
%TO.C,C2*%
X100259888Y-105005000D02*
X100259888Y-103517000D01*
X99779888Y-108625000D02*
X99779888Y-103465000D01*
X100019888Y-108610000D02*
X100019888Y-107085000D01*
X101100888Y-108245000D02*
X101100888Y-107085000D01*
X100059888Y-108606000D02*
X100059888Y-107085000D01*
X100059888Y-105005000D02*
X100059888Y-103484000D01*
X100820888Y-108393000D02*
X100820888Y-107085000D01*
X101060888Y-105005000D02*
X101060888Y-103821000D01*
X101060888Y-108269000D02*
X101060888Y-107085000D01*
X101860888Y-105005000D02*
X101860888Y-104545000D01*
X100980888Y-108313000D02*
X100980888Y-107085000D01*
X101860888Y-107545000D02*
X101860888Y-107085000D01*
X100860888Y-108374000D02*
X100860888Y-107085000D01*
X101420888Y-105005000D02*
X101420888Y-104074000D01*
X100620888Y-108473000D02*
X100620888Y-107085000D01*
X100900888Y-105005000D02*
X100900888Y-103735000D01*
X101820888Y-105005000D02*
X101820888Y-104491000D01*
X100379888Y-105005000D02*
X100379888Y-103544000D01*
X100940888Y-108335000D02*
X100940888Y-107085000D01*
X100700888Y-105005000D02*
X100700888Y-103647000D01*
X101420888Y-108016000D02*
X101420888Y-107085000D01*
X99899888Y-108621000D02*
X99899888Y-103469000D01*
X101260888Y-105005000D02*
X101260888Y-103950000D01*
X102220888Y-106850000D02*
X102220888Y-105240000D01*
X100780888Y-108410000D02*
X100780888Y-107085000D01*
X101940888Y-107428000D02*
X101940888Y-107085000D01*
X101780888Y-107650000D02*
X101780888Y-107085000D01*
X100740888Y-108427000D02*
X100740888Y-107085000D01*
X101740888Y-105005000D02*
X101740888Y-104392000D01*
X100900888Y-108355000D02*
X100900888Y-107085000D01*
X101740888Y-107698000D02*
X101740888Y-107085000D01*
X101620888Y-107830000D02*
X101620888Y-107085000D01*
X101900888Y-107488000D02*
X101900888Y-107085000D01*
X100780888Y-105005000D02*
X100780888Y-103680000D01*
X99819888Y-108624000D02*
X99819888Y-103466000D01*
X100540888Y-108500000D02*
X100540888Y-107085000D01*
X101020888Y-105005000D02*
X101020888Y-103798000D01*
X100820888Y-105005000D02*
X100820888Y-103697000D01*
X102020888Y-105005000D02*
X102020888Y-104794000D01*
X101140888Y-108220000D02*
X101140888Y-107085000D01*
X100379888Y-108546000D02*
X100379888Y-107085000D01*
X101380888Y-105005000D02*
X101380888Y-104041000D01*
X101980888Y-105005000D02*
X101980888Y-104726000D01*
X102100888Y-107143000D02*
X102100888Y-104947000D01*
X100940888Y-105005000D02*
X100940888Y-103755000D01*
X100580888Y-108487000D02*
X100580888Y-107085000D01*
X102340888Y-106329000D02*
X102340888Y-105761000D01*
X101580888Y-107871000D02*
X101580888Y-107085000D01*
X101180888Y-108194000D02*
X101180888Y-107085000D01*
X100299888Y-105005000D02*
X100299888Y-103525000D01*
X101540888Y-107909000D02*
X101540888Y-107085000D01*
X101540888Y-105005000D02*
X101540888Y-104181000D01*
X102020888Y-107296000D02*
X102020888Y-107085000D01*
X100620888Y-105005000D02*
X100620888Y-103617000D01*
X100419888Y-108536000D02*
X100419888Y-107085000D01*
X100460888Y-105005000D02*
X100460888Y-103565000D01*
X101700888Y-105005000D02*
X101700888Y-104346000D01*
X99979888Y-105005000D02*
X99979888Y-103476000D01*
X100139888Y-105005000D02*
X100139888Y-103495000D01*
X99859888Y-108623000D02*
X99859888Y-103467000D01*
X101300888Y-105005000D02*
X101300888Y-103980000D01*
X102180888Y-106960000D02*
X102180888Y-105130000D01*
X101140888Y-105005000D02*
X101140888Y-103870000D01*
X100099888Y-108601000D02*
X100099888Y-107085000D01*
X102060888Y-107223000D02*
X102060888Y-104867000D01*
X101900888Y-105005000D02*
X101900888Y-104602000D01*
X100179888Y-108588000D02*
X100179888Y-107085000D01*
X101980888Y-107364000D02*
X101980888Y-107085000D01*
X101500888Y-105005000D02*
X101500888Y-104144000D01*
X101700888Y-107744000D02*
X101700888Y-107085000D01*
X100980888Y-105005000D02*
X100980888Y-103777000D01*
X102140888Y-107056000D02*
X102140888Y-105034000D01*
X99739888Y-108625000D02*
X99739888Y-103465000D01*
X101020888Y-108292000D02*
X101020888Y-107085000D01*
X101180888Y-105005000D02*
X101180888Y-103896000D01*
X101380888Y-108049000D02*
X101380888Y-107085000D01*
X101220888Y-105005000D02*
X101220888Y-103923000D01*
X100740888Y-105005000D02*
X100740888Y-103663000D01*
X101100888Y-105005000D02*
X101100888Y-103845000D01*
X101300888Y-108110000D02*
X101300888Y-107085000D01*
X101940888Y-105005000D02*
X101940888Y-104662000D01*
X101580888Y-105005000D02*
X101580888Y-104219000D01*
X101460888Y-105005000D02*
X101460888Y-104108000D01*
X100139888Y-108595000D02*
X100139888Y-107085000D01*
X97185113Y-107770000D02*
X97185113Y-107270000D01*
X101660888Y-107788000D02*
X101660888Y-107085000D01*
X100339888Y-108556000D02*
X100339888Y-107085000D01*
X101500888Y-107946000D02*
X101500888Y-107085000D01*
X100700888Y-108443000D02*
X100700888Y-107085000D01*
X102260888Y-106722000D02*
X102260888Y-105368000D01*
X100339888Y-105005000D02*
X100339888Y-103534000D01*
X96935113Y-107520000D02*
X97435113Y-107520000D01*
X99979888Y-108614000D02*
X99979888Y-107085000D01*
X100540888Y-105005000D02*
X100540888Y-103590000D01*
X100500888Y-105005000D02*
X100500888Y-103577000D01*
X101820888Y-107599000D02*
X101820888Y-107085000D01*
X100660888Y-105005000D02*
X100660888Y-103631000D01*
X100860888Y-105005000D02*
X100860888Y-103716000D01*
X100500888Y-108513000D02*
X100500888Y-107085000D01*
X100019888Y-105005000D02*
X100019888Y-103480000D01*
X100259888Y-108573000D02*
X100259888Y-107085000D01*
X101220888Y-108167000D02*
X101220888Y-107085000D01*
X101620888Y-105005000D02*
X101620888Y-104260000D01*
X101460888Y-107982000D02*
X101460888Y-107085000D01*
X100219888Y-108581000D02*
X100219888Y-107085000D01*
X101660888Y-105005000D02*
X101660888Y-104302000D01*
X100179888Y-105005000D02*
X100179888Y-103502000D01*
X100219888Y-105005000D02*
X100219888Y-103509000D01*
X100460888Y-108525000D02*
X100460888Y-107085000D01*
X102300888Y-106563000D02*
X102300888Y-105527000D01*
X101260888Y-108140000D02*
X101260888Y-107085000D01*
X100099888Y-105005000D02*
X100099888Y-103489000D01*
X100660888Y-108459000D02*
X100660888Y-107085000D01*
X99939888Y-108618000D02*
X99939888Y-103472000D01*
X101340888Y-108080000D02*
X101340888Y-107085000D01*
X100580888Y-105005000D02*
X100580888Y-103603000D01*
X101780888Y-105005000D02*
X101780888Y-104440000D01*
X101340888Y-105005000D02*
X101340888Y-104010000D01*
X100419888Y-105005000D02*
X100419888Y-103554000D01*
X100299888Y-108565000D02*
X100299888Y-107085000D01*
X102359888Y-106045000D02*
G75*
G03*
X102359888Y-106045000I-2620000J0D01*
G01*
%TO.C,C11*%
X110543748Y-86895000D02*
X111066252Y-86895000D01*
X110543748Y-88365000D02*
X111066252Y-88365000D01*
%TO.C,R15*%
X116305000Y-78870436D02*
X116305000Y-79324564D01*
X114835000Y-78870436D02*
X114835000Y-79324564D01*
%TO.C,R18*%
X125195000Y-131037064D02*
X125195000Y-130582936D01*
X123725000Y-131037064D02*
X123725000Y-130582936D01*
%TO.C,R3*%
X118845000Y-125502936D02*
X118845000Y-125957064D01*
X117375000Y-125502936D02*
X117375000Y-125957064D01*
%TO.C,R23*%
X100230000Y-148997936D02*
X100230000Y-149452064D01*
X101700000Y-148997936D02*
X101700000Y-149452064D01*
%TO.C,R10*%
X107087936Y-73125000D02*
X107542064Y-73125000D01*
X107087936Y-71655000D02*
X107542064Y-71655000D01*
%TD*%
%LPC*%
D14*
%TO.C,C7*%
X121285000Y-150175000D03*
X121285000Y-148275000D03*
%TD*%
D15*
%TO.C,D15*%
X116225000Y-85090000D03*
X118725000Y-85090000D03*
%TD*%
%TO.C,D14*%
X116225000Y-82550000D03*
X118725000Y-82550000D03*
%TD*%
%TO.C,D13*%
X116225000Y-95250000D03*
X118725000Y-95250000D03*
%TD*%
%TO.C,D12*%
X116225000Y-92710000D03*
X118725000Y-92710000D03*
%TD*%
%TO.C,D10*%
X116225000Y-97790000D03*
X118725000Y-97790000D03*
%TD*%
%TO.C,D9*%
X116225000Y-105410000D03*
X118725000Y-105410000D03*
%TD*%
%TO.C,D8*%
X116225000Y-102870000D03*
X118725000Y-102870000D03*
%TD*%
%TO.C,D7*%
X116225000Y-90170000D03*
X118725000Y-90170000D03*
%TD*%
%TO.C,D6*%
X116225000Y-87630000D03*
X118725000Y-87630000D03*
%TD*%
%TO.C,D11*%
X116225000Y-100330000D03*
X118725000Y-100330000D03*
%TD*%
D16*
%TO.C,Parameter1*%
X111135000Y-76795000D03*
D17*
X111135000Y-74295000D03*
X111135000Y-71795000D03*
D18*
X103635000Y-69495000D03*
X103635000Y-79095000D03*
%TD*%
D19*
%TO.C,SW1*%
X100965000Y-111505000D03*
X100965000Y-116205000D03*
X100965000Y-120905000D03*
%TD*%
D20*
%TO.C,D5*%
X104140000Y-97790000D03*
D21*
X104140000Y-107950000D03*
%TD*%
D22*
%TO.C,J3*%
X100965000Y-124965000D03*
X100965000Y-128065000D03*
X100965000Y-136365000D03*
%TD*%
D20*
%TO.C,D4*%
X104140000Y-83820000D03*
D21*
X104140000Y-93980000D03*
%TD*%
D16*
%TO.C,D3*%
X109855000Y-120650000D03*
D17*
X112395000Y-120650000D03*
%TD*%
D16*
%TO.C,Frequency1*%
X108625000Y-57795000D03*
D17*
X111125000Y-57795000D03*
X113625000Y-57795000D03*
D18*
X106325000Y-50295000D03*
X115925000Y-50295000D03*
%TD*%
D22*
%TO.C,J4*%
X111125000Y-124965000D03*
X111125000Y-128065000D03*
X111125000Y-136365000D03*
%TD*%
D16*
%TO.C,D2*%
X109855000Y-116205000D03*
D17*
X112395000Y-116205000D03*
%TD*%
D16*
%TO.C,Parameter2*%
X111115000Y-63540000D03*
D17*
X111115000Y-66040000D03*
X111115000Y-68540000D03*
D18*
X118615000Y-70840000D03*
X118615000Y-61240000D03*
%TD*%
D16*
%TO.C,D1*%
X109850000Y-111760000D03*
D17*
X112390000Y-111760000D03*
%TD*%
D22*
%TO.C,J5*%
X111125000Y-142110000D03*
X111125000Y-145210000D03*
X111125000Y-153510000D03*
%TD*%
%TO.C,J7*%
X100965000Y-142110000D03*
X100965000Y-145210000D03*
X100965000Y-153510000D03*
%TD*%
%TO.C,J2*%
X121285000Y-142110000D03*
X121285000Y-145210000D03*
X121285000Y-153510000D03*
%TD*%
%TO.C,J6*%
X121285000Y-124965000D03*
X121285000Y-128065000D03*
X121285000Y-136365000D03*
%TD*%
D23*
%TO.C,R11*%
X115490000Y-66040000D03*
X113665000Y-66040000D03*
%TD*%
D24*
%TO.C,R13*%
X110490000Y-107592500D03*
X110490000Y-105767500D03*
%TD*%
D25*
%TO.C,C10*%
X109855000Y-95250000D03*
X111755000Y-95250000D03*
%TD*%
%TO.C,C8*%
X109855000Y-102870000D03*
X111755000Y-102870000D03*
%TD*%
D26*
%TO.C,C1*%
X100900113Y-81915000D03*
D27*
X98400113Y-81915000D03*
%TD*%
D28*
%TO.C,R1*%
X120015000Y-114022500D03*
X120015000Y-115847500D03*
%TD*%
%TO.C,R21*%
X107315000Y-131167500D03*
X107315000Y-132992500D03*
%TD*%
D25*
%TO.C,C14*%
X109855000Y-90170000D03*
X111755000Y-90170000D03*
%TD*%
D29*
%TO.C,RV1*%
X117465000Y-120650000D03*
X120005000Y-120650000D03*
X122545000Y-120650000D03*
%TD*%
D25*
%TO.C,C9*%
X109855000Y-100330000D03*
X111755000Y-100330000D03*
%TD*%
D23*
%TO.C,R9*%
X119657500Y-66040000D03*
X117832500Y-66040000D03*
%TD*%
D25*
%TO.C,C12*%
X109855000Y-97790000D03*
X111755000Y-97790000D03*
%TD*%
D30*
%TO.C,R4*%
X110212500Y-130810000D03*
X112037500Y-130810000D03*
%TD*%
D28*
%TO.C,R14*%
X118110000Y-78185000D03*
X118110000Y-80010000D03*
%TD*%
D26*
%TO.C,A1*%
X122545000Y-74930000D03*
D31*
X122545000Y-77470000D03*
X122545000Y-80010000D03*
X122545000Y-82550000D03*
X122545000Y-85090000D03*
X122545000Y-87630000D03*
X122545000Y-90170000D03*
X122545000Y-92710000D03*
X122545000Y-95250000D03*
X122545000Y-97790000D03*
X122545000Y-100330000D03*
X122545000Y-102870000D03*
X122545000Y-105410000D03*
X122545000Y-107950000D03*
X122545000Y-110490000D03*
X107305000Y-110490000D03*
X107305000Y-107950000D03*
X107305000Y-105410000D03*
X107305000Y-102870000D03*
X107305000Y-100330000D03*
X107305000Y-97790000D03*
X107305000Y-95250000D03*
X107305000Y-92710000D03*
X107305000Y-90170000D03*
X107305000Y-87630000D03*
X107305000Y-85090000D03*
X107305000Y-82550000D03*
X107305000Y-80010000D03*
X107305000Y-77470000D03*
X107305000Y-74930000D03*
%TD*%
D28*
%TO.C,R12*%
X113030000Y-79732500D03*
X113030000Y-81557500D03*
%TD*%
%TO.C,R17*%
X124460000Y-125452500D03*
X124460000Y-127277500D03*
%TD*%
%TO.C,R2*%
X123190000Y-114022500D03*
X123190000Y-115847500D03*
%TD*%
D24*
%TO.C,R19*%
X124460000Y-136167500D03*
X124460000Y-134342500D03*
%TD*%
D28*
%TO.C,R16*%
X110490000Y-79732500D03*
X110490000Y-81557500D03*
%TD*%
D25*
%TO.C,C13*%
X109855000Y-92710000D03*
X111755000Y-92710000D03*
%TD*%
D32*
%TO.C,J1*%
X101082500Y-88900000D03*
D33*
X98542500Y-88900000D03*
X101082500Y-91440000D03*
X98542500Y-91440000D03*
X101082500Y-93980000D03*
X98542500Y-93980000D03*
X101082500Y-96520000D03*
X98542500Y-96520000D03*
X101082500Y-99060000D03*
X98542500Y-99060000D03*
%TD*%
D14*
%TO.C,C3*%
X115570000Y-124780000D03*
X115570000Y-126680000D03*
%TD*%
D28*
%TO.C,R22*%
X111125000Y-148312500D03*
X111125000Y-150137500D03*
%TD*%
D25*
%TO.C,C15*%
X109855000Y-85090000D03*
X111755000Y-85090000D03*
%TD*%
D28*
%TO.C,R20*%
X100965000Y-131167500D03*
X100965000Y-132992500D03*
%TD*%
D34*
%TO.C,U1*%
X114300000Y-129505000D03*
X115570000Y-129505000D03*
X116840000Y-129505000D03*
X118110000Y-129505000D03*
X118110000Y-134655000D03*
X116840000Y-134655000D03*
X115570000Y-134655000D03*
X114300000Y-134655000D03*
%TD*%
D30*
%TO.C,R6*%
X115292500Y-113675000D03*
X117117500Y-113675000D03*
%TD*%
%TO.C,R7*%
X115292500Y-116215000D03*
X117117500Y-116215000D03*
%TD*%
D35*
%TO.C,C6*%
X112075000Y-133350000D03*
X110175000Y-133350000D03*
%TD*%
D28*
%TO.C,R8*%
X116840000Y-145772500D03*
X116840000Y-147597500D03*
%TD*%
D30*
%TO.C,R5*%
X115292500Y-111135000D03*
X117117500Y-111135000D03*
%TD*%
D25*
%TO.C,C5*%
X120335000Y-133350000D03*
X122235000Y-133350000D03*
%TD*%
D35*
%TO.C,C4*%
X122235000Y-130810000D03*
X120335000Y-130810000D03*
%TD*%
D26*
%TO.C,C2*%
X98489888Y-106045000D03*
D27*
X100989888Y-106045000D03*
%TD*%
D25*
%TO.C,C11*%
X109855000Y-87630000D03*
X111755000Y-87630000D03*
%TD*%
D28*
%TO.C,R15*%
X115570000Y-78185000D03*
X115570000Y-80010000D03*
%TD*%
D24*
%TO.C,R18*%
X124460000Y-131722500D03*
X124460000Y-129897500D03*
%TD*%
D28*
%TO.C,R3*%
X118110000Y-124817500D03*
X118110000Y-126642500D03*
%TD*%
%TO.C,R23*%
X100965000Y-148312500D03*
X100965000Y-150137500D03*
%TD*%
D30*
%TO.C,R10*%
X106402500Y-72390000D03*
X108227500Y-72390000D03*
%TD*%
M02*
