%TF.GenerationSoftware,KiCad,Pcbnew,(5.99.0-10138-g1fe0c6d870)*%
%TF.CreationDate,2021-07-12T21:30:40+01:00*%
%TF.ProjectId,Hagiwo DCO Panel,48616769-776f-4204-9443-4f2050616e65,rev?*%
%TF.SameCoordinates,Original*%
%TF.FileFunction,Legend,Bot*%
%TF.FilePolarity,Positive*%
%FSLAX46Y46*%
G04 Gerber Fmt 4.6, Leading zero omitted, Abs format (unit mm)*
G04 Created by KiCad (PCBNEW (5.99.0-10138-g1fe0c6d870)) date 2021-07-12 21:30:40*
%MOMM*%
%LPD*%
G01*
G04 APERTURE LIST*
%ADD10C,0.150000*%
%ADD11C,2.065715*%
%ADD12C,7.500000*%
%ADD13O,6.000000X3.500000*%
%ADD14C,8.500000*%
G04 APERTURE END LIST*
%LPC*%
D10*
X125849063Y-154066875D02*
X155932188Y-154066875D01*
X155932188Y-154066875D02*
X155932188Y-163750625D01*
X155932188Y-163750625D02*
X125849063Y-163750625D01*
X125849063Y-163750625D02*
X125849063Y-154066875D01*
G36*
X125849063Y-154066875D02*
G01*
X155932188Y-154066875D01*
X155932188Y-163750625D01*
X125849063Y-163750625D01*
X125849063Y-154066875D01*
G37*
D11*
X142002857Y-110490000D02*
G75*
G03*
X142002857Y-110490000I-1032857J0D01*
G01*
X142002857Y-114935000D02*
G75*
G03*
X142002857Y-114935000I-1032857J0D01*
G01*
X142002857Y-119380000D02*
G75*
G03*
X142002857Y-119380000I-1032857J0D01*
G01*
D10*
X125888750Y-34766250D02*
X155971875Y-34766250D01*
X155971875Y-34766250D02*
X155971875Y-44450000D01*
X155971875Y-44450000D02*
X125888750Y-44450000D01*
X125888750Y-44450000D02*
X125888750Y-34766250D01*
G36*
X125888750Y-34766250D02*
G01*
X155971875Y-34766250D01*
X155971875Y-44450000D01*
X125888750Y-44450000D01*
X125888750Y-34766250D01*
G37*
D12*
%TO.C,REF\u002A\u002A*%
X151130000Y-147320000D03*
%TD*%
%TO.C,REF\u002A\u002A*%
X151130000Y-130175000D03*
%TD*%
%TO.C,REF\u002A\u002A*%
X130810000Y-130175000D03*
%TD*%
D13*
%TO.C,REF\u002A\u002A*%
X133508750Y-160337500D03*
%TD*%
%TO.C,REF\u002A\u002A*%
X148431250Y-37861875D03*
%TD*%
D14*
%TO.C,REF\u002A\u002A*%
X148431250Y-64770000D03*
%TD*%
D12*
%TO.C,REF\u002A\u002A*%
X140970000Y-147320000D03*
%TD*%
D13*
%TO.C,REF\u002A\u002A*%
X148431250Y-160337500D03*
%TD*%
%TO.C,REF\u002A\u002A*%
X133508750Y-37861875D03*
%TD*%
D12*
%TO.C,REF\u002A\u002A*%
X140970000Y-130175000D03*
%TD*%
D14*
%TO.C,REF\u002A\u002A*%
X140970000Y-49053750D03*
%TD*%
%TO.C,REF\u002A\u002A*%
X133508750Y-73025000D03*
%TD*%
D12*
%TO.C,REF\u002A\u002A*%
X130810000Y-114935000D03*
%TD*%
%TO.C,REF\u002A\u002A*%
X130810000Y-147320000D03*
%TD*%
M02*
